%TF.GenerationSoftware,KiCad,Pcbnew,(6.0.2)*%
%TF.CreationDate,2022-10-19T17:10:30-07:00*%
%TF.ProjectId,tetris,74657472-6973-42e6-9b69-6361645f7063,rev?*%
%TF.SameCoordinates,Original*%
%TF.FileFunction,Legend,Top*%
%TF.FilePolarity,Positive*%
%FSLAX46Y46*%
G04 Gerber Fmt 4.6, Leading zero omitted, Abs format (unit mm)*
G04 Created by KiCad (PCBNEW (6.0.2)) date 2022-10-19 17:10:30*
%MOMM*%
%LPD*%
G01*
G04 APERTURE LIST*
%ADD10C,0.100000*%
%ADD11C,0.150000*%
%ADD12C,0.120000*%
G04 APERTURE END LIST*
D10*
X0Y-243840000D02*
X152400000Y-243840000D01*
X91440000Y0D02*
X91440000Y-304800000D01*
X30480000Y0D02*
X30480000Y-304800000D01*
X0Y-121920000D02*
X152400000Y-121920000D01*
X121920000Y0D02*
X121920000Y-304800000D01*
X0Y-182880000D02*
X152400000Y-182880000D01*
X0Y-91440000D02*
X152400000Y-91440000D01*
X0Y-213360000D02*
X152400000Y-213360000D01*
X0Y-60960000D02*
X152400000Y-60960000D01*
X0Y-274320000D02*
X152400000Y-274320000D01*
X0Y-30480000D02*
X152400000Y-30480000D01*
X0Y-152400000D02*
X152400000Y-152400000D01*
X60960000Y-304800000D02*
X60960000Y-508000D01*
D11*
%TO.C,C18*%
X20859142Y-199270857D02*
X20906761Y-199318476D01*
X20954380Y-199461333D01*
X20954380Y-199556571D01*
X20906761Y-199699428D01*
X20811523Y-199794666D01*
X20716285Y-199842285D01*
X20525809Y-199889904D01*
X20382952Y-199889904D01*
X20192476Y-199842285D01*
X20097238Y-199794666D01*
X20002000Y-199699428D01*
X19954380Y-199556571D01*
X19954380Y-199461333D01*
X20002000Y-199318476D01*
X20049619Y-199270857D01*
X20954380Y-198318476D02*
X20954380Y-198889904D01*
X20954380Y-198604190D02*
X19954380Y-198604190D01*
X20097238Y-198699428D01*
X20192476Y-198794666D01*
X20240095Y-198889904D01*
X20382952Y-197747047D02*
X20335333Y-197842285D01*
X20287714Y-197889904D01*
X20192476Y-197937523D01*
X20144857Y-197937523D01*
X20049619Y-197889904D01*
X20002000Y-197842285D01*
X19954380Y-197747047D01*
X19954380Y-197556571D01*
X20002000Y-197461333D01*
X20049619Y-197413714D01*
X20144857Y-197366095D01*
X20192476Y-197366095D01*
X20287714Y-197413714D01*
X20335333Y-197461333D01*
X20382952Y-197556571D01*
X20382952Y-197747047D01*
X20430571Y-197842285D01*
X20478190Y-197889904D01*
X20573428Y-197937523D01*
X20763904Y-197937523D01*
X20859142Y-197889904D01*
X20906761Y-197842285D01*
X20954380Y-197747047D01*
X20954380Y-197556571D01*
X20906761Y-197461333D01*
X20859142Y-197413714D01*
X20763904Y-197366095D01*
X20573428Y-197366095D01*
X20478190Y-197413714D01*
X20430571Y-197461333D01*
X20382952Y-197556571D01*
%TO.C,C24*%
X133779142Y-229242857D02*
X133826761Y-229290476D01*
X133874380Y-229433333D01*
X133874380Y-229528571D01*
X133826761Y-229671428D01*
X133731523Y-229766666D01*
X133636285Y-229814285D01*
X133445809Y-229861904D01*
X133302952Y-229861904D01*
X133112476Y-229814285D01*
X133017238Y-229766666D01*
X132922000Y-229671428D01*
X132874380Y-229528571D01*
X132874380Y-229433333D01*
X132922000Y-229290476D01*
X132969619Y-229242857D01*
X132969619Y-228861904D02*
X132922000Y-228814285D01*
X132874380Y-228719047D01*
X132874380Y-228480952D01*
X132922000Y-228385714D01*
X132969619Y-228338095D01*
X133064857Y-228290476D01*
X133160095Y-228290476D01*
X133302952Y-228338095D01*
X133874380Y-228909523D01*
X133874380Y-228290476D01*
X133207714Y-227433333D02*
X133874380Y-227433333D01*
X132826761Y-227671428D02*
X133541047Y-227909523D01*
X133541047Y-227290476D01*
%TO.C,D48*%
X73152380Y-16454285D02*
X72152380Y-16454285D01*
X72152380Y-16216190D01*
X72200000Y-16073333D01*
X72295238Y-15978095D01*
X72390476Y-15930476D01*
X72580952Y-15882857D01*
X72723809Y-15882857D01*
X72914285Y-15930476D01*
X73009523Y-15978095D01*
X73104761Y-16073333D01*
X73152380Y-16216190D01*
X73152380Y-16454285D01*
X72485714Y-15025714D02*
X73152380Y-15025714D01*
X72104761Y-15263809D02*
X72819047Y-15501904D01*
X72819047Y-14882857D01*
X72580952Y-14359047D02*
X72533333Y-14454285D01*
X72485714Y-14501904D01*
X72390476Y-14549523D01*
X72342857Y-14549523D01*
X72247619Y-14501904D01*
X72200000Y-14454285D01*
X72152380Y-14359047D01*
X72152380Y-14168571D01*
X72200000Y-14073333D01*
X72247619Y-14025714D01*
X72342857Y-13978095D01*
X72390476Y-13978095D01*
X72485714Y-14025714D01*
X72533333Y-14073333D01*
X72580952Y-14168571D01*
X72580952Y-14359047D01*
X72628571Y-14454285D01*
X72676190Y-14501904D01*
X72771428Y-14549523D01*
X72961904Y-14549523D01*
X73057142Y-14501904D01*
X73104761Y-14454285D01*
X73152380Y-14359047D01*
X73152380Y-14168571D01*
X73104761Y-14073333D01*
X73057142Y-14025714D01*
X72961904Y-13978095D01*
X72771428Y-13978095D01*
X72676190Y-14025714D01*
X72628571Y-14073333D01*
X72580952Y-14168571D01*
X75052380Y-19104285D02*
X75052380Y-19675714D01*
X75052380Y-19390000D02*
X74052380Y-19390000D01*
X74195238Y-19485238D01*
X74290476Y-19580476D01*
X74338095Y-19675714D01*
%TO.C,C32*%
X41323142Y-107322857D02*
X41370761Y-107370476D01*
X41418380Y-107513333D01*
X41418380Y-107608571D01*
X41370761Y-107751428D01*
X41275523Y-107846666D01*
X41180285Y-107894285D01*
X40989809Y-107941904D01*
X40846952Y-107941904D01*
X40656476Y-107894285D01*
X40561238Y-107846666D01*
X40466000Y-107751428D01*
X40418380Y-107608571D01*
X40418380Y-107513333D01*
X40466000Y-107370476D01*
X40513619Y-107322857D01*
X40418380Y-106989523D02*
X40418380Y-106370476D01*
X40799333Y-106703809D01*
X40799333Y-106560952D01*
X40846952Y-106465714D01*
X40894571Y-106418095D01*
X40989809Y-106370476D01*
X41227904Y-106370476D01*
X41323142Y-106418095D01*
X41370761Y-106465714D01*
X41418380Y-106560952D01*
X41418380Y-106846666D01*
X41370761Y-106941904D01*
X41323142Y-106989523D01*
X40513619Y-105989523D02*
X40466000Y-105941904D01*
X40418380Y-105846666D01*
X40418380Y-105608571D01*
X40466000Y-105513333D01*
X40513619Y-105465714D01*
X40608857Y-105418095D01*
X40704095Y-105418095D01*
X40846952Y-105465714D01*
X41418380Y-106037142D01*
X41418380Y-105418095D01*
%TO.C,D25*%
X141112380Y-168854285D02*
X140112380Y-168854285D01*
X140112380Y-168616190D01*
X140160000Y-168473333D01*
X140255238Y-168378095D01*
X140350476Y-168330476D01*
X140540952Y-168282857D01*
X140683809Y-168282857D01*
X140874285Y-168330476D01*
X140969523Y-168378095D01*
X141064761Y-168473333D01*
X141112380Y-168616190D01*
X141112380Y-168854285D01*
X140207619Y-167901904D02*
X140160000Y-167854285D01*
X140112380Y-167759047D01*
X140112380Y-167520952D01*
X140160000Y-167425714D01*
X140207619Y-167378095D01*
X140302857Y-167330476D01*
X140398095Y-167330476D01*
X140540952Y-167378095D01*
X141112380Y-167949523D01*
X141112380Y-167330476D01*
X140112380Y-166425714D02*
X140112380Y-166901904D01*
X140588571Y-166949523D01*
X140540952Y-166901904D01*
X140493333Y-166806666D01*
X140493333Y-166568571D01*
X140540952Y-166473333D01*
X140588571Y-166425714D01*
X140683809Y-166378095D01*
X140921904Y-166378095D01*
X141017142Y-166425714D01*
X141064761Y-166473333D01*
X141112380Y-166568571D01*
X141112380Y-166806666D01*
X141064761Y-166901904D01*
X141017142Y-166949523D01*
X139212380Y-163204285D02*
X139212380Y-163775714D01*
X139212380Y-163490000D02*
X138212380Y-163490000D01*
X138355238Y-163585238D01*
X138450476Y-163680476D01*
X138498095Y-163775714D01*
%TO.C,C20*%
X41323142Y-168282857D02*
X41370761Y-168330476D01*
X41418380Y-168473333D01*
X41418380Y-168568571D01*
X41370761Y-168711428D01*
X41275523Y-168806666D01*
X41180285Y-168854285D01*
X40989809Y-168901904D01*
X40846952Y-168901904D01*
X40656476Y-168854285D01*
X40561238Y-168806666D01*
X40466000Y-168711428D01*
X40418380Y-168568571D01*
X40418380Y-168473333D01*
X40466000Y-168330476D01*
X40513619Y-168282857D01*
X40513619Y-167901904D02*
X40466000Y-167854285D01*
X40418380Y-167759047D01*
X40418380Y-167520952D01*
X40466000Y-167425714D01*
X40513619Y-167378095D01*
X40608857Y-167330476D01*
X40704095Y-167330476D01*
X40846952Y-167378095D01*
X41418380Y-167949523D01*
X41418380Y-167330476D01*
X40418380Y-166711428D02*
X40418380Y-166616190D01*
X40466000Y-166520952D01*
X40513619Y-166473333D01*
X40608857Y-166425714D01*
X40799333Y-166378095D01*
X41037428Y-166378095D01*
X41227904Y-166425714D01*
X41323142Y-166473333D01*
X41370761Y-166520952D01*
X41418380Y-166616190D01*
X41418380Y-166711428D01*
X41370761Y-166806666D01*
X41323142Y-166854285D01*
X41227904Y-166901904D01*
X41037428Y-166949523D01*
X40799333Y-166949523D01*
X40608857Y-166901904D01*
X40513619Y-166854285D01*
X40466000Y-166806666D01*
X40418380Y-166711428D01*
%TO.C,D22*%
X12227528Y-260376987D02*
X11227528Y-260376987D01*
X11227528Y-260138892D01*
X11275148Y-259996035D01*
X11370386Y-259900797D01*
X11465624Y-259853178D01*
X11656100Y-259805559D01*
X11798957Y-259805559D01*
X11989433Y-259853178D01*
X12084671Y-259900797D01*
X12179909Y-259996035D01*
X12227528Y-260138892D01*
X12227528Y-260376987D01*
X11322767Y-259424606D02*
X11275148Y-259376987D01*
X11227528Y-259281749D01*
X11227528Y-259043654D01*
X11275148Y-258948416D01*
X11322767Y-258900797D01*
X11418005Y-258853178D01*
X11513243Y-258853178D01*
X11656100Y-258900797D01*
X12227528Y-259472225D01*
X12227528Y-258853178D01*
X11322767Y-258472225D02*
X11275148Y-258424606D01*
X11227528Y-258329368D01*
X11227528Y-258091273D01*
X11275148Y-257996035D01*
X11322767Y-257948416D01*
X11418005Y-257900797D01*
X11513243Y-257900797D01*
X11656100Y-257948416D01*
X12227528Y-258519844D01*
X12227528Y-257900797D01*
X14127528Y-263026987D02*
X14127528Y-263598416D01*
X14127528Y-263312702D02*
X13127528Y-263312702D01*
X13270386Y-263407940D01*
X13365624Y-263503178D01*
X13413243Y-263598416D01*
%TO.C,C27*%
X111791142Y-137802857D02*
X111838761Y-137850476D01*
X111886380Y-137993333D01*
X111886380Y-138088571D01*
X111838761Y-138231428D01*
X111743523Y-138326666D01*
X111648285Y-138374285D01*
X111457809Y-138421904D01*
X111314952Y-138421904D01*
X111124476Y-138374285D01*
X111029238Y-138326666D01*
X110934000Y-138231428D01*
X110886380Y-138088571D01*
X110886380Y-137993333D01*
X110934000Y-137850476D01*
X110981619Y-137802857D01*
X110981619Y-137421904D02*
X110934000Y-137374285D01*
X110886380Y-137279047D01*
X110886380Y-137040952D01*
X110934000Y-136945714D01*
X110981619Y-136898095D01*
X111076857Y-136850476D01*
X111172095Y-136850476D01*
X111314952Y-136898095D01*
X111886380Y-137469523D01*
X111886380Y-136850476D01*
X110886380Y-136517142D02*
X110886380Y-135850476D01*
X111886380Y-136279047D01*
%TO.C,C16*%
X81868142Y-198762857D02*
X81915761Y-198810476D01*
X81963380Y-198953333D01*
X81963380Y-199048571D01*
X81915761Y-199191428D01*
X81820523Y-199286666D01*
X81725285Y-199334285D01*
X81534809Y-199381904D01*
X81391952Y-199381904D01*
X81201476Y-199334285D01*
X81106238Y-199286666D01*
X81011000Y-199191428D01*
X80963380Y-199048571D01*
X80963380Y-198953333D01*
X81011000Y-198810476D01*
X81058619Y-198762857D01*
X81963380Y-197810476D02*
X81963380Y-198381904D01*
X81963380Y-198096190D02*
X80963380Y-198096190D01*
X81106238Y-198191428D01*
X81201476Y-198286666D01*
X81249095Y-198381904D01*
X80963380Y-196953333D02*
X80963380Y-197143809D01*
X81011000Y-197239047D01*
X81058619Y-197286666D01*
X81201476Y-197381904D01*
X81391952Y-197429523D01*
X81772904Y-197429523D01*
X81868142Y-197381904D01*
X81915761Y-197334285D01*
X81963380Y-197239047D01*
X81963380Y-197048571D01*
X81915761Y-196953333D01*
X81868142Y-196905714D01*
X81772904Y-196858095D01*
X81534809Y-196858095D01*
X81439571Y-196905714D01*
X81391952Y-196953333D01*
X81344333Y-197048571D01*
X81344333Y-197239047D01*
X81391952Y-197334285D01*
X81439571Y-197381904D01*
X81534809Y-197429523D01*
%TO.C,D45*%
X141112380Y-46934285D02*
X140112380Y-46934285D01*
X140112380Y-46696190D01*
X140160000Y-46553333D01*
X140255238Y-46458095D01*
X140350476Y-46410476D01*
X140540952Y-46362857D01*
X140683809Y-46362857D01*
X140874285Y-46410476D01*
X140969523Y-46458095D01*
X141064761Y-46553333D01*
X141112380Y-46696190D01*
X141112380Y-46934285D01*
X140445714Y-45505714D02*
X141112380Y-45505714D01*
X140064761Y-45743809D02*
X140779047Y-45981904D01*
X140779047Y-45362857D01*
X140112380Y-44505714D02*
X140112380Y-44981904D01*
X140588571Y-45029523D01*
X140540952Y-44981904D01*
X140493333Y-44886666D01*
X140493333Y-44648571D01*
X140540952Y-44553333D01*
X140588571Y-44505714D01*
X140683809Y-44458095D01*
X140921904Y-44458095D01*
X141017142Y-44505714D01*
X141064761Y-44553333D01*
X141112380Y-44648571D01*
X141112380Y-44886666D01*
X141064761Y-44981904D01*
X141017142Y-45029523D01*
X139212380Y-41284285D02*
X139212380Y-41855714D01*
X139212380Y-41570000D02*
X138212380Y-41570000D01*
X138355238Y-41665238D01*
X138450476Y-41760476D01*
X138498095Y-41855714D01*
%TO.C,C23*%
X132255142Y-168282857D02*
X132302761Y-168330476D01*
X132350380Y-168473333D01*
X132350380Y-168568571D01*
X132302761Y-168711428D01*
X132207523Y-168806666D01*
X132112285Y-168854285D01*
X131921809Y-168901904D01*
X131778952Y-168901904D01*
X131588476Y-168854285D01*
X131493238Y-168806666D01*
X131398000Y-168711428D01*
X131350380Y-168568571D01*
X131350380Y-168473333D01*
X131398000Y-168330476D01*
X131445619Y-168282857D01*
X131445619Y-167901904D02*
X131398000Y-167854285D01*
X131350380Y-167759047D01*
X131350380Y-167520952D01*
X131398000Y-167425714D01*
X131445619Y-167378095D01*
X131540857Y-167330476D01*
X131636095Y-167330476D01*
X131778952Y-167378095D01*
X132350380Y-167949523D01*
X132350380Y-167330476D01*
X131350380Y-166997142D02*
X131350380Y-166378095D01*
X131731333Y-166711428D01*
X131731333Y-166568571D01*
X131778952Y-166473333D01*
X131826571Y-166425714D01*
X131921809Y-166378095D01*
X132159904Y-166378095D01*
X132255142Y-166425714D01*
X132302761Y-166473333D01*
X132350380Y-166568571D01*
X132350380Y-166854285D01*
X132302761Y-166949523D01*
X132255142Y-166997142D01*
%TO.C,C26*%
X139731142Y-137802857D02*
X139778761Y-137850476D01*
X139826380Y-137993333D01*
X139826380Y-138088571D01*
X139778761Y-138231428D01*
X139683523Y-138326666D01*
X139588285Y-138374285D01*
X139397809Y-138421904D01*
X139254952Y-138421904D01*
X139064476Y-138374285D01*
X138969238Y-138326666D01*
X138874000Y-138231428D01*
X138826380Y-138088571D01*
X138826380Y-137993333D01*
X138874000Y-137850476D01*
X138921619Y-137802857D01*
X138921619Y-137421904D02*
X138874000Y-137374285D01*
X138826380Y-137279047D01*
X138826380Y-137040952D01*
X138874000Y-136945714D01*
X138921619Y-136898095D01*
X139016857Y-136850476D01*
X139112095Y-136850476D01*
X139254952Y-136898095D01*
X139826380Y-137469523D01*
X139826380Y-136850476D01*
X138826380Y-135993333D02*
X138826380Y-136183809D01*
X138874000Y-136279047D01*
X138921619Y-136326666D01*
X139064476Y-136421904D01*
X139254952Y-136469523D01*
X139635904Y-136469523D01*
X139731142Y-136421904D01*
X139778761Y-136374285D01*
X139826380Y-136279047D01*
X139826380Y-136088571D01*
X139778761Y-135993333D01*
X139731142Y-135945714D01*
X139635904Y-135898095D01*
X139397809Y-135898095D01*
X139302571Y-135945714D01*
X139254952Y-135993333D01*
X139207333Y-136088571D01*
X139207333Y-136279047D01*
X139254952Y-136374285D01*
X139302571Y-136421904D01*
X139397809Y-136469523D01*
%TO.C,D2*%
X134112380Y-259818095D02*
X133112380Y-259818095D01*
X133112380Y-259580000D01*
X133160000Y-259437142D01*
X133255238Y-259341904D01*
X133350476Y-259294285D01*
X133540952Y-259246666D01*
X133683809Y-259246666D01*
X133874285Y-259294285D01*
X133969523Y-259341904D01*
X134064761Y-259437142D01*
X134112380Y-259580000D01*
X134112380Y-259818095D01*
X133207619Y-258865714D02*
X133160000Y-258818095D01*
X133112380Y-258722857D01*
X133112380Y-258484761D01*
X133160000Y-258389523D01*
X133207619Y-258341904D01*
X133302857Y-258294285D01*
X133398095Y-258294285D01*
X133540952Y-258341904D01*
X134112380Y-258913333D01*
X134112380Y-258294285D01*
X136012380Y-262944285D02*
X136012380Y-263515714D01*
X136012380Y-263230000D02*
X135012380Y-263230000D01*
X135155238Y-263325238D01*
X135250476Y-263420476D01*
X135298095Y-263515714D01*
%TO.C,D17*%
X42672380Y-260294285D02*
X41672380Y-260294285D01*
X41672380Y-260056190D01*
X41720000Y-259913333D01*
X41815238Y-259818095D01*
X41910476Y-259770476D01*
X42100952Y-259722857D01*
X42243809Y-259722857D01*
X42434285Y-259770476D01*
X42529523Y-259818095D01*
X42624761Y-259913333D01*
X42672380Y-260056190D01*
X42672380Y-260294285D01*
X42672380Y-258770476D02*
X42672380Y-259341904D01*
X42672380Y-259056190D02*
X41672380Y-259056190D01*
X41815238Y-259151428D01*
X41910476Y-259246666D01*
X41958095Y-259341904D01*
X41672380Y-258437142D02*
X41672380Y-257770476D01*
X42672380Y-258199047D01*
X44572380Y-262944285D02*
X44572380Y-263515714D01*
X44572380Y-263230000D02*
X43572380Y-263230000D01*
X43715238Y-263325238D01*
X43810476Y-263420476D01*
X43858095Y-263515714D01*
%TO.C,D41*%
X19192380Y-46934285D02*
X18192380Y-46934285D01*
X18192380Y-46696190D01*
X18240000Y-46553333D01*
X18335238Y-46458095D01*
X18430476Y-46410476D01*
X18620952Y-46362857D01*
X18763809Y-46362857D01*
X18954285Y-46410476D01*
X19049523Y-46458095D01*
X19144761Y-46553333D01*
X19192380Y-46696190D01*
X19192380Y-46934285D01*
X18525714Y-45505714D02*
X19192380Y-45505714D01*
X18144761Y-45743809D02*
X18859047Y-45981904D01*
X18859047Y-45362857D01*
X19192380Y-44458095D02*
X19192380Y-45029523D01*
X19192380Y-44743809D02*
X18192380Y-44743809D01*
X18335238Y-44839047D01*
X18430476Y-44934285D01*
X18478095Y-45029523D01*
X17292380Y-41284285D02*
X17292380Y-41855714D01*
X17292380Y-41570000D02*
X16292380Y-41570000D01*
X16435238Y-41665238D01*
X16530476Y-41760476D01*
X16578095Y-41855714D01*
%TO.C,D16*%
X110632380Y-290774285D02*
X109632380Y-290774285D01*
X109632380Y-290536190D01*
X109680000Y-290393333D01*
X109775238Y-290298095D01*
X109870476Y-290250476D01*
X110060952Y-290202857D01*
X110203809Y-290202857D01*
X110394285Y-290250476D01*
X110489523Y-290298095D01*
X110584761Y-290393333D01*
X110632380Y-290536190D01*
X110632380Y-290774285D01*
X110632380Y-289250476D02*
X110632380Y-289821904D01*
X110632380Y-289536190D02*
X109632380Y-289536190D01*
X109775238Y-289631428D01*
X109870476Y-289726666D01*
X109918095Y-289821904D01*
X109632380Y-288393333D02*
X109632380Y-288583809D01*
X109680000Y-288679047D01*
X109727619Y-288726666D01*
X109870476Y-288821904D01*
X110060952Y-288869523D01*
X110441904Y-288869523D01*
X110537142Y-288821904D01*
X110584761Y-288774285D01*
X110632380Y-288679047D01*
X110632380Y-288488571D01*
X110584761Y-288393333D01*
X110537142Y-288345714D01*
X110441904Y-288298095D01*
X110203809Y-288298095D01*
X110108571Y-288345714D01*
X110060952Y-288393333D01*
X110013333Y-288488571D01*
X110013333Y-288679047D01*
X110060952Y-288774285D01*
X110108571Y-288821904D01*
X110203809Y-288869523D01*
X108732380Y-285124285D02*
X108732380Y-285695714D01*
X108732380Y-285410000D02*
X107732380Y-285410000D01*
X107875238Y-285505238D01*
X107970476Y-285600476D01*
X108018095Y-285695714D01*
%TO.C,C45*%
X131747142Y-46362857D02*
X131794761Y-46410476D01*
X131842380Y-46553333D01*
X131842380Y-46648571D01*
X131794761Y-46791428D01*
X131699523Y-46886666D01*
X131604285Y-46934285D01*
X131413809Y-46981904D01*
X131270952Y-46981904D01*
X131080476Y-46934285D01*
X130985238Y-46886666D01*
X130890000Y-46791428D01*
X130842380Y-46648571D01*
X130842380Y-46553333D01*
X130890000Y-46410476D01*
X130937619Y-46362857D01*
X131175714Y-45505714D02*
X131842380Y-45505714D01*
X130794761Y-45743809D02*
X131509047Y-45981904D01*
X131509047Y-45362857D01*
X130842380Y-44505714D02*
X130842380Y-44981904D01*
X131318571Y-45029523D01*
X131270952Y-44981904D01*
X131223333Y-44886666D01*
X131223333Y-44648571D01*
X131270952Y-44553333D01*
X131318571Y-44505714D01*
X131413809Y-44458095D01*
X131651904Y-44458095D01*
X131747142Y-44505714D01*
X131794761Y-44553333D01*
X131842380Y-44648571D01*
X131842380Y-44886666D01*
X131794761Y-44981904D01*
X131747142Y-45029523D01*
%TO.C,D50*%
X12192380Y-16454285D02*
X11192380Y-16454285D01*
X11192380Y-16216190D01*
X11240000Y-16073333D01*
X11335238Y-15978095D01*
X11430476Y-15930476D01*
X11620952Y-15882857D01*
X11763809Y-15882857D01*
X11954285Y-15930476D01*
X12049523Y-15978095D01*
X12144761Y-16073333D01*
X12192380Y-16216190D01*
X12192380Y-16454285D01*
X11192380Y-14978095D02*
X11192380Y-15454285D01*
X11668571Y-15501904D01*
X11620952Y-15454285D01*
X11573333Y-15359047D01*
X11573333Y-15120952D01*
X11620952Y-15025714D01*
X11668571Y-14978095D01*
X11763809Y-14930476D01*
X12001904Y-14930476D01*
X12097142Y-14978095D01*
X12144761Y-15025714D01*
X12192380Y-15120952D01*
X12192380Y-15359047D01*
X12144761Y-15454285D01*
X12097142Y-15501904D01*
X11192380Y-14311428D02*
X11192380Y-14216190D01*
X11240000Y-14120952D01*
X11287619Y-14073333D01*
X11382857Y-14025714D01*
X11573333Y-13978095D01*
X11811428Y-13978095D01*
X12001904Y-14025714D01*
X12097142Y-14073333D01*
X12144761Y-14120952D01*
X12192380Y-14216190D01*
X12192380Y-14311428D01*
X12144761Y-14406666D01*
X12097142Y-14454285D01*
X12001904Y-14501904D01*
X11811428Y-14549523D01*
X11573333Y-14549523D01*
X11382857Y-14501904D01*
X11287619Y-14454285D01*
X11240000Y-14406666D01*
X11192380Y-14311428D01*
X14092380Y-19104285D02*
X14092380Y-19675714D01*
X14092380Y-19390000D02*
X13092380Y-19390000D01*
X13235238Y-19485238D01*
X13330476Y-19580476D01*
X13378095Y-19675714D01*
%TO.C,D37*%
X103632380Y-77414285D02*
X102632380Y-77414285D01*
X102632380Y-77176190D01*
X102680000Y-77033333D01*
X102775238Y-76938095D01*
X102870476Y-76890476D01*
X103060952Y-76842857D01*
X103203809Y-76842857D01*
X103394285Y-76890476D01*
X103489523Y-76938095D01*
X103584761Y-77033333D01*
X103632380Y-77176190D01*
X103632380Y-77414285D01*
X102632380Y-76509523D02*
X102632380Y-75890476D01*
X103013333Y-76223809D01*
X103013333Y-76080952D01*
X103060952Y-75985714D01*
X103108571Y-75938095D01*
X103203809Y-75890476D01*
X103441904Y-75890476D01*
X103537142Y-75938095D01*
X103584761Y-75985714D01*
X103632380Y-76080952D01*
X103632380Y-76366666D01*
X103584761Y-76461904D01*
X103537142Y-76509523D01*
X102632380Y-75557142D02*
X102632380Y-74890476D01*
X103632380Y-75319047D01*
X105532380Y-80064285D02*
X105532380Y-80635714D01*
X105532380Y-80350000D02*
X104532380Y-80350000D01*
X104675238Y-80445238D01*
X104770476Y-80540476D01*
X104818095Y-80635714D01*
%TO.C,C15*%
X112807142Y-199270857D02*
X112854761Y-199318476D01*
X112902380Y-199461333D01*
X112902380Y-199556571D01*
X112854761Y-199699428D01*
X112759523Y-199794666D01*
X112664285Y-199842285D01*
X112473809Y-199889904D01*
X112330952Y-199889904D01*
X112140476Y-199842285D01*
X112045238Y-199794666D01*
X111950000Y-199699428D01*
X111902380Y-199556571D01*
X111902380Y-199461333D01*
X111950000Y-199318476D01*
X111997619Y-199270857D01*
X112902380Y-198318476D02*
X112902380Y-198889904D01*
X112902380Y-198604190D02*
X111902380Y-198604190D01*
X112045238Y-198699428D01*
X112140476Y-198794666D01*
X112188095Y-198889904D01*
X111902380Y-197413714D02*
X111902380Y-197889904D01*
X112378571Y-197937523D01*
X112330952Y-197889904D01*
X112283333Y-197794666D01*
X112283333Y-197556571D01*
X112330952Y-197461333D01*
X112378571Y-197413714D01*
X112473809Y-197366095D01*
X112711904Y-197366095D01*
X112807142Y-197413714D01*
X112854761Y-197461333D01*
X112902380Y-197556571D01*
X112902380Y-197794666D01*
X112854761Y-197889904D01*
X112807142Y-197937523D01*
%TO.C,C35*%
X132763142Y-107322857D02*
X132810761Y-107370476D01*
X132858380Y-107513333D01*
X132858380Y-107608571D01*
X132810761Y-107751428D01*
X132715523Y-107846666D01*
X132620285Y-107894285D01*
X132429809Y-107941904D01*
X132286952Y-107941904D01*
X132096476Y-107894285D01*
X132001238Y-107846666D01*
X131906000Y-107751428D01*
X131858380Y-107608571D01*
X131858380Y-107513333D01*
X131906000Y-107370476D01*
X131953619Y-107322857D01*
X131858380Y-106989523D02*
X131858380Y-106370476D01*
X132239333Y-106703809D01*
X132239333Y-106560952D01*
X132286952Y-106465714D01*
X132334571Y-106418095D01*
X132429809Y-106370476D01*
X132667904Y-106370476D01*
X132763142Y-106418095D01*
X132810761Y-106465714D01*
X132858380Y-106560952D01*
X132858380Y-106846666D01*
X132810761Y-106941904D01*
X132763142Y-106989523D01*
X131858380Y-105465714D02*
X131858380Y-105941904D01*
X132334571Y-105989523D01*
X132286952Y-105941904D01*
X132239333Y-105846666D01*
X132239333Y-105608571D01*
X132286952Y-105513333D01*
X132334571Y-105465714D01*
X132429809Y-105418095D01*
X132667904Y-105418095D01*
X132763142Y-105465714D01*
X132810761Y-105513333D01*
X132858380Y-105608571D01*
X132858380Y-105846666D01*
X132810761Y-105941904D01*
X132763142Y-105989523D01*
%TO.C,D24*%
X12192380Y-199334285D02*
X11192380Y-199334285D01*
X11192380Y-199096190D01*
X11240000Y-198953333D01*
X11335238Y-198858095D01*
X11430476Y-198810476D01*
X11620952Y-198762857D01*
X11763809Y-198762857D01*
X11954285Y-198810476D01*
X12049523Y-198858095D01*
X12144761Y-198953333D01*
X12192380Y-199096190D01*
X12192380Y-199334285D01*
X11287619Y-198381904D02*
X11240000Y-198334285D01*
X11192380Y-198239047D01*
X11192380Y-198000952D01*
X11240000Y-197905714D01*
X11287619Y-197858095D01*
X11382857Y-197810476D01*
X11478095Y-197810476D01*
X11620952Y-197858095D01*
X12192380Y-198429523D01*
X12192380Y-197810476D01*
X11525714Y-196953333D02*
X12192380Y-196953333D01*
X11144761Y-197191428D02*
X11859047Y-197429523D01*
X11859047Y-196810476D01*
X14092380Y-201984285D02*
X14092380Y-202555714D01*
X14092380Y-202270000D02*
X13092380Y-202270000D01*
X13235238Y-202365238D01*
X13330476Y-202460476D01*
X13378095Y-202555714D01*
%TO.C,C31*%
X10335142Y-107322857D02*
X10382761Y-107370476D01*
X10430380Y-107513333D01*
X10430380Y-107608571D01*
X10382761Y-107751428D01*
X10287523Y-107846666D01*
X10192285Y-107894285D01*
X10001809Y-107941904D01*
X9858952Y-107941904D01*
X9668476Y-107894285D01*
X9573238Y-107846666D01*
X9478000Y-107751428D01*
X9430380Y-107608571D01*
X9430380Y-107513333D01*
X9478000Y-107370476D01*
X9525619Y-107322857D01*
X9430380Y-106989523D02*
X9430380Y-106370476D01*
X9811333Y-106703809D01*
X9811333Y-106560952D01*
X9858952Y-106465714D01*
X9906571Y-106418095D01*
X10001809Y-106370476D01*
X10239904Y-106370476D01*
X10335142Y-106418095D01*
X10382761Y-106465714D01*
X10430380Y-106560952D01*
X10430380Y-106846666D01*
X10382761Y-106941904D01*
X10335142Y-106989523D01*
X10430380Y-105418095D02*
X10430380Y-105989523D01*
X10430380Y-105703809D02*
X9430380Y-105703809D01*
X9573238Y-105799047D01*
X9668476Y-105894285D01*
X9716095Y-105989523D01*
%TO.C,D43*%
X80152380Y-46934285D02*
X79152380Y-46934285D01*
X79152380Y-46696190D01*
X79200000Y-46553333D01*
X79295238Y-46458095D01*
X79390476Y-46410476D01*
X79580952Y-46362857D01*
X79723809Y-46362857D01*
X79914285Y-46410476D01*
X80009523Y-46458095D01*
X80104761Y-46553333D01*
X80152380Y-46696190D01*
X80152380Y-46934285D01*
X79485714Y-45505714D02*
X80152380Y-45505714D01*
X79104761Y-45743809D02*
X79819047Y-45981904D01*
X79819047Y-45362857D01*
X79152380Y-45077142D02*
X79152380Y-44458095D01*
X79533333Y-44791428D01*
X79533333Y-44648571D01*
X79580952Y-44553333D01*
X79628571Y-44505714D01*
X79723809Y-44458095D01*
X79961904Y-44458095D01*
X80057142Y-44505714D01*
X80104761Y-44553333D01*
X80152380Y-44648571D01*
X80152380Y-44934285D01*
X80104761Y-45029523D01*
X80057142Y-45077142D01*
X78252380Y-41284285D02*
X78252380Y-41855714D01*
X78252380Y-41570000D02*
X77252380Y-41570000D01*
X77395238Y-41665238D01*
X77490476Y-41760476D01*
X77538095Y-41855714D01*
%TO.C,C46*%
X142779142Y-15882857D02*
X142826761Y-15930476D01*
X142874380Y-16073333D01*
X142874380Y-16168571D01*
X142826761Y-16311428D01*
X142731523Y-16406666D01*
X142636285Y-16454285D01*
X142445809Y-16501904D01*
X142302952Y-16501904D01*
X142112476Y-16454285D01*
X142017238Y-16406666D01*
X141922000Y-16311428D01*
X141874380Y-16168571D01*
X141874380Y-16073333D01*
X141922000Y-15930476D01*
X141969619Y-15882857D01*
X142207714Y-15025714D02*
X142874380Y-15025714D01*
X141826761Y-15263809D02*
X142541047Y-15501904D01*
X142541047Y-14882857D01*
X141874380Y-14073333D02*
X141874380Y-14263809D01*
X141922000Y-14359047D01*
X141969619Y-14406666D01*
X142112476Y-14501904D01*
X142302952Y-14549523D01*
X142683904Y-14549523D01*
X142779142Y-14501904D01*
X142826761Y-14454285D01*
X142874380Y-14359047D01*
X142874380Y-14168571D01*
X142826761Y-14073333D01*
X142779142Y-14025714D01*
X142683904Y-13978095D01*
X142445809Y-13978095D01*
X142350571Y-14025714D01*
X142302952Y-14073333D01*
X142255333Y-14168571D01*
X142255333Y-14359047D01*
X142302952Y-14454285D01*
X142350571Y-14501904D01*
X142445809Y-14549523D01*
%TO.C,D32*%
X49672380Y-107894285D02*
X48672380Y-107894285D01*
X48672380Y-107656190D01*
X48720000Y-107513333D01*
X48815238Y-107418095D01*
X48910476Y-107370476D01*
X49100952Y-107322857D01*
X49243809Y-107322857D01*
X49434285Y-107370476D01*
X49529523Y-107418095D01*
X49624761Y-107513333D01*
X49672380Y-107656190D01*
X49672380Y-107894285D01*
X48672380Y-106989523D02*
X48672380Y-106370476D01*
X49053333Y-106703809D01*
X49053333Y-106560952D01*
X49100952Y-106465714D01*
X49148571Y-106418095D01*
X49243809Y-106370476D01*
X49481904Y-106370476D01*
X49577142Y-106418095D01*
X49624761Y-106465714D01*
X49672380Y-106560952D01*
X49672380Y-106846666D01*
X49624761Y-106941904D01*
X49577142Y-106989523D01*
X48767619Y-105989523D02*
X48720000Y-105941904D01*
X48672380Y-105846666D01*
X48672380Y-105608571D01*
X48720000Y-105513333D01*
X48767619Y-105465714D01*
X48862857Y-105418095D01*
X48958095Y-105418095D01*
X49100952Y-105465714D01*
X49672380Y-106037142D01*
X49672380Y-105418095D01*
X47772380Y-102244285D02*
X47772380Y-102815714D01*
X47772380Y-102530000D02*
X46772380Y-102530000D01*
X46915238Y-102625238D01*
X47010476Y-102720476D01*
X47058095Y-102815714D01*
%TO.C,C30*%
X20351142Y-138310857D02*
X20398761Y-138358476D01*
X20446380Y-138501333D01*
X20446380Y-138596571D01*
X20398761Y-138739428D01*
X20303523Y-138834666D01*
X20208285Y-138882285D01*
X20017809Y-138929904D01*
X19874952Y-138929904D01*
X19684476Y-138882285D01*
X19589238Y-138834666D01*
X19494000Y-138739428D01*
X19446380Y-138596571D01*
X19446380Y-138501333D01*
X19494000Y-138358476D01*
X19541619Y-138310857D01*
X19446380Y-137977523D02*
X19446380Y-137358476D01*
X19827333Y-137691809D01*
X19827333Y-137548952D01*
X19874952Y-137453714D01*
X19922571Y-137406095D01*
X20017809Y-137358476D01*
X20255904Y-137358476D01*
X20351142Y-137406095D01*
X20398761Y-137453714D01*
X20446380Y-137548952D01*
X20446380Y-137834666D01*
X20398761Y-137929904D01*
X20351142Y-137977523D01*
X19446380Y-136739428D02*
X19446380Y-136644190D01*
X19494000Y-136548952D01*
X19541619Y-136501333D01*
X19636857Y-136453714D01*
X19827333Y-136406095D01*
X20065428Y-136406095D01*
X20255904Y-136453714D01*
X20351142Y-136501333D01*
X20398761Y-136548952D01*
X20446380Y-136644190D01*
X20446380Y-136739428D01*
X20398761Y-136834666D01*
X20351142Y-136882285D01*
X20255904Y-136929904D01*
X20065428Y-136977523D01*
X19827333Y-136977523D01*
X19636857Y-136929904D01*
X19541619Y-136882285D01*
X19494000Y-136834666D01*
X19446380Y-136739428D01*
%TO.C,C21*%
X71295142Y-168282857D02*
X71342761Y-168330476D01*
X71390380Y-168473333D01*
X71390380Y-168568571D01*
X71342761Y-168711428D01*
X71247523Y-168806666D01*
X71152285Y-168854285D01*
X70961809Y-168901904D01*
X70818952Y-168901904D01*
X70628476Y-168854285D01*
X70533238Y-168806666D01*
X70438000Y-168711428D01*
X70390380Y-168568571D01*
X70390380Y-168473333D01*
X70438000Y-168330476D01*
X70485619Y-168282857D01*
X70485619Y-167901904D02*
X70438000Y-167854285D01*
X70390380Y-167759047D01*
X70390380Y-167520952D01*
X70438000Y-167425714D01*
X70485619Y-167378095D01*
X70580857Y-167330476D01*
X70676095Y-167330476D01*
X70818952Y-167378095D01*
X71390380Y-167949523D01*
X71390380Y-167330476D01*
X71390380Y-166378095D02*
X71390380Y-166949523D01*
X71390380Y-166663809D02*
X70390380Y-166663809D01*
X70533238Y-166759047D01*
X70628476Y-166854285D01*
X70676095Y-166949523D01*
%TO.C,C36*%
X142779142Y-76842857D02*
X142826761Y-76890476D01*
X142874380Y-77033333D01*
X142874380Y-77128571D01*
X142826761Y-77271428D01*
X142731523Y-77366666D01*
X142636285Y-77414285D01*
X142445809Y-77461904D01*
X142302952Y-77461904D01*
X142112476Y-77414285D01*
X142017238Y-77366666D01*
X141922000Y-77271428D01*
X141874380Y-77128571D01*
X141874380Y-77033333D01*
X141922000Y-76890476D01*
X141969619Y-76842857D01*
X141874380Y-76509523D02*
X141874380Y-75890476D01*
X142255333Y-76223809D01*
X142255333Y-76080952D01*
X142302952Y-75985714D01*
X142350571Y-75938095D01*
X142445809Y-75890476D01*
X142683904Y-75890476D01*
X142779142Y-75938095D01*
X142826761Y-75985714D01*
X142874380Y-76080952D01*
X142874380Y-76366666D01*
X142826761Y-76461904D01*
X142779142Y-76509523D01*
X141874380Y-75033333D02*
X141874380Y-75223809D01*
X141922000Y-75319047D01*
X141969619Y-75366666D01*
X142112476Y-75461904D01*
X142302952Y-75509523D01*
X142683904Y-75509523D01*
X142779142Y-75461904D01*
X142826761Y-75414285D01*
X142874380Y-75319047D01*
X142874380Y-75128571D01*
X142826761Y-75033333D01*
X142779142Y-74985714D01*
X142683904Y-74938095D01*
X142445809Y-74938095D01*
X142350571Y-74985714D01*
X142302952Y-75033333D01*
X142255333Y-75128571D01*
X142255333Y-75319047D01*
X142302952Y-75414285D01*
X142350571Y-75461904D01*
X142445809Y-75509523D01*
%TO.C,D33*%
X80152380Y-107894285D02*
X79152380Y-107894285D01*
X79152380Y-107656190D01*
X79200000Y-107513333D01*
X79295238Y-107418095D01*
X79390476Y-107370476D01*
X79580952Y-107322857D01*
X79723809Y-107322857D01*
X79914285Y-107370476D01*
X80009523Y-107418095D01*
X80104761Y-107513333D01*
X80152380Y-107656190D01*
X80152380Y-107894285D01*
X79152380Y-106989523D02*
X79152380Y-106370476D01*
X79533333Y-106703809D01*
X79533333Y-106560952D01*
X79580952Y-106465714D01*
X79628571Y-106418095D01*
X79723809Y-106370476D01*
X79961904Y-106370476D01*
X80057142Y-106418095D01*
X80104761Y-106465714D01*
X80152380Y-106560952D01*
X80152380Y-106846666D01*
X80104761Y-106941904D01*
X80057142Y-106989523D01*
X79152380Y-106037142D02*
X79152380Y-105418095D01*
X79533333Y-105751428D01*
X79533333Y-105608571D01*
X79580952Y-105513333D01*
X79628571Y-105465714D01*
X79723809Y-105418095D01*
X79961904Y-105418095D01*
X80057142Y-105465714D01*
X80104761Y-105513333D01*
X80152380Y-105608571D01*
X80152380Y-105894285D01*
X80104761Y-105989523D01*
X80057142Y-106037142D01*
X78252380Y-102244285D02*
X78252380Y-102815714D01*
X78252380Y-102530000D02*
X77252380Y-102530000D01*
X77395238Y-102625238D01*
X77490476Y-102720476D01*
X77538095Y-102815714D01*
%TO.C,D6*%
X49672380Y-290298095D02*
X48672380Y-290298095D01*
X48672380Y-290060000D01*
X48720000Y-289917142D01*
X48815238Y-289821904D01*
X48910476Y-289774285D01*
X49100952Y-289726666D01*
X49243809Y-289726666D01*
X49434285Y-289774285D01*
X49529523Y-289821904D01*
X49624761Y-289917142D01*
X49672380Y-290060000D01*
X49672380Y-290298095D01*
X48672380Y-288869523D02*
X48672380Y-289060000D01*
X48720000Y-289155238D01*
X48767619Y-289202857D01*
X48910476Y-289298095D01*
X49100952Y-289345714D01*
X49481904Y-289345714D01*
X49577142Y-289298095D01*
X49624761Y-289250476D01*
X49672380Y-289155238D01*
X49672380Y-288964761D01*
X49624761Y-288869523D01*
X49577142Y-288821904D01*
X49481904Y-288774285D01*
X49243809Y-288774285D01*
X49148571Y-288821904D01*
X49100952Y-288869523D01*
X49053333Y-288964761D01*
X49053333Y-289155238D01*
X49100952Y-289250476D01*
X49148571Y-289298095D01*
X49243809Y-289345714D01*
X47772380Y-285124285D02*
X47772380Y-285695714D01*
X47772380Y-285410000D02*
X46772380Y-285410000D01*
X46915238Y-285505238D01*
X47010476Y-285600476D01*
X47058095Y-285695714D01*
%TO.C,C17*%
X51339142Y-199270857D02*
X51386761Y-199318476D01*
X51434380Y-199461333D01*
X51434380Y-199556571D01*
X51386761Y-199699428D01*
X51291523Y-199794666D01*
X51196285Y-199842285D01*
X51005809Y-199889904D01*
X50862952Y-199889904D01*
X50672476Y-199842285D01*
X50577238Y-199794666D01*
X50482000Y-199699428D01*
X50434380Y-199556571D01*
X50434380Y-199461333D01*
X50482000Y-199318476D01*
X50529619Y-199270857D01*
X51434380Y-198318476D02*
X51434380Y-198889904D01*
X51434380Y-198604190D02*
X50434380Y-198604190D01*
X50577238Y-198699428D01*
X50672476Y-198794666D01*
X50720095Y-198889904D01*
X50434380Y-197985142D02*
X50434380Y-197318476D01*
X51434380Y-197747047D01*
%TO.C,D20*%
X110632380Y-168854285D02*
X109632380Y-168854285D01*
X109632380Y-168616190D01*
X109680000Y-168473333D01*
X109775238Y-168378095D01*
X109870476Y-168330476D01*
X110060952Y-168282857D01*
X110203809Y-168282857D01*
X110394285Y-168330476D01*
X110489523Y-168378095D01*
X110584761Y-168473333D01*
X110632380Y-168616190D01*
X110632380Y-168854285D01*
X109727619Y-167901904D02*
X109680000Y-167854285D01*
X109632380Y-167759047D01*
X109632380Y-167520952D01*
X109680000Y-167425714D01*
X109727619Y-167378095D01*
X109822857Y-167330476D01*
X109918095Y-167330476D01*
X110060952Y-167378095D01*
X110632380Y-167949523D01*
X110632380Y-167330476D01*
X109632380Y-166711428D02*
X109632380Y-166616190D01*
X109680000Y-166520952D01*
X109727619Y-166473333D01*
X109822857Y-166425714D01*
X110013333Y-166378095D01*
X110251428Y-166378095D01*
X110441904Y-166425714D01*
X110537142Y-166473333D01*
X110584761Y-166520952D01*
X110632380Y-166616190D01*
X110632380Y-166711428D01*
X110584761Y-166806666D01*
X110537142Y-166854285D01*
X110441904Y-166901904D01*
X110251428Y-166949523D01*
X110013333Y-166949523D01*
X109822857Y-166901904D01*
X109727619Y-166854285D01*
X109680000Y-166806666D01*
X109632380Y-166711428D01*
X108732380Y-163204285D02*
X108732380Y-163775714D01*
X108732380Y-163490000D02*
X107732380Y-163490000D01*
X107875238Y-163585238D01*
X107970476Y-163680476D01*
X108018095Y-163775714D01*
%TO.C,C12*%
X72819142Y-229242857D02*
X72866761Y-229290476D01*
X72914380Y-229433333D01*
X72914380Y-229528571D01*
X72866761Y-229671428D01*
X72771523Y-229766666D01*
X72676285Y-229814285D01*
X72485809Y-229861904D01*
X72342952Y-229861904D01*
X72152476Y-229814285D01*
X72057238Y-229766666D01*
X71962000Y-229671428D01*
X71914380Y-229528571D01*
X71914380Y-229433333D01*
X71962000Y-229290476D01*
X72009619Y-229242857D01*
X72914380Y-228290476D02*
X72914380Y-228861904D01*
X72914380Y-228576190D02*
X71914380Y-228576190D01*
X72057238Y-228671428D01*
X72152476Y-228766666D01*
X72200095Y-228861904D01*
X72009619Y-227909523D02*
X71962000Y-227861904D01*
X71914380Y-227766666D01*
X71914380Y-227528571D01*
X71962000Y-227433333D01*
X72009619Y-227385714D01*
X72104857Y-227338095D01*
X72200095Y-227338095D01*
X72342952Y-227385714D01*
X72914380Y-227957142D01*
X72914380Y-227338095D01*
%TO.C,D34*%
X110632380Y-107894285D02*
X109632380Y-107894285D01*
X109632380Y-107656190D01*
X109680000Y-107513333D01*
X109775238Y-107418095D01*
X109870476Y-107370476D01*
X110060952Y-107322857D01*
X110203809Y-107322857D01*
X110394285Y-107370476D01*
X110489523Y-107418095D01*
X110584761Y-107513333D01*
X110632380Y-107656190D01*
X110632380Y-107894285D01*
X109632380Y-106989523D02*
X109632380Y-106370476D01*
X110013333Y-106703809D01*
X110013333Y-106560952D01*
X110060952Y-106465714D01*
X110108571Y-106418095D01*
X110203809Y-106370476D01*
X110441904Y-106370476D01*
X110537142Y-106418095D01*
X110584761Y-106465714D01*
X110632380Y-106560952D01*
X110632380Y-106846666D01*
X110584761Y-106941904D01*
X110537142Y-106989523D01*
X109965714Y-105513333D02*
X110632380Y-105513333D01*
X109584761Y-105751428D02*
X110299047Y-105989523D01*
X110299047Y-105370476D01*
X108732380Y-102244285D02*
X108732380Y-102815714D01*
X108732380Y-102530000D02*
X107732380Y-102530000D01*
X107875238Y-102625238D01*
X107970476Y-102720476D01*
X108018095Y-102815714D01*
%TO.C,D49*%
X42672380Y-16454285D02*
X41672380Y-16454285D01*
X41672380Y-16216190D01*
X41720000Y-16073333D01*
X41815238Y-15978095D01*
X41910476Y-15930476D01*
X42100952Y-15882857D01*
X42243809Y-15882857D01*
X42434285Y-15930476D01*
X42529523Y-15978095D01*
X42624761Y-16073333D01*
X42672380Y-16216190D01*
X42672380Y-16454285D01*
X42005714Y-15025714D02*
X42672380Y-15025714D01*
X41624761Y-15263809D02*
X42339047Y-15501904D01*
X42339047Y-14882857D01*
X42672380Y-14454285D02*
X42672380Y-14263809D01*
X42624761Y-14168571D01*
X42577142Y-14120952D01*
X42434285Y-14025714D01*
X42243809Y-13978095D01*
X41862857Y-13978095D01*
X41767619Y-14025714D01*
X41720000Y-14073333D01*
X41672380Y-14168571D01*
X41672380Y-14359047D01*
X41720000Y-14454285D01*
X41767619Y-14501904D01*
X41862857Y-14549523D01*
X42100952Y-14549523D01*
X42196190Y-14501904D01*
X42243809Y-14454285D01*
X42291428Y-14359047D01*
X42291428Y-14168571D01*
X42243809Y-14073333D01*
X42196190Y-14025714D01*
X42100952Y-13978095D01*
X44572380Y-19104285D02*
X44572380Y-19675714D01*
X44572380Y-19390000D02*
X43572380Y-19390000D01*
X43715238Y-19485238D01*
X43810476Y-19580476D01*
X43858095Y-19675714D01*
%TO.C,C13*%
X103299142Y-229242857D02*
X103346761Y-229290476D01*
X103394380Y-229433333D01*
X103394380Y-229528571D01*
X103346761Y-229671428D01*
X103251523Y-229766666D01*
X103156285Y-229814285D01*
X102965809Y-229861904D01*
X102822952Y-229861904D01*
X102632476Y-229814285D01*
X102537238Y-229766666D01*
X102442000Y-229671428D01*
X102394380Y-229528571D01*
X102394380Y-229433333D01*
X102442000Y-229290476D01*
X102489619Y-229242857D01*
X103394380Y-228290476D02*
X103394380Y-228861904D01*
X103394380Y-228576190D02*
X102394380Y-228576190D01*
X102537238Y-228671428D01*
X102632476Y-228766666D01*
X102680095Y-228861904D01*
X102394380Y-227957142D02*
X102394380Y-227338095D01*
X102775333Y-227671428D01*
X102775333Y-227528571D01*
X102822952Y-227433333D01*
X102870571Y-227385714D01*
X102965809Y-227338095D01*
X103203904Y-227338095D01*
X103299142Y-227385714D01*
X103346761Y-227433333D01*
X103394380Y-227528571D01*
X103394380Y-227814285D01*
X103346761Y-227909523D01*
X103299142Y-227957142D01*
%TO.C,C33*%
X71803142Y-107322857D02*
X71850761Y-107370476D01*
X71898380Y-107513333D01*
X71898380Y-107608571D01*
X71850761Y-107751428D01*
X71755523Y-107846666D01*
X71660285Y-107894285D01*
X71469809Y-107941904D01*
X71326952Y-107941904D01*
X71136476Y-107894285D01*
X71041238Y-107846666D01*
X70946000Y-107751428D01*
X70898380Y-107608571D01*
X70898380Y-107513333D01*
X70946000Y-107370476D01*
X70993619Y-107322857D01*
X70898380Y-106989523D02*
X70898380Y-106370476D01*
X71279333Y-106703809D01*
X71279333Y-106560952D01*
X71326952Y-106465714D01*
X71374571Y-106418095D01*
X71469809Y-106370476D01*
X71707904Y-106370476D01*
X71803142Y-106418095D01*
X71850761Y-106465714D01*
X71898380Y-106560952D01*
X71898380Y-106846666D01*
X71850761Y-106941904D01*
X71803142Y-106989523D01*
X70898380Y-106037142D02*
X70898380Y-105418095D01*
X71279333Y-105751428D01*
X71279333Y-105608571D01*
X71326952Y-105513333D01*
X71374571Y-105465714D01*
X71469809Y-105418095D01*
X71707904Y-105418095D01*
X71803142Y-105465714D01*
X71850761Y-105513333D01*
X71898380Y-105608571D01*
X71898380Y-105894285D01*
X71850761Y-105989523D01*
X71803142Y-106037142D01*
%TO.C,D27*%
X103124380Y-138374285D02*
X102124380Y-138374285D01*
X102124380Y-138136190D01*
X102172000Y-137993333D01*
X102267238Y-137898095D01*
X102362476Y-137850476D01*
X102552952Y-137802857D01*
X102695809Y-137802857D01*
X102886285Y-137850476D01*
X102981523Y-137898095D01*
X103076761Y-137993333D01*
X103124380Y-138136190D01*
X103124380Y-138374285D01*
X102219619Y-137421904D02*
X102172000Y-137374285D01*
X102124380Y-137279047D01*
X102124380Y-137040952D01*
X102172000Y-136945714D01*
X102219619Y-136898095D01*
X102314857Y-136850476D01*
X102410095Y-136850476D01*
X102552952Y-136898095D01*
X103124380Y-137469523D01*
X103124380Y-136850476D01*
X102124380Y-136517142D02*
X102124380Y-135850476D01*
X103124380Y-136279047D01*
X105024380Y-141024285D02*
X105024380Y-141595714D01*
X105024380Y-141310000D02*
X104024380Y-141310000D01*
X104167238Y-141405238D01*
X104262476Y-141500476D01*
X104310095Y-141595714D01*
%TO.C,D40*%
X12192380Y-77414285D02*
X11192380Y-77414285D01*
X11192380Y-77176190D01*
X11240000Y-77033333D01*
X11335238Y-76938095D01*
X11430476Y-76890476D01*
X11620952Y-76842857D01*
X11763809Y-76842857D01*
X11954285Y-76890476D01*
X12049523Y-76938095D01*
X12144761Y-77033333D01*
X12192380Y-77176190D01*
X12192380Y-77414285D01*
X11525714Y-75985714D02*
X12192380Y-75985714D01*
X11144761Y-76223809D02*
X11859047Y-76461904D01*
X11859047Y-75842857D01*
X11192380Y-75271428D02*
X11192380Y-75176190D01*
X11240000Y-75080952D01*
X11287619Y-75033333D01*
X11382857Y-74985714D01*
X11573333Y-74938095D01*
X11811428Y-74938095D01*
X12001904Y-74985714D01*
X12097142Y-75033333D01*
X12144761Y-75080952D01*
X12192380Y-75176190D01*
X12192380Y-75271428D01*
X12144761Y-75366666D01*
X12097142Y-75414285D01*
X12001904Y-75461904D01*
X11811428Y-75509523D01*
X11573333Y-75509523D01*
X11382857Y-75461904D01*
X11287619Y-75414285D01*
X11240000Y-75366666D01*
X11192380Y-75271428D01*
X14092380Y-80064285D02*
X14092380Y-80635714D01*
X14092380Y-80350000D02*
X13092380Y-80350000D01*
X13235238Y-80445238D01*
X13330476Y-80540476D01*
X13378095Y-80635714D01*
%TO.C,D14*%
X73152380Y-199334285D02*
X72152380Y-199334285D01*
X72152380Y-199096190D01*
X72200000Y-198953333D01*
X72295238Y-198858095D01*
X72390476Y-198810476D01*
X72580952Y-198762857D01*
X72723809Y-198762857D01*
X72914285Y-198810476D01*
X73009523Y-198858095D01*
X73104761Y-198953333D01*
X73152380Y-199096190D01*
X73152380Y-199334285D01*
X73152380Y-197810476D02*
X73152380Y-198381904D01*
X73152380Y-198096190D02*
X72152380Y-198096190D01*
X72295238Y-198191428D01*
X72390476Y-198286666D01*
X72438095Y-198381904D01*
X72485714Y-196953333D02*
X73152380Y-196953333D01*
X72104761Y-197191428D02*
X72819047Y-197429523D01*
X72819047Y-196810476D01*
X75052380Y-201984285D02*
X75052380Y-202555714D01*
X75052380Y-202270000D02*
X74052380Y-202270000D01*
X74195238Y-202365238D01*
X74290476Y-202460476D01*
X74338095Y-202555714D01*
%TO.C,C10*%
X12367142Y-229242857D02*
X12414761Y-229290476D01*
X12462380Y-229433333D01*
X12462380Y-229528571D01*
X12414761Y-229671428D01*
X12319523Y-229766666D01*
X12224285Y-229814285D01*
X12033809Y-229861904D01*
X11890952Y-229861904D01*
X11700476Y-229814285D01*
X11605238Y-229766666D01*
X11510000Y-229671428D01*
X11462380Y-229528571D01*
X11462380Y-229433333D01*
X11510000Y-229290476D01*
X11557619Y-229242857D01*
X12462380Y-228290476D02*
X12462380Y-228861904D01*
X12462380Y-228576190D02*
X11462380Y-228576190D01*
X11605238Y-228671428D01*
X11700476Y-228766666D01*
X11748095Y-228861904D01*
X11462380Y-227671428D02*
X11462380Y-227576190D01*
X11510000Y-227480952D01*
X11557619Y-227433333D01*
X11652857Y-227385714D01*
X11843333Y-227338095D01*
X12081428Y-227338095D01*
X12271904Y-227385714D01*
X12367142Y-227433333D01*
X12414761Y-227480952D01*
X12462380Y-227576190D01*
X12462380Y-227671428D01*
X12414761Y-227766666D01*
X12367142Y-227814285D01*
X12271904Y-227861904D01*
X12081428Y-227909523D01*
X11843333Y-227909523D01*
X11652857Y-227861904D01*
X11557619Y-227814285D01*
X11510000Y-227766666D01*
X11462380Y-227671428D01*
%TO.C,D7*%
X103632380Y-259818095D02*
X102632380Y-259818095D01*
X102632380Y-259580000D01*
X102680000Y-259437142D01*
X102775238Y-259341904D01*
X102870476Y-259294285D01*
X103060952Y-259246666D01*
X103203809Y-259246666D01*
X103394285Y-259294285D01*
X103489523Y-259341904D01*
X103584761Y-259437142D01*
X103632380Y-259580000D01*
X103632380Y-259818095D01*
X102632380Y-258913333D02*
X102632380Y-258246666D01*
X103632380Y-258675238D01*
X105532380Y-262944285D02*
X105532380Y-263515714D01*
X105532380Y-263230000D02*
X104532380Y-263230000D01*
X104675238Y-263325238D01*
X104770476Y-263420476D01*
X104818095Y-263515714D01*
%TO.C,C29*%
X51339142Y-137802857D02*
X51386761Y-137850476D01*
X51434380Y-137993333D01*
X51434380Y-138088571D01*
X51386761Y-138231428D01*
X51291523Y-138326666D01*
X51196285Y-138374285D01*
X51005809Y-138421904D01*
X50862952Y-138421904D01*
X50672476Y-138374285D01*
X50577238Y-138326666D01*
X50482000Y-138231428D01*
X50434380Y-138088571D01*
X50434380Y-137993333D01*
X50482000Y-137850476D01*
X50529619Y-137802857D01*
X50529619Y-137421904D02*
X50482000Y-137374285D01*
X50434380Y-137279047D01*
X50434380Y-137040952D01*
X50482000Y-136945714D01*
X50529619Y-136898095D01*
X50624857Y-136850476D01*
X50720095Y-136850476D01*
X50862952Y-136898095D01*
X51434380Y-137469523D01*
X51434380Y-136850476D01*
X51434380Y-136374285D02*
X51434380Y-136183809D01*
X51386761Y-136088571D01*
X51339142Y-136040952D01*
X51196285Y-135945714D01*
X51005809Y-135898095D01*
X50624857Y-135898095D01*
X50529619Y-135945714D01*
X50482000Y-135993333D01*
X50434380Y-136088571D01*
X50434380Y-136279047D01*
X50482000Y-136374285D01*
X50529619Y-136421904D01*
X50624857Y-136469523D01*
X50862952Y-136469523D01*
X50958190Y-136421904D01*
X51005809Y-136374285D01*
X51053428Y-136279047D01*
X51053428Y-136088571D01*
X51005809Y-135993333D01*
X50958190Y-135945714D01*
X50862952Y-135898095D01*
%TO.C,D8*%
X49672380Y-229338095D02*
X48672380Y-229338095D01*
X48672380Y-229100000D01*
X48720000Y-228957142D01*
X48815238Y-228861904D01*
X48910476Y-228814285D01*
X49100952Y-228766666D01*
X49243809Y-228766666D01*
X49434285Y-228814285D01*
X49529523Y-228861904D01*
X49624761Y-228957142D01*
X49672380Y-229100000D01*
X49672380Y-229338095D01*
X49100952Y-228195238D02*
X49053333Y-228290476D01*
X49005714Y-228338095D01*
X48910476Y-228385714D01*
X48862857Y-228385714D01*
X48767619Y-228338095D01*
X48720000Y-228290476D01*
X48672380Y-228195238D01*
X48672380Y-228004761D01*
X48720000Y-227909523D01*
X48767619Y-227861904D01*
X48862857Y-227814285D01*
X48910476Y-227814285D01*
X49005714Y-227861904D01*
X49053333Y-227909523D01*
X49100952Y-228004761D01*
X49100952Y-228195238D01*
X49148571Y-228290476D01*
X49196190Y-228338095D01*
X49291428Y-228385714D01*
X49481904Y-228385714D01*
X49577142Y-228338095D01*
X49624761Y-228290476D01*
X49672380Y-228195238D01*
X49672380Y-228004761D01*
X49624761Y-227909523D01*
X49577142Y-227861904D01*
X49481904Y-227814285D01*
X49291428Y-227814285D01*
X49196190Y-227861904D01*
X49148571Y-227909523D01*
X49100952Y-228004761D01*
X47772380Y-224164285D02*
X47772380Y-224735714D01*
X47772380Y-224450000D02*
X46772380Y-224450000D01*
X46915238Y-224545238D01*
X47010476Y-224640476D01*
X47058095Y-224735714D01*
%TO.C,D1*%
X19192380Y-290298095D02*
X18192380Y-290298095D01*
X18192380Y-290060000D01*
X18240000Y-289917142D01*
X18335238Y-289821904D01*
X18430476Y-289774285D01*
X18620952Y-289726666D01*
X18763809Y-289726666D01*
X18954285Y-289774285D01*
X19049523Y-289821904D01*
X19144761Y-289917142D01*
X19192380Y-290060000D01*
X19192380Y-290298095D01*
X19192380Y-288774285D02*
X19192380Y-289345714D01*
X19192380Y-289060000D02*
X18192380Y-289060000D01*
X18335238Y-289155238D01*
X18430476Y-289250476D01*
X18478095Y-289345714D01*
X17292380Y-285124285D02*
X17292380Y-285695714D01*
X17292380Y-285410000D02*
X16292380Y-285410000D01*
X16435238Y-285505238D01*
X16530476Y-285600476D01*
X16578095Y-285695714D01*
%TO.C,C14*%
X142691239Y-199092384D02*
X142738858Y-199140003D01*
X142786477Y-199282860D01*
X142786477Y-199378098D01*
X142738858Y-199520955D01*
X142643620Y-199616193D01*
X142548382Y-199663812D01*
X142357906Y-199711431D01*
X142215049Y-199711431D01*
X142024573Y-199663812D01*
X141929335Y-199616193D01*
X141834097Y-199520955D01*
X141786477Y-199378098D01*
X141786477Y-199282860D01*
X141834097Y-199140003D01*
X141881716Y-199092384D01*
X142786477Y-198140003D02*
X142786477Y-198711431D01*
X142786477Y-198425717D02*
X141786477Y-198425717D01*
X141929335Y-198520955D01*
X142024573Y-198616193D01*
X142072192Y-198711431D01*
X142119811Y-197282860D02*
X142786477Y-197282860D01*
X141738858Y-197520955D02*
X142453144Y-197759050D01*
X142453144Y-197140003D01*
%TO.C,D42*%
X49672380Y-46934285D02*
X48672380Y-46934285D01*
X48672380Y-46696190D01*
X48720000Y-46553333D01*
X48815238Y-46458095D01*
X48910476Y-46410476D01*
X49100952Y-46362857D01*
X49243809Y-46362857D01*
X49434285Y-46410476D01*
X49529523Y-46458095D01*
X49624761Y-46553333D01*
X49672380Y-46696190D01*
X49672380Y-46934285D01*
X49005714Y-45505714D02*
X49672380Y-45505714D01*
X48624761Y-45743809D02*
X49339047Y-45981904D01*
X49339047Y-45362857D01*
X48767619Y-45029523D02*
X48720000Y-44981904D01*
X48672380Y-44886666D01*
X48672380Y-44648571D01*
X48720000Y-44553333D01*
X48767619Y-44505714D01*
X48862857Y-44458095D01*
X48958095Y-44458095D01*
X49100952Y-44505714D01*
X49672380Y-45077142D01*
X49672380Y-44458095D01*
X47772380Y-41284285D02*
X47772380Y-41855714D01*
X47772380Y-41570000D02*
X46772380Y-41570000D01*
X46915238Y-41665238D01*
X47010476Y-41760476D01*
X47058095Y-41855714D01*
%TO.C,C22*%
X101775142Y-168282857D02*
X101822761Y-168330476D01*
X101870380Y-168473333D01*
X101870380Y-168568571D01*
X101822761Y-168711428D01*
X101727523Y-168806666D01*
X101632285Y-168854285D01*
X101441809Y-168901904D01*
X101298952Y-168901904D01*
X101108476Y-168854285D01*
X101013238Y-168806666D01*
X100918000Y-168711428D01*
X100870380Y-168568571D01*
X100870380Y-168473333D01*
X100918000Y-168330476D01*
X100965619Y-168282857D01*
X100965619Y-167901904D02*
X100918000Y-167854285D01*
X100870380Y-167759047D01*
X100870380Y-167520952D01*
X100918000Y-167425714D01*
X100965619Y-167378095D01*
X101060857Y-167330476D01*
X101156095Y-167330476D01*
X101298952Y-167378095D01*
X101870380Y-167949523D01*
X101870380Y-167330476D01*
X100965619Y-166949523D02*
X100918000Y-166901904D01*
X100870380Y-166806666D01*
X100870380Y-166568571D01*
X100918000Y-166473333D01*
X100965619Y-166425714D01*
X101060857Y-166378095D01*
X101156095Y-166378095D01*
X101298952Y-166425714D01*
X101870380Y-166997142D01*
X101870380Y-166378095D01*
%TO.C,D5*%
X19192380Y-168378095D02*
X18192380Y-168378095D01*
X18192380Y-168140000D01*
X18240000Y-167997142D01*
X18335238Y-167901904D01*
X18430476Y-167854285D01*
X18620952Y-167806666D01*
X18763809Y-167806666D01*
X18954285Y-167854285D01*
X19049523Y-167901904D01*
X19144761Y-167997142D01*
X19192380Y-168140000D01*
X19192380Y-168378095D01*
X18192380Y-166901904D02*
X18192380Y-167378095D01*
X18668571Y-167425714D01*
X18620952Y-167378095D01*
X18573333Y-167282857D01*
X18573333Y-167044761D01*
X18620952Y-166949523D01*
X18668571Y-166901904D01*
X18763809Y-166854285D01*
X19001904Y-166854285D01*
X19097142Y-166901904D01*
X19144761Y-166949523D01*
X19192380Y-167044761D01*
X19192380Y-167282857D01*
X19144761Y-167378095D01*
X19097142Y-167425714D01*
X17292380Y-163204285D02*
X17292380Y-163775714D01*
X17292380Y-163490000D02*
X16292380Y-163490000D01*
X16435238Y-163585238D01*
X16530476Y-163680476D01*
X16578095Y-163775714D01*
%TO.C,D39*%
X42672380Y-77414285D02*
X41672380Y-77414285D01*
X41672380Y-77176190D01*
X41720000Y-77033333D01*
X41815238Y-76938095D01*
X41910476Y-76890476D01*
X42100952Y-76842857D01*
X42243809Y-76842857D01*
X42434285Y-76890476D01*
X42529523Y-76938095D01*
X42624761Y-77033333D01*
X42672380Y-77176190D01*
X42672380Y-77414285D01*
X41672380Y-76509523D02*
X41672380Y-75890476D01*
X42053333Y-76223809D01*
X42053333Y-76080952D01*
X42100952Y-75985714D01*
X42148571Y-75938095D01*
X42243809Y-75890476D01*
X42481904Y-75890476D01*
X42577142Y-75938095D01*
X42624761Y-75985714D01*
X42672380Y-76080952D01*
X42672380Y-76366666D01*
X42624761Y-76461904D01*
X42577142Y-76509523D01*
X42672380Y-75414285D02*
X42672380Y-75223809D01*
X42624761Y-75128571D01*
X42577142Y-75080952D01*
X42434285Y-74985714D01*
X42243809Y-74938095D01*
X41862857Y-74938095D01*
X41767619Y-74985714D01*
X41720000Y-75033333D01*
X41672380Y-75128571D01*
X41672380Y-75319047D01*
X41720000Y-75414285D01*
X41767619Y-75461904D01*
X41862857Y-75509523D01*
X42100952Y-75509523D01*
X42196190Y-75461904D01*
X42243809Y-75414285D01*
X42291428Y-75319047D01*
X42291428Y-75128571D01*
X42243809Y-75033333D01*
X42196190Y-74985714D01*
X42100952Y-74938095D01*
X44572380Y-80064285D02*
X44572380Y-80635714D01*
X44572380Y-80350000D02*
X43572380Y-80350000D01*
X43715238Y-80445238D01*
X43810476Y-80540476D01*
X43858095Y-80635714D01*
%TO.C,D18*%
X110632380Y-229814285D02*
X109632380Y-229814285D01*
X109632380Y-229576190D01*
X109680000Y-229433333D01*
X109775238Y-229338095D01*
X109870476Y-229290476D01*
X110060952Y-229242857D01*
X110203809Y-229242857D01*
X110394285Y-229290476D01*
X110489523Y-229338095D01*
X110584761Y-229433333D01*
X110632380Y-229576190D01*
X110632380Y-229814285D01*
X110632380Y-228290476D02*
X110632380Y-228861904D01*
X110632380Y-228576190D02*
X109632380Y-228576190D01*
X109775238Y-228671428D01*
X109870476Y-228766666D01*
X109918095Y-228861904D01*
X110060952Y-227719047D02*
X110013333Y-227814285D01*
X109965714Y-227861904D01*
X109870476Y-227909523D01*
X109822857Y-227909523D01*
X109727619Y-227861904D01*
X109680000Y-227814285D01*
X109632380Y-227719047D01*
X109632380Y-227528571D01*
X109680000Y-227433333D01*
X109727619Y-227385714D01*
X109822857Y-227338095D01*
X109870476Y-227338095D01*
X109965714Y-227385714D01*
X110013333Y-227433333D01*
X110060952Y-227528571D01*
X110060952Y-227719047D01*
X110108571Y-227814285D01*
X110156190Y-227861904D01*
X110251428Y-227909523D01*
X110441904Y-227909523D01*
X110537142Y-227861904D01*
X110584761Y-227814285D01*
X110632380Y-227719047D01*
X110632380Y-227528571D01*
X110584761Y-227433333D01*
X110537142Y-227385714D01*
X110441904Y-227338095D01*
X110251428Y-227338095D01*
X110156190Y-227385714D01*
X110108571Y-227433333D01*
X110060952Y-227528571D01*
X108732380Y-224164285D02*
X108732380Y-224735714D01*
X108732380Y-224450000D02*
X107732380Y-224450000D01*
X107875238Y-224545238D01*
X107970476Y-224640476D01*
X108018095Y-224735714D01*
%TO.C,C47*%
X112299142Y-16390857D02*
X112346761Y-16438476D01*
X112394380Y-16581333D01*
X112394380Y-16676571D01*
X112346761Y-16819428D01*
X112251523Y-16914666D01*
X112156285Y-16962285D01*
X111965809Y-17009904D01*
X111822952Y-17009904D01*
X111632476Y-16962285D01*
X111537238Y-16914666D01*
X111442000Y-16819428D01*
X111394380Y-16676571D01*
X111394380Y-16581333D01*
X111442000Y-16438476D01*
X111489619Y-16390857D01*
X111727714Y-15533714D02*
X112394380Y-15533714D01*
X111346761Y-15771809D02*
X112061047Y-16009904D01*
X112061047Y-15390857D01*
X111394380Y-15105142D02*
X111394380Y-14438476D01*
X112394380Y-14867047D01*
%TO.C,C44*%
X101267142Y-46362857D02*
X101314761Y-46410476D01*
X101362380Y-46553333D01*
X101362380Y-46648571D01*
X101314761Y-46791428D01*
X101219523Y-46886666D01*
X101124285Y-46934285D01*
X100933809Y-46981904D01*
X100790952Y-46981904D01*
X100600476Y-46934285D01*
X100505238Y-46886666D01*
X100410000Y-46791428D01*
X100362380Y-46648571D01*
X100362380Y-46553333D01*
X100410000Y-46410476D01*
X100457619Y-46362857D01*
X100695714Y-45505714D02*
X101362380Y-45505714D01*
X100314761Y-45743809D02*
X101029047Y-45981904D01*
X101029047Y-45362857D01*
X100695714Y-44553333D02*
X101362380Y-44553333D01*
X100314761Y-44791428D02*
X101029047Y-45029523D01*
X101029047Y-44410476D01*
%TO.C,D13*%
X80152380Y-229814285D02*
X79152380Y-229814285D01*
X79152380Y-229576190D01*
X79200000Y-229433333D01*
X79295238Y-229338095D01*
X79390476Y-229290476D01*
X79580952Y-229242857D01*
X79723809Y-229242857D01*
X79914285Y-229290476D01*
X80009523Y-229338095D01*
X80104761Y-229433333D01*
X80152380Y-229576190D01*
X80152380Y-229814285D01*
X80152380Y-228290476D02*
X80152380Y-228861904D01*
X80152380Y-228576190D02*
X79152380Y-228576190D01*
X79295238Y-228671428D01*
X79390476Y-228766666D01*
X79438095Y-228861904D01*
X79152380Y-227957142D02*
X79152380Y-227338095D01*
X79533333Y-227671428D01*
X79533333Y-227528571D01*
X79580952Y-227433333D01*
X79628571Y-227385714D01*
X79723809Y-227338095D01*
X79961904Y-227338095D01*
X80057142Y-227385714D01*
X80104761Y-227433333D01*
X80152380Y-227528571D01*
X80152380Y-227814285D01*
X80104761Y-227909523D01*
X80057142Y-227957142D01*
X78252380Y-224164285D02*
X78252380Y-224735714D01*
X78252380Y-224450000D02*
X77252380Y-224450000D01*
X77395238Y-224545238D01*
X77490476Y-224640476D01*
X77538095Y-224735714D01*
%TO.C,D36*%
X134112380Y-77414285D02*
X133112380Y-77414285D01*
X133112380Y-77176190D01*
X133160000Y-77033333D01*
X133255238Y-76938095D01*
X133350476Y-76890476D01*
X133540952Y-76842857D01*
X133683809Y-76842857D01*
X133874285Y-76890476D01*
X133969523Y-76938095D01*
X134064761Y-77033333D01*
X134112380Y-77176190D01*
X134112380Y-77414285D01*
X133112380Y-76509523D02*
X133112380Y-75890476D01*
X133493333Y-76223809D01*
X133493333Y-76080952D01*
X133540952Y-75985714D01*
X133588571Y-75938095D01*
X133683809Y-75890476D01*
X133921904Y-75890476D01*
X134017142Y-75938095D01*
X134064761Y-75985714D01*
X134112380Y-76080952D01*
X134112380Y-76366666D01*
X134064761Y-76461904D01*
X134017142Y-76509523D01*
X133112380Y-75033333D02*
X133112380Y-75223809D01*
X133160000Y-75319047D01*
X133207619Y-75366666D01*
X133350476Y-75461904D01*
X133540952Y-75509523D01*
X133921904Y-75509523D01*
X134017142Y-75461904D01*
X134064761Y-75414285D01*
X134112380Y-75319047D01*
X134112380Y-75128571D01*
X134064761Y-75033333D01*
X134017142Y-74985714D01*
X133921904Y-74938095D01*
X133683809Y-74938095D01*
X133588571Y-74985714D01*
X133540952Y-75033333D01*
X133493333Y-75128571D01*
X133493333Y-75319047D01*
X133540952Y-75414285D01*
X133588571Y-75461904D01*
X133683809Y-75509523D01*
X136012380Y-80064285D02*
X136012380Y-80635714D01*
X136012380Y-80350000D02*
X135012380Y-80350000D01*
X135155238Y-80445238D01*
X135250476Y-80540476D01*
X135298095Y-80635714D01*
%TO.C,D10*%
X49672380Y-168854285D02*
X48672380Y-168854285D01*
X48672380Y-168616190D01*
X48720000Y-168473333D01*
X48815238Y-168378095D01*
X48910476Y-168330476D01*
X49100952Y-168282857D01*
X49243809Y-168282857D01*
X49434285Y-168330476D01*
X49529523Y-168378095D01*
X49624761Y-168473333D01*
X49672380Y-168616190D01*
X49672380Y-168854285D01*
X49672380Y-167330476D02*
X49672380Y-167901904D01*
X49672380Y-167616190D02*
X48672380Y-167616190D01*
X48815238Y-167711428D01*
X48910476Y-167806666D01*
X48958095Y-167901904D01*
X48672380Y-166711428D02*
X48672380Y-166616190D01*
X48720000Y-166520952D01*
X48767619Y-166473333D01*
X48862857Y-166425714D01*
X49053333Y-166378095D01*
X49291428Y-166378095D01*
X49481904Y-166425714D01*
X49577142Y-166473333D01*
X49624761Y-166520952D01*
X49672380Y-166616190D01*
X49672380Y-166711428D01*
X49624761Y-166806666D01*
X49577142Y-166854285D01*
X49481904Y-166901904D01*
X49291428Y-166949523D01*
X49053333Y-166949523D01*
X48862857Y-166901904D01*
X48767619Y-166854285D01*
X48720000Y-166806666D01*
X48672380Y-166711428D01*
X47772380Y-163204285D02*
X47772380Y-163775714D01*
X47772380Y-163490000D02*
X46772380Y-163490000D01*
X46915238Y-163585238D01*
X47010476Y-163680476D01*
X47058095Y-163775714D01*
%TO.C,D26*%
X131482380Y-138298285D02*
X130482380Y-138298285D01*
X130482380Y-138060190D01*
X130530000Y-137917333D01*
X130625238Y-137822095D01*
X130720476Y-137774476D01*
X130910952Y-137726857D01*
X131053809Y-137726857D01*
X131244285Y-137774476D01*
X131339523Y-137822095D01*
X131434761Y-137917333D01*
X131482380Y-138060190D01*
X131482380Y-138298285D01*
X130577619Y-137345904D02*
X130530000Y-137298285D01*
X130482380Y-137203047D01*
X130482380Y-136964952D01*
X130530000Y-136869714D01*
X130577619Y-136822095D01*
X130672857Y-136774476D01*
X130768095Y-136774476D01*
X130910952Y-136822095D01*
X131482380Y-137393523D01*
X131482380Y-136774476D01*
X130482380Y-135917333D02*
X130482380Y-136107809D01*
X130530000Y-136203047D01*
X130577619Y-136250666D01*
X130720476Y-136345904D01*
X130910952Y-136393523D01*
X131291904Y-136393523D01*
X131387142Y-136345904D01*
X131434761Y-136298285D01*
X131482380Y-136203047D01*
X131482380Y-136012571D01*
X131434761Y-135917333D01*
X131387142Y-135869714D01*
X131291904Y-135822095D01*
X131053809Y-135822095D01*
X130958571Y-135869714D01*
X130910952Y-135917333D01*
X130863333Y-136012571D01*
X130863333Y-136203047D01*
X130910952Y-136298285D01*
X130958571Y-136345904D01*
X131053809Y-136393523D01*
X133382380Y-140948285D02*
X133382380Y-141519714D01*
X133382380Y-141234000D02*
X132382380Y-141234000D01*
X132525238Y-141329238D01*
X132620476Y-141424476D01*
X132668095Y-141519714D01*
%TO.C,C40*%
X20859142Y-76842857D02*
X20906761Y-76890476D01*
X20954380Y-77033333D01*
X20954380Y-77128571D01*
X20906761Y-77271428D01*
X20811523Y-77366666D01*
X20716285Y-77414285D01*
X20525809Y-77461904D01*
X20382952Y-77461904D01*
X20192476Y-77414285D01*
X20097238Y-77366666D01*
X20002000Y-77271428D01*
X19954380Y-77128571D01*
X19954380Y-77033333D01*
X20002000Y-76890476D01*
X20049619Y-76842857D01*
X20287714Y-75985714D02*
X20954380Y-75985714D01*
X19906761Y-76223809D02*
X20621047Y-76461904D01*
X20621047Y-75842857D01*
X19954380Y-75271428D02*
X19954380Y-75176190D01*
X20002000Y-75080952D01*
X20049619Y-75033333D01*
X20144857Y-74985714D01*
X20335333Y-74938095D01*
X20573428Y-74938095D01*
X20763904Y-74985714D01*
X20859142Y-75033333D01*
X20906761Y-75080952D01*
X20954380Y-75176190D01*
X20954380Y-75271428D01*
X20906761Y-75366666D01*
X20859142Y-75414285D01*
X20763904Y-75461904D01*
X20573428Y-75509523D01*
X20335333Y-75509523D01*
X20144857Y-75461904D01*
X20049619Y-75414285D01*
X20002000Y-75366666D01*
X19954380Y-75271428D01*
%TO.C,D47*%
X103632380Y-16454285D02*
X102632380Y-16454285D01*
X102632380Y-16216190D01*
X102680000Y-16073333D01*
X102775238Y-15978095D01*
X102870476Y-15930476D01*
X103060952Y-15882857D01*
X103203809Y-15882857D01*
X103394285Y-15930476D01*
X103489523Y-15978095D01*
X103584761Y-16073333D01*
X103632380Y-16216190D01*
X103632380Y-16454285D01*
X102965714Y-15025714D02*
X103632380Y-15025714D01*
X102584761Y-15263809D02*
X103299047Y-15501904D01*
X103299047Y-14882857D01*
X102632380Y-14597142D02*
X102632380Y-13930476D01*
X103632380Y-14359047D01*
X105532380Y-19104285D02*
X105532380Y-19675714D01*
X105532380Y-19390000D02*
X104532380Y-19390000D01*
X104675238Y-19485238D01*
X104770476Y-19580476D01*
X104818095Y-19675714D01*
%TO.C,D21*%
X141112380Y-290774285D02*
X140112380Y-290774285D01*
X140112380Y-290536190D01*
X140160000Y-290393333D01*
X140255238Y-290298095D01*
X140350476Y-290250476D01*
X140540952Y-290202857D01*
X140683809Y-290202857D01*
X140874285Y-290250476D01*
X140969523Y-290298095D01*
X141064761Y-290393333D01*
X141112380Y-290536190D01*
X141112380Y-290774285D01*
X140207619Y-289821904D02*
X140160000Y-289774285D01*
X140112380Y-289679047D01*
X140112380Y-289440952D01*
X140160000Y-289345714D01*
X140207619Y-289298095D01*
X140302857Y-289250476D01*
X140398095Y-289250476D01*
X140540952Y-289298095D01*
X141112380Y-289869523D01*
X141112380Y-289250476D01*
X141112380Y-288298095D02*
X141112380Y-288869523D01*
X141112380Y-288583809D02*
X140112380Y-288583809D01*
X140255238Y-288679047D01*
X140350476Y-288774285D01*
X140398095Y-288869523D01*
X139212380Y-285124285D02*
X139212380Y-285695714D01*
X139212380Y-285410000D02*
X138212380Y-285410000D01*
X138355238Y-285505238D01*
X138450476Y-285600476D01*
X138498095Y-285695714D01*
%TO.C,D23*%
X141112380Y-229814285D02*
X140112380Y-229814285D01*
X140112380Y-229576190D01*
X140160000Y-229433333D01*
X140255238Y-229338095D01*
X140350476Y-229290476D01*
X140540952Y-229242857D01*
X140683809Y-229242857D01*
X140874285Y-229290476D01*
X140969523Y-229338095D01*
X141064761Y-229433333D01*
X141112380Y-229576190D01*
X141112380Y-229814285D01*
X140207619Y-228861904D02*
X140160000Y-228814285D01*
X140112380Y-228719047D01*
X140112380Y-228480952D01*
X140160000Y-228385714D01*
X140207619Y-228338095D01*
X140302857Y-228290476D01*
X140398095Y-228290476D01*
X140540952Y-228338095D01*
X141112380Y-228909523D01*
X141112380Y-228290476D01*
X140112380Y-227957142D02*
X140112380Y-227338095D01*
X140493333Y-227671428D01*
X140493333Y-227528571D01*
X140540952Y-227433333D01*
X140588571Y-227385714D01*
X140683809Y-227338095D01*
X140921904Y-227338095D01*
X141017142Y-227385714D01*
X141064761Y-227433333D01*
X141112380Y-227528571D01*
X141112380Y-227814285D01*
X141064761Y-227909523D01*
X141017142Y-227957142D01*
X139212380Y-224164285D02*
X139212380Y-224735714D01*
X139212380Y-224450000D02*
X138212380Y-224450000D01*
X138355238Y-224545238D01*
X138450476Y-224640476D01*
X138498095Y-224735714D01*
%TO.C,C2*%
X40942142Y-289726666D02*
X40989761Y-289774285D01*
X41037380Y-289917142D01*
X41037380Y-290012380D01*
X40989761Y-290155238D01*
X40894523Y-290250476D01*
X40799285Y-290298095D01*
X40608809Y-290345714D01*
X40465952Y-290345714D01*
X40275476Y-290298095D01*
X40180238Y-290250476D01*
X40085000Y-290155238D01*
X40037380Y-290012380D01*
X40037380Y-289917142D01*
X40085000Y-289774285D01*
X40132619Y-289726666D01*
X40132619Y-289345714D02*
X40085000Y-289298095D01*
X40037380Y-289202857D01*
X40037380Y-288964761D01*
X40085000Y-288869523D01*
X40132619Y-288821904D01*
X40227857Y-288774285D01*
X40323095Y-288774285D01*
X40465952Y-288821904D01*
X41037380Y-289393333D01*
X41037380Y-288774285D01*
%TO.C,C43*%
X71261448Y-46314082D02*
X71309067Y-46361701D01*
X71356686Y-46504558D01*
X71356686Y-46599796D01*
X71309067Y-46742653D01*
X71213829Y-46837891D01*
X71118591Y-46885510D01*
X70928115Y-46933129D01*
X70785258Y-46933129D01*
X70594782Y-46885510D01*
X70499544Y-46837891D01*
X70404306Y-46742653D01*
X70356686Y-46599796D01*
X70356686Y-46504558D01*
X70404306Y-46361701D01*
X70451925Y-46314082D01*
X70690020Y-45456939D02*
X71356686Y-45456939D01*
X70309067Y-45695034D02*
X71023353Y-45933129D01*
X71023353Y-45314082D01*
X70356686Y-45028367D02*
X70356686Y-44409320D01*
X70737639Y-44742653D01*
X70737639Y-44599796D01*
X70785258Y-44504558D01*
X70832877Y-44456939D01*
X70928115Y-44409320D01*
X71166210Y-44409320D01*
X71261448Y-44456939D01*
X71309067Y-44504558D01*
X71356686Y-44599796D01*
X71356686Y-44885510D01*
X71309067Y-44980748D01*
X71261448Y-45028367D01*
%TO.C,D12*%
X73152380Y-260294285D02*
X72152380Y-260294285D01*
X72152380Y-260056190D01*
X72200000Y-259913333D01*
X72295238Y-259818095D01*
X72390476Y-259770476D01*
X72580952Y-259722857D01*
X72723809Y-259722857D01*
X72914285Y-259770476D01*
X73009523Y-259818095D01*
X73104761Y-259913333D01*
X73152380Y-260056190D01*
X73152380Y-260294285D01*
X73152380Y-258770476D02*
X73152380Y-259341904D01*
X73152380Y-259056190D02*
X72152380Y-259056190D01*
X72295238Y-259151428D01*
X72390476Y-259246666D01*
X72438095Y-259341904D01*
X72247619Y-258389523D02*
X72200000Y-258341904D01*
X72152380Y-258246666D01*
X72152380Y-258008571D01*
X72200000Y-257913333D01*
X72247619Y-257865714D01*
X72342857Y-257818095D01*
X72438095Y-257818095D01*
X72580952Y-257865714D01*
X73152380Y-258437142D01*
X73152380Y-257818095D01*
X75052380Y-262944285D02*
X75052380Y-263515714D01*
X75052380Y-263230000D02*
X74052380Y-263230000D01*
X74195238Y-263325238D01*
X74290476Y-263420476D01*
X74338095Y-263515714D01*
%TO.C,C8*%
X50323142Y-259246666D02*
X50370761Y-259294285D01*
X50418380Y-259437142D01*
X50418380Y-259532380D01*
X50370761Y-259675238D01*
X50275523Y-259770476D01*
X50180285Y-259818095D01*
X49989809Y-259865714D01*
X49846952Y-259865714D01*
X49656476Y-259818095D01*
X49561238Y-259770476D01*
X49466000Y-259675238D01*
X49418380Y-259532380D01*
X49418380Y-259437142D01*
X49466000Y-259294285D01*
X49513619Y-259246666D01*
X49846952Y-258675238D02*
X49799333Y-258770476D01*
X49751714Y-258818095D01*
X49656476Y-258865714D01*
X49608857Y-258865714D01*
X49513619Y-258818095D01*
X49466000Y-258770476D01*
X49418380Y-258675238D01*
X49418380Y-258484761D01*
X49466000Y-258389523D01*
X49513619Y-258341904D01*
X49608857Y-258294285D01*
X49656476Y-258294285D01*
X49751714Y-258341904D01*
X49799333Y-258389523D01*
X49846952Y-258484761D01*
X49846952Y-258675238D01*
X49894571Y-258770476D01*
X49942190Y-258818095D01*
X50037428Y-258865714D01*
X50227904Y-258865714D01*
X50323142Y-258818095D01*
X50370761Y-258770476D01*
X50418380Y-258675238D01*
X50418380Y-258484761D01*
X50370761Y-258389523D01*
X50323142Y-258341904D01*
X50227904Y-258294285D01*
X50037428Y-258294285D01*
X49942190Y-258341904D01*
X49894571Y-258389523D01*
X49846952Y-258484761D01*
%TO.C,C34*%
X102283142Y-107322857D02*
X102330761Y-107370476D01*
X102378380Y-107513333D01*
X102378380Y-107608571D01*
X102330761Y-107751428D01*
X102235523Y-107846666D01*
X102140285Y-107894285D01*
X101949809Y-107941904D01*
X101806952Y-107941904D01*
X101616476Y-107894285D01*
X101521238Y-107846666D01*
X101426000Y-107751428D01*
X101378380Y-107608571D01*
X101378380Y-107513333D01*
X101426000Y-107370476D01*
X101473619Y-107322857D01*
X101378380Y-106989523D02*
X101378380Y-106370476D01*
X101759333Y-106703809D01*
X101759333Y-106560952D01*
X101806952Y-106465714D01*
X101854571Y-106418095D01*
X101949809Y-106370476D01*
X102187904Y-106370476D01*
X102283142Y-106418095D01*
X102330761Y-106465714D01*
X102378380Y-106560952D01*
X102378380Y-106846666D01*
X102330761Y-106941904D01*
X102283142Y-106989523D01*
X101711714Y-105513333D02*
X102378380Y-105513333D01*
X101330761Y-105751428D02*
X102045047Y-105989523D01*
X102045047Y-105370476D01*
%TO.C,D31*%
X19192380Y-107894285D02*
X18192380Y-107894285D01*
X18192380Y-107656190D01*
X18240000Y-107513333D01*
X18335238Y-107418095D01*
X18430476Y-107370476D01*
X18620952Y-107322857D01*
X18763809Y-107322857D01*
X18954285Y-107370476D01*
X19049523Y-107418095D01*
X19144761Y-107513333D01*
X19192380Y-107656190D01*
X19192380Y-107894285D01*
X18192380Y-106989523D02*
X18192380Y-106370476D01*
X18573333Y-106703809D01*
X18573333Y-106560952D01*
X18620952Y-106465714D01*
X18668571Y-106418095D01*
X18763809Y-106370476D01*
X19001904Y-106370476D01*
X19097142Y-106418095D01*
X19144761Y-106465714D01*
X19192380Y-106560952D01*
X19192380Y-106846666D01*
X19144761Y-106941904D01*
X19097142Y-106989523D01*
X19192380Y-105418095D02*
X19192380Y-105989523D01*
X19192380Y-105703809D02*
X18192380Y-105703809D01*
X18335238Y-105799047D01*
X18430476Y-105894285D01*
X18478095Y-105989523D01*
X17292380Y-102244285D02*
X17292380Y-102815714D01*
X17292380Y-102530000D02*
X16292380Y-102530000D01*
X16435238Y-102625238D01*
X16530476Y-102720476D01*
X16578095Y-102815714D01*
%TO.C,D30*%
X12192380Y-138374285D02*
X11192380Y-138374285D01*
X11192380Y-138136190D01*
X11240000Y-137993333D01*
X11335238Y-137898095D01*
X11430476Y-137850476D01*
X11620952Y-137802857D01*
X11763809Y-137802857D01*
X11954285Y-137850476D01*
X12049523Y-137898095D01*
X12144761Y-137993333D01*
X12192380Y-138136190D01*
X12192380Y-138374285D01*
X11192380Y-137469523D02*
X11192380Y-136850476D01*
X11573333Y-137183809D01*
X11573333Y-137040952D01*
X11620952Y-136945714D01*
X11668571Y-136898095D01*
X11763809Y-136850476D01*
X12001904Y-136850476D01*
X12097142Y-136898095D01*
X12144761Y-136945714D01*
X12192380Y-137040952D01*
X12192380Y-137326666D01*
X12144761Y-137421904D01*
X12097142Y-137469523D01*
X11192380Y-136231428D02*
X11192380Y-136136190D01*
X11240000Y-136040952D01*
X11287619Y-135993333D01*
X11382857Y-135945714D01*
X11573333Y-135898095D01*
X11811428Y-135898095D01*
X12001904Y-135945714D01*
X12097142Y-135993333D01*
X12144761Y-136040952D01*
X12192380Y-136136190D01*
X12192380Y-136231428D01*
X12144761Y-136326666D01*
X12097142Y-136374285D01*
X12001904Y-136421904D01*
X11811428Y-136469523D01*
X11573333Y-136469523D01*
X11382857Y-136421904D01*
X11287619Y-136374285D01*
X11240000Y-136326666D01*
X11192380Y-136231428D01*
X14092380Y-141024285D02*
X14092380Y-141595714D01*
X14092380Y-141310000D02*
X13092380Y-141310000D01*
X13235238Y-141405238D01*
X13330476Y-141500476D01*
X13378095Y-141595714D01*
%TO.C,C37*%
X112807142Y-76842857D02*
X112854761Y-76890476D01*
X112902380Y-77033333D01*
X112902380Y-77128571D01*
X112854761Y-77271428D01*
X112759523Y-77366666D01*
X112664285Y-77414285D01*
X112473809Y-77461904D01*
X112330952Y-77461904D01*
X112140476Y-77414285D01*
X112045238Y-77366666D01*
X111950000Y-77271428D01*
X111902380Y-77128571D01*
X111902380Y-77033333D01*
X111950000Y-76890476D01*
X111997619Y-76842857D01*
X111902380Y-76509523D02*
X111902380Y-75890476D01*
X112283333Y-76223809D01*
X112283333Y-76080952D01*
X112330952Y-75985714D01*
X112378571Y-75938095D01*
X112473809Y-75890476D01*
X112711904Y-75890476D01*
X112807142Y-75938095D01*
X112854761Y-75985714D01*
X112902380Y-76080952D01*
X112902380Y-76366666D01*
X112854761Y-76461904D01*
X112807142Y-76509523D01*
X111902380Y-75557142D02*
X111902380Y-74890476D01*
X112902380Y-75319047D01*
%TO.C,C41*%
X10335142Y-46362857D02*
X10382761Y-46410476D01*
X10430380Y-46553333D01*
X10430380Y-46648571D01*
X10382761Y-46791428D01*
X10287523Y-46886666D01*
X10192285Y-46934285D01*
X10001809Y-46981904D01*
X9858952Y-46981904D01*
X9668476Y-46934285D01*
X9573238Y-46886666D01*
X9478000Y-46791428D01*
X9430380Y-46648571D01*
X9430380Y-46553333D01*
X9478000Y-46410476D01*
X9525619Y-46362857D01*
X9763714Y-45505714D02*
X10430380Y-45505714D01*
X9382761Y-45743809D02*
X10097047Y-45981904D01*
X10097047Y-45362857D01*
X10430380Y-44458095D02*
X10430380Y-45029523D01*
X10430380Y-44743809D02*
X9430380Y-44743809D01*
X9573238Y-44839047D01*
X9668476Y-44934285D01*
X9716095Y-45029523D01*
%TO.C,D19*%
X42672380Y-199334285D02*
X41672380Y-199334285D01*
X41672380Y-199096190D01*
X41720000Y-198953333D01*
X41815238Y-198858095D01*
X41910476Y-198810476D01*
X42100952Y-198762857D01*
X42243809Y-198762857D01*
X42434285Y-198810476D01*
X42529523Y-198858095D01*
X42624761Y-198953333D01*
X42672380Y-199096190D01*
X42672380Y-199334285D01*
X42672380Y-197810476D02*
X42672380Y-198381904D01*
X42672380Y-198096190D02*
X41672380Y-198096190D01*
X41815238Y-198191428D01*
X41910476Y-198286666D01*
X41958095Y-198381904D01*
X42672380Y-197334285D02*
X42672380Y-197143809D01*
X42624761Y-197048571D01*
X42577142Y-197000952D01*
X42434285Y-196905714D01*
X42243809Y-196858095D01*
X41862857Y-196858095D01*
X41767619Y-196905714D01*
X41720000Y-196953333D01*
X41672380Y-197048571D01*
X41672380Y-197239047D01*
X41720000Y-197334285D01*
X41767619Y-197381904D01*
X41862857Y-197429523D01*
X42100952Y-197429523D01*
X42196190Y-197381904D01*
X42243809Y-197334285D01*
X42291428Y-197239047D01*
X42291428Y-197048571D01*
X42243809Y-196953333D01*
X42196190Y-196905714D01*
X42100952Y-196858095D01*
X44572380Y-201984285D02*
X44572380Y-202555714D01*
X44572380Y-202270000D02*
X43572380Y-202270000D01*
X43715238Y-202365238D01*
X43810476Y-202460476D01*
X43858095Y-202555714D01*
%TO.C,C1*%
X11097142Y-289726666D02*
X11144761Y-289774285D01*
X11192380Y-289917142D01*
X11192380Y-290012380D01*
X11144761Y-290155238D01*
X11049523Y-290250476D01*
X10954285Y-290298095D01*
X10763809Y-290345714D01*
X10620952Y-290345714D01*
X10430476Y-290298095D01*
X10335238Y-290250476D01*
X10240000Y-290155238D01*
X10192380Y-290012380D01*
X10192380Y-289917142D01*
X10240000Y-289774285D01*
X10287619Y-289726666D01*
X11192380Y-288774285D02*
X11192380Y-289345714D01*
X11192380Y-289060000D02*
X10192380Y-289060000D01*
X10335238Y-289155238D01*
X10430476Y-289250476D01*
X10478095Y-289345714D01*
%TO.C,D29*%
X42672380Y-138374285D02*
X41672380Y-138374285D01*
X41672380Y-138136190D01*
X41720000Y-137993333D01*
X41815238Y-137898095D01*
X41910476Y-137850476D01*
X42100952Y-137802857D01*
X42243809Y-137802857D01*
X42434285Y-137850476D01*
X42529523Y-137898095D01*
X42624761Y-137993333D01*
X42672380Y-138136190D01*
X42672380Y-138374285D01*
X41767619Y-137421904D02*
X41720000Y-137374285D01*
X41672380Y-137279047D01*
X41672380Y-137040952D01*
X41720000Y-136945714D01*
X41767619Y-136898095D01*
X41862857Y-136850476D01*
X41958095Y-136850476D01*
X42100952Y-136898095D01*
X42672380Y-137469523D01*
X42672380Y-136850476D01*
X42672380Y-136374285D02*
X42672380Y-136183809D01*
X42624761Y-136088571D01*
X42577142Y-136040952D01*
X42434285Y-135945714D01*
X42243809Y-135898095D01*
X41862857Y-135898095D01*
X41767619Y-135945714D01*
X41720000Y-135993333D01*
X41672380Y-136088571D01*
X41672380Y-136279047D01*
X41720000Y-136374285D01*
X41767619Y-136421904D01*
X41862857Y-136469523D01*
X42100952Y-136469523D01*
X42196190Y-136421904D01*
X42243809Y-136374285D01*
X42291428Y-136279047D01*
X42291428Y-136088571D01*
X42243809Y-135993333D01*
X42196190Y-135945714D01*
X42100952Y-135898095D01*
X44572380Y-141024285D02*
X44572380Y-141595714D01*
X44572380Y-141310000D02*
X43572380Y-141310000D01*
X43715238Y-141405238D01*
X43810476Y-141500476D01*
X43858095Y-141595714D01*
%TO.C,C38*%
X81819142Y-76842857D02*
X81866761Y-76890476D01*
X81914380Y-77033333D01*
X81914380Y-77128571D01*
X81866761Y-77271428D01*
X81771523Y-77366666D01*
X81676285Y-77414285D01*
X81485809Y-77461904D01*
X81342952Y-77461904D01*
X81152476Y-77414285D01*
X81057238Y-77366666D01*
X80962000Y-77271428D01*
X80914380Y-77128571D01*
X80914380Y-77033333D01*
X80962000Y-76890476D01*
X81009619Y-76842857D01*
X80914380Y-76509523D02*
X80914380Y-75890476D01*
X81295333Y-76223809D01*
X81295333Y-76080952D01*
X81342952Y-75985714D01*
X81390571Y-75938095D01*
X81485809Y-75890476D01*
X81723904Y-75890476D01*
X81819142Y-75938095D01*
X81866761Y-75985714D01*
X81914380Y-76080952D01*
X81914380Y-76366666D01*
X81866761Y-76461904D01*
X81819142Y-76509523D01*
X81342952Y-75319047D02*
X81295333Y-75414285D01*
X81247714Y-75461904D01*
X81152476Y-75509523D01*
X81104857Y-75509523D01*
X81009619Y-75461904D01*
X80962000Y-75414285D01*
X80914380Y-75319047D01*
X80914380Y-75128571D01*
X80962000Y-75033333D01*
X81009619Y-74985714D01*
X81104857Y-74938095D01*
X81152476Y-74938095D01*
X81247714Y-74985714D01*
X81295333Y-75033333D01*
X81342952Y-75128571D01*
X81342952Y-75319047D01*
X81390571Y-75414285D01*
X81438190Y-75461904D01*
X81533428Y-75509523D01*
X81723904Y-75509523D01*
X81819142Y-75461904D01*
X81866761Y-75414285D01*
X81914380Y-75319047D01*
X81914380Y-75128571D01*
X81866761Y-75033333D01*
X81819142Y-74985714D01*
X81723904Y-74938095D01*
X81533428Y-74938095D01*
X81438190Y-74985714D01*
X81390571Y-75033333D01*
X81342952Y-75128571D01*
%TO.C,C49*%
X51847142Y-15882857D02*
X51894761Y-15930476D01*
X51942380Y-16073333D01*
X51942380Y-16168571D01*
X51894761Y-16311428D01*
X51799523Y-16406666D01*
X51704285Y-16454285D01*
X51513809Y-16501904D01*
X51370952Y-16501904D01*
X51180476Y-16454285D01*
X51085238Y-16406666D01*
X50990000Y-16311428D01*
X50942380Y-16168571D01*
X50942380Y-16073333D01*
X50990000Y-15930476D01*
X51037619Y-15882857D01*
X51275714Y-15025714D02*
X51942380Y-15025714D01*
X50894761Y-15263809D02*
X51609047Y-15501904D01*
X51609047Y-14882857D01*
X51942380Y-14454285D02*
X51942380Y-14263809D01*
X51894761Y-14168571D01*
X51847142Y-14120952D01*
X51704285Y-14025714D01*
X51513809Y-13978095D01*
X51132857Y-13978095D01*
X51037619Y-14025714D01*
X50990000Y-14073333D01*
X50942380Y-14168571D01*
X50942380Y-14359047D01*
X50990000Y-14454285D01*
X51037619Y-14501904D01*
X51132857Y-14549523D01*
X51370952Y-14549523D01*
X51466190Y-14501904D01*
X51513809Y-14454285D01*
X51561428Y-14359047D01*
X51561428Y-14168571D01*
X51513809Y-14073333D01*
X51466190Y-14025714D01*
X51370952Y-13978095D01*
%TO.C,C4*%
X133017142Y-289726666D02*
X133064761Y-289774285D01*
X133112380Y-289917142D01*
X133112380Y-290012380D01*
X133064761Y-290155238D01*
X132969523Y-290250476D01*
X132874285Y-290298095D01*
X132683809Y-290345714D01*
X132540952Y-290345714D01*
X132350476Y-290298095D01*
X132255238Y-290250476D01*
X132160000Y-290155238D01*
X132112380Y-290012380D01*
X132112380Y-289917142D01*
X132160000Y-289774285D01*
X132207619Y-289726666D01*
X132445714Y-288869523D02*
X133112380Y-288869523D01*
X132064761Y-289107619D02*
X132779047Y-289345714D01*
X132779047Y-288726666D01*
%TO.C,C5*%
X142017142Y-259246666D02*
X142064761Y-259294285D01*
X142112380Y-259437142D01*
X142112380Y-259532380D01*
X142064761Y-259675238D01*
X141969523Y-259770476D01*
X141874285Y-259818095D01*
X141683809Y-259865714D01*
X141540952Y-259865714D01*
X141350476Y-259818095D01*
X141255238Y-259770476D01*
X141160000Y-259675238D01*
X141112380Y-259532380D01*
X141112380Y-259437142D01*
X141160000Y-259294285D01*
X141207619Y-259246666D01*
X141112380Y-258341904D02*
X141112380Y-258818095D01*
X141588571Y-258865714D01*
X141540952Y-258818095D01*
X141493333Y-258722857D01*
X141493333Y-258484761D01*
X141540952Y-258389523D01*
X141588571Y-258341904D01*
X141683809Y-258294285D01*
X141921904Y-258294285D01*
X142017142Y-258341904D01*
X142064761Y-258389523D01*
X142112380Y-258484761D01*
X142112380Y-258722857D01*
X142064761Y-258818095D01*
X142017142Y-258865714D01*
%TO.C,C9*%
X20351142Y-259295666D02*
X20398761Y-259343285D01*
X20446380Y-259486142D01*
X20446380Y-259581380D01*
X20398761Y-259724238D01*
X20303523Y-259819476D01*
X20208285Y-259867095D01*
X20017809Y-259914714D01*
X19874952Y-259914714D01*
X19684476Y-259867095D01*
X19589238Y-259819476D01*
X19494000Y-259724238D01*
X19446380Y-259581380D01*
X19446380Y-259486142D01*
X19494000Y-259343285D01*
X19541619Y-259295666D01*
X20446380Y-258819476D02*
X20446380Y-258629000D01*
X20398761Y-258533761D01*
X20351142Y-258486142D01*
X20208285Y-258390904D01*
X20017809Y-258343285D01*
X19636857Y-258343285D01*
X19541619Y-258390904D01*
X19494000Y-258438523D01*
X19446380Y-258533761D01*
X19446380Y-258724238D01*
X19494000Y-258819476D01*
X19541619Y-258867095D01*
X19636857Y-258914714D01*
X19874952Y-258914714D01*
X19970190Y-258867095D01*
X20017809Y-258819476D01*
X20065428Y-258724238D01*
X20065428Y-258533761D01*
X20017809Y-258438523D01*
X19970190Y-258390904D01*
X19874952Y-258343285D01*
%TO.C,D46*%
X134112380Y-16454285D02*
X133112380Y-16454285D01*
X133112380Y-16216190D01*
X133160000Y-16073333D01*
X133255238Y-15978095D01*
X133350476Y-15930476D01*
X133540952Y-15882857D01*
X133683809Y-15882857D01*
X133874285Y-15930476D01*
X133969523Y-15978095D01*
X134064761Y-16073333D01*
X134112380Y-16216190D01*
X134112380Y-16454285D01*
X133445714Y-15025714D02*
X134112380Y-15025714D01*
X133064761Y-15263809D02*
X133779047Y-15501904D01*
X133779047Y-14882857D01*
X133112380Y-14073333D02*
X133112380Y-14263809D01*
X133160000Y-14359047D01*
X133207619Y-14406666D01*
X133350476Y-14501904D01*
X133540952Y-14549523D01*
X133921904Y-14549523D01*
X134017142Y-14501904D01*
X134064761Y-14454285D01*
X134112380Y-14359047D01*
X134112380Y-14168571D01*
X134064761Y-14073333D01*
X134017142Y-14025714D01*
X133921904Y-13978095D01*
X133683809Y-13978095D01*
X133588571Y-14025714D01*
X133540952Y-14073333D01*
X133493333Y-14168571D01*
X133493333Y-14359047D01*
X133540952Y-14454285D01*
X133588571Y-14501904D01*
X133683809Y-14549523D01*
X136012380Y-19104285D02*
X136012380Y-19675714D01*
X136012380Y-19390000D02*
X135012380Y-19390000D01*
X135155238Y-19485238D01*
X135250476Y-19580476D01*
X135298095Y-19675714D01*
%TO.C,D3*%
X19192380Y-229338095D02*
X18192380Y-229338095D01*
X18192380Y-229100000D01*
X18240000Y-228957142D01*
X18335238Y-228861904D01*
X18430476Y-228814285D01*
X18620952Y-228766666D01*
X18763809Y-228766666D01*
X18954285Y-228814285D01*
X19049523Y-228861904D01*
X19144761Y-228957142D01*
X19192380Y-229100000D01*
X19192380Y-229338095D01*
X18192380Y-228433333D02*
X18192380Y-227814285D01*
X18573333Y-228147619D01*
X18573333Y-228004761D01*
X18620952Y-227909523D01*
X18668571Y-227861904D01*
X18763809Y-227814285D01*
X19001904Y-227814285D01*
X19097142Y-227861904D01*
X19144761Y-227909523D01*
X19192380Y-228004761D01*
X19192380Y-228290476D01*
X19144761Y-228385714D01*
X19097142Y-228433333D01*
X17292380Y-224164285D02*
X17292380Y-224735714D01*
X17292380Y-224450000D02*
X16292380Y-224450000D01*
X16435238Y-224545238D01*
X16530476Y-224640476D01*
X16578095Y-224735714D01*
%TO.C,C11*%
X42339142Y-229242857D02*
X42386761Y-229290476D01*
X42434380Y-229433333D01*
X42434380Y-229528571D01*
X42386761Y-229671428D01*
X42291523Y-229766666D01*
X42196285Y-229814285D01*
X42005809Y-229861904D01*
X41862952Y-229861904D01*
X41672476Y-229814285D01*
X41577238Y-229766666D01*
X41482000Y-229671428D01*
X41434380Y-229528571D01*
X41434380Y-229433333D01*
X41482000Y-229290476D01*
X41529619Y-229242857D01*
X42434380Y-228290476D02*
X42434380Y-228861904D01*
X42434380Y-228576190D02*
X41434380Y-228576190D01*
X41577238Y-228671428D01*
X41672476Y-228766666D01*
X41720095Y-228861904D01*
X42434380Y-227338095D02*
X42434380Y-227909523D01*
X42434380Y-227623809D02*
X41434380Y-227623809D01*
X41577238Y-227719047D01*
X41672476Y-227814285D01*
X41720095Y-227909523D01*
%TO.C,D38*%
X73152380Y-77414285D02*
X72152380Y-77414285D01*
X72152380Y-77176190D01*
X72200000Y-77033333D01*
X72295238Y-76938095D01*
X72390476Y-76890476D01*
X72580952Y-76842857D01*
X72723809Y-76842857D01*
X72914285Y-76890476D01*
X73009523Y-76938095D01*
X73104761Y-77033333D01*
X73152380Y-77176190D01*
X73152380Y-77414285D01*
X72152380Y-76509523D02*
X72152380Y-75890476D01*
X72533333Y-76223809D01*
X72533333Y-76080952D01*
X72580952Y-75985714D01*
X72628571Y-75938095D01*
X72723809Y-75890476D01*
X72961904Y-75890476D01*
X73057142Y-75938095D01*
X73104761Y-75985714D01*
X73152380Y-76080952D01*
X73152380Y-76366666D01*
X73104761Y-76461904D01*
X73057142Y-76509523D01*
X72580952Y-75319047D02*
X72533333Y-75414285D01*
X72485714Y-75461904D01*
X72390476Y-75509523D01*
X72342857Y-75509523D01*
X72247619Y-75461904D01*
X72200000Y-75414285D01*
X72152380Y-75319047D01*
X72152380Y-75128571D01*
X72200000Y-75033333D01*
X72247619Y-74985714D01*
X72342857Y-74938095D01*
X72390476Y-74938095D01*
X72485714Y-74985714D01*
X72533333Y-75033333D01*
X72580952Y-75128571D01*
X72580952Y-75319047D01*
X72628571Y-75414285D01*
X72676190Y-75461904D01*
X72771428Y-75509523D01*
X72961904Y-75509523D01*
X73057142Y-75461904D01*
X73104761Y-75414285D01*
X73152380Y-75319047D01*
X73152380Y-75128571D01*
X73104761Y-75033333D01*
X73057142Y-74985714D01*
X72961904Y-74938095D01*
X72771428Y-74938095D01*
X72676190Y-74985714D01*
X72628571Y-75033333D01*
X72580952Y-75128571D01*
X75052380Y-80064285D02*
X75052380Y-80635714D01*
X75052380Y-80350000D02*
X74052380Y-80350000D01*
X74195238Y-80445238D01*
X74290476Y-80540476D01*
X74338095Y-80635714D01*
%TO.C,D28*%
X73152380Y-138374285D02*
X72152380Y-138374285D01*
X72152380Y-138136190D01*
X72200000Y-137993333D01*
X72295238Y-137898095D01*
X72390476Y-137850476D01*
X72580952Y-137802857D01*
X72723809Y-137802857D01*
X72914285Y-137850476D01*
X73009523Y-137898095D01*
X73104761Y-137993333D01*
X73152380Y-138136190D01*
X73152380Y-138374285D01*
X72247619Y-137421904D02*
X72200000Y-137374285D01*
X72152380Y-137279047D01*
X72152380Y-137040952D01*
X72200000Y-136945714D01*
X72247619Y-136898095D01*
X72342857Y-136850476D01*
X72438095Y-136850476D01*
X72580952Y-136898095D01*
X73152380Y-137469523D01*
X73152380Y-136850476D01*
X72580952Y-136279047D02*
X72533333Y-136374285D01*
X72485714Y-136421904D01*
X72390476Y-136469523D01*
X72342857Y-136469523D01*
X72247619Y-136421904D01*
X72200000Y-136374285D01*
X72152380Y-136279047D01*
X72152380Y-136088571D01*
X72200000Y-135993333D01*
X72247619Y-135945714D01*
X72342857Y-135898095D01*
X72390476Y-135898095D01*
X72485714Y-135945714D01*
X72533333Y-135993333D01*
X72580952Y-136088571D01*
X72580952Y-136279047D01*
X72628571Y-136374285D01*
X72676190Y-136421904D01*
X72771428Y-136469523D01*
X72961904Y-136469523D01*
X73057142Y-136421904D01*
X73104761Y-136374285D01*
X73152380Y-136279047D01*
X73152380Y-136088571D01*
X73104761Y-135993333D01*
X73057142Y-135945714D01*
X72961904Y-135898095D01*
X72771428Y-135898095D01*
X72676190Y-135945714D01*
X72628571Y-135993333D01*
X72580952Y-136088571D01*
X75052380Y-141024285D02*
X75052380Y-141595714D01*
X75052380Y-141310000D02*
X74052380Y-141310000D01*
X74195238Y-141405238D01*
X74290476Y-141500476D01*
X74338095Y-141595714D01*
%TO.C,C3*%
X70787142Y-289726666D02*
X70834761Y-289774285D01*
X70882380Y-289917142D01*
X70882380Y-290012380D01*
X70834761Y-290155238D01*
X70739523Y-290250476D01*
X70644285Y-290298095D01*
X70453809Y-290345714D01*
X70310952Y-290345714D01*
X70120476Y-290298095D01*
X70025238Y-290250476D01*
X69930000Y-290155238D01*
X69882380Y-290012380D01*
X69882380Y-289917142D01*
X69930000Y-289774285D01*
X69977619Y-289726666D01*
X69882380Y-289393333D02*
X69882380Y-288774285D01*
X70263333Y-289107619D01*
X70263333Y-288964761D01*
X70310952Y-288869523D01*
X70358571Y-288821904D01*
X70453809Y-288774285D01*
X70691904Y-288774285D01*
X70787142Y-288821904D01*
X70834761Y-288869523D01*
X70882380Y-288964761D01*
X70882380Y-289250476D01*
X70834761Y-289345714D01*
X70787142Y-289393333D01*
%TO.C,C50*%
X21318142Y-15882857D02*
X21365761Y-15930476D01*
X21413380Y-16073333D01*
X21413380Y-16168571D01*
X21365761Y-16311428D01*
X21270523Y-16406666D01*
X21175285Y-16454285D01*
X20984809Y-16501904D01*
X20841952Y-16501904D01*
X20651476Y-16454285D01*
X20556238Y-16406666D01*
X20461000Y-16311428D01*
X20413380Y-16168571D01*
X20413380Y-16073333D01*
X20461000Y-15930476D01*
X20508619Y-15882857D01*
X20413380Y-14978095D02*
X20413380Y-15454285D01*
X20889571Y-15501904D01*
X20841952Y-15454285D01*
X20794333Y-15359047D01*
X20794333Y-15120952D01*
X20841952Y-15025714D01*
X20889571Y-14978095D01*
X20984809Y-14930476D01*
X21222904Y-14930476D01*
X21318142Y-14978095D01*
X21365761Y-15025714D01*
X21413380Y-15120952D01*
X21413380Y-15359047D01*
X21365761Y-15454285D01*
X21318142Y-15501904D01*
X20413380Y-14311428D02*
X20413380Y-14216190D01*
X20461000Y-14120952D01*
X20508619Y-14073333D01*
X20603857Y-14025714D01*
X20794333Y-13978095D01*
X21032428Y-13978095D01*
X21222904Y-14025714D01*
X21318142Y-14073333D01*
X21365761Y-14120952D01*
X21413380Y-14216190D01*
X21413380Y-14311428D01*
X21365761Y-14406666D01*
X21318142Y-14454285D01*
X21222904Y-14501904D01*
X21032428Y-14549523D01*
X20794333Y-14549523D01*
X20603857Y-14501904D01*
X20508619Y-14454285D01*
X20461000Y-14406666D01*
X20413380Y-14311428D01*
%TO.C,D44*%
X110632380Y-46934285D02*
X109632380Y-46934285D01*
X109632380Y-46696190D01*
X109680000Y-46553333D01*
X109775238Y-46458095D01*
X109870476Y-46410476D01*
X110060952Y-46362857D01*
X110203809Y-46362857D01*
X110394285Y-46410476D01*
X110489523Y-46458095D01*
X110584761Y-46553333D01*
X110632380Y-46696190D01*
X110632380Y-46934285D01*
X109965714Y-45505714D02*
X110632380Y-45505714D01*
X109584761Y-45743809D02*
X110299047Y-45981904D01*
X110299047Y-45362857D01*
X109965714Y-44553333D02*
X110632380Y-44553333D01*
X109584761Y-44791428D02*
X110299047Y-45029523D01*
X110299047Y-44410476D01*
X108732380Y-41284285D02*
X108732380Y-41855714D01*
X108732380Y-41570000D02*
X107732380Y-41570000D01*
X107875238Y-41665238D01*
X107970476Y-41760476D01*
X108018095Y-41855714D01*
%TO.C,C42*%
X40307142Y-46362857D02*
X40354761Y-46410476D01*
X40402380Y-46553333D01*
X40402380Y-46648571D01*
X40354761Y-46791428D01*
X40259523Y-46886666D01*
X40164285Y-46934285D01*
X39973809Y-46981904D01*
X39830952Y-46981904D01*
X39640476Y-46934285D01*
X39545238Y-46886666D01*
X39450000Y-46791428D01*
X39402380Y-46648571D01*
X39402380Y-46553333D01*
X39450000Y-46410476D01*
X39497619Y-46362857D01*
X39735714Y-45505714D02*
X40402380Y-45505714D01*
X39354761Y-45743809D02*
X40069047Y-45981904D01*
X40069047Y-45362857D01*
X39497619Y-45029523D02*
X39450000Y-44981904D01*
X39402380Y-44886666D01*
X39402380Y-44648571D01*
X39450000Y-44553333D01*
X39497619Y-44505714D01*
X39592857Y-44458095D01*
X39688095Y-44458095D01*
X39830952Y-44505714D01*
X40402380Y-45077142D01*
X40402380Y-44458095D01*
%TO.C,D35*%
X141112380Y-107894285D02*
X140112380Y-107894285D01*
X140112380Y-107656190D01*
X140160000Y-107513333D01*
X140255238Y-107418095D01*
X140350476Y-107370476D01*
X140540952Y-107322857D01*
X140683809Y-107322857D01*
X140874285Y-107370476D01*
X140969523Y-107418095D01*
X141064761Y-107513333D01*
X141112380Y-107656190D01*
X141112380Y-107894285D01*
X140112380Y-106989523D02*
X140112380Y-106370476D01*
X140493333Y-106703809D01*
X140493333Y-106560952D01*
X140540952Y-106465714D01*
X140588571Y-106418095D01*
X140683809Y-106370476D01*
X140921904Y-106370476D01*
X141017142Y-106418095D01*
X141064761Y-106465714D01*
X141112380Y-106560952D01*
X141112380Y-106846666D01*
X141064761Y-106941904D01*
X141017142Y-106989523D01*
X140112380Y-105465714D02*
X140112380Y-105941904D01*
X140588571Y-105989523D01*
X140540952Y-105941904D01*
X140493333Y-105846666D01*
X140493333Y-105608571D01*
X140540952Y-105513333D01*
X140588571Y-105465714D01*
X140683809Y-105418095D01*
X140921904Y-105418095D01*
X141017142Y-105465714D01*
X141064761Y-105513333D01*
X141112380Y-105608571D01*
X141112380Y-105846666D01*
X141064761Y-105941904D01*
X141017142Y-105989523D01*
X139212380Y-102244285D02*
X139212380Y-102815714D01*
X139212380Y-102530000D02*
X138212380Y-102530000D01*
X138355238Y-102625238D01*
X138450476Y-102720476D01*
X138498095Y-102815714D01*
%TO.C,C7*%
X81819142Y-259246666D02*
X81866761Y-259294285D01*
X81914380Y-259437142D01*
X81914380Y-259532380D01*
X81866761Y-259675238D01*
X81771523Y-259770476D01*
X81676285Y-259818095D01*
X81485809Y-259865714D01*
X81342952Y-259865714D01*
X81152476Y-259818095D01*
X81057238Y-259770476D01*
X80962000Y-259675238D01*
X80914380Y-259532380D01*
X80914380Y-259437142D01*
X80962000Y-259294285D01*
X81009619Y-259246666D01*
X80914380Y-258913333D02*
X80914380Y-258246666D01*
X81914380Y-258675238D01*
%TO.C,C48*%
X82327142Y-16390857D02*
X82374761Y-16438476D01*
X82422380Y-16581333D01*
X82422380Y-16676571D01*
X82374761Y-16819428D01*
X82279523Y-16914666D01*
X82184285Y-16962285D01*
X81993809Y-17009904D01*
X81850952Y-17009904D01*
X81660476Y-16962285D01*
X81565238Y-16914666D01*
X81470000Y-16819428D01*
X81422380Y-16676571D01*
X81422380Y-16581333D01*
X81470000Y-16438476D01*
X81517619Y-16390857D01*
X81755714Y-15533714D02*
X82422380Y-15533714D01*
X81374761Y-15771809D02*
X82089047Y-16009904D01*
X82089047Y-15390857D01*
X81850952Y-14867047D02*
X81803333Y-14962285D01*
X81755714Y-15009904D01*
X81660476Y-15057523D01*
X81612857Y-15057523D01*
X81517619Y-15009904D01*
X81470000Y-14962285D01*
X81422380Y-14867047D01*
X81422380Y-14676571D01*
X81470000Y-14581333D01*
X81517619Y-14533714D01*
X81612857Y-14486095D01*
X81660476Y-14486095D01*
X81755714Y-14533714D01*
X81803333Y-14581333D01*
X81850952Y-14676571D01*
X81850952Y-14867047D01*
X81898571Y-14962285D01*
X81946190Y-15009904D01*
X82041428Y-15057523D01*
X82231904Y-15057523D01*
X82327142Y-15009904D01*
X82374761Y-14962285D01*
X82422380Y-14867047D01*
X82422380Y-14676571D01*
X82374761Y-14581333D01*
X82327142Y-14533714D01*
X82231904Y-14486095D01*
X82041428Y-14486095D01*
X81946190Y-14533714D01*
X81898571Y-14581333D01*
X81850952Y-14676571D01*
%TO.C,D9*%
X103632380Y-198858095D02*
X102632380Y-198858095D01*
X102632380Y-198620000D01*
X102680000Y-198477142D01*
X102775238Y-198381904D01*
X102870476Y-198334285D01*
X103060952Y-198286666D01*
X103203809Y-198286666D01*
X103394285Y-198334285D01*
X103489523Y-198381904D01*
X103584761Y-198477142D01*
X103632380Y-198620000D01*
X103632380Y-198858095D01*
X103632380Y-197810476D02*
X103632380Y-197620000D01*
X103584761Y-197524761D01*
X103537142Y-197477142D01*
X103394285Y-197381904D01*
X103203809Y-197334285D01*
X102822857Y-197334285D01*
X102727619Y-197381904D01*
X102680000Y-197429523D01*
X102632380Y-197524761D01*
X102632380Y-197715238D01*
X102680000Y-197810476D01*
X102727619Y-197858095D01*
X102822857Y-197905714D01*
X103060952Y-197905714D01*
X103156190Y-197858095D01*
X103203809Y-197810476D01*
X103251428Y-197715238D01*
X103251428Y-197524761D01*
X103203809Y-197429523D01*
X103156190Y-197381904D01*
X103060952Y-197334285D01*
X105532380Y-201984285D02*
X105532380Y-202555714D01*
X105532380Y-202270000D02*
X104532380Y-202270000D01*
X104675238Y-202365238D01*
X104770476Y-202460476D01*
X104818095Y-202555714D01*
%TO.C,C19*%
X10843142Y-168282857D02*
X10890761Y-168330476D01*
X10938380Y-168473333D01*
X10938380Y-168568571D01*
X10890761Y-168711428D01*
X10795523Y-168806666D01*
X10700285Y-168854285D01*
X10509809Y-168901904D01*
X10366952Y-168901904D01*
X10176476Y-168854285D01*
X10081238Y-168806666D01*
X9986000Y-168711428D01*
X9938380Y-168568571D01*
X9938380Y-168473333D01*
X9986000Y-168330476D01*
X10033619Y-168282857D01*
X10938380Y-167330476D02*
X10938380Y-167901904D01*
X10938380Y-167616190D02*
X9938380Y-167616190D01*
X10081238Y-167711428D01*
X10176476Y-167806666D01*
X10224095Y-167901904D01*
X10938380Y-166854285D02*
X10938380Y-166663809D01*
X10890761Y-166568571D01*
X10843142Y-166520952D01*
X10700285Y-166425714D01*
X10509809Y-166378095D01*
X10128857Y-166378095D01*
X10033619Y-166425714D01*
X9986000Y-166473333D01*
X9938380Y-166568571D01*
X9938380Y-166759047D01*
X9986000Y-166854285D01*
X10033619Y-166901904D01*
X10128857Y-166949523D01*
X10366952Y-166949523D01*
X10462190Y-166901904D01*
X10509809Y-166854285D01*
X10557428Y-166759047D01*
X10557428Y-166568571D01*
X10509809Y-166473333D01*
X10462190Y-166425714D01*
X10366952Y-166378095D01*
%TO.C,D11*%
X80152380Y-290774285D02*
X79152380Y-290774285D01*
X79152380Y-290536190D01*
X79200000Y-290393333D01*
X79295238Y-290298095D01*
X79390476Y-290250476D01*
X79580952Y-290202857D01*
X79723809Y-290202857D01*
X79914285Y-290250476D01*
X80009523Y-290298095D01*
X80104761Y-290393333D01*
X80152380Y-290536190D01*
X80152380Y-290774285D01*
X80152380Y-289250476D02*
X80152380Y-289821904D01*
X80152380Y-289536190D02*
X79152380Y-289536190D01*
X79295238Y-289631428D01*
X79390476Y-289726666D01*
X79438095Y-289821904D01*
X80152380Y-288298095D02*
X80152380Y-288869523D01*
X80152380Y-288583809D02*
X79152380Y-288583809D01*
X79295238Y-288679047D01*
X79390476Y-288774285D01*
X79438095Y-288869523D01*
X78252380Y-285124285D02*
X78252380Y-285695714D01*
X78252380Y-285410000D02*
X77252380Y-285410000D01*
X77395238Y-285505238D01*
X77490476Y-285600476D01*
X77538095Y-285695714D01*
%TO.C,C25*%
X101954045Y-290235308D02*
X102001664Y-290282927D01*
X102049283Y-290425784D01*
X102049283Y-290521022D01*
X102001664Y-290663879D01*
X101906426Y-290759117D01*
X101811188Y-290806736D01*
X101620712Y-290854355D01*
X101477855Y-290854355D01*
X101287379Y-290806736D01*
X101192141Y-290759117D01*
X101096903Y-290663879D01*
X101049283Y-290521022D01*
X101049283Y-290425784D01*
X101096903Y-290282927D01*
X101144522Y-290235308D01*
X101144522Y-289854355D02*
X101096903Y-289806736D01*
X101049283Y-289711498D01*
X101049283Y-289473403D01*
X101096903Y-289378165D01*
X101144522Y-289330546D01*
X101239760Y-289282927D01*
X101334998Y-289282927D01*
X101477855Y-289330546D01*
X102049283Y-289901974D01*
X102049283Y-289282927D01*
X101049283Y-288378165D02*
X101049283Y-288854355D01*
X101525474Y-288901974D01*
X101477855Y-288854355D01*
X101430236Y-288759117D01*
X101430236Y-288521022D01*
X101477855Y-288425784D01*
X101525474Y-288378165D01*
X101620712Y-288330546D01*
X101858807Y-288330546D01*
X101954045Y-288378165D01*
X102001664Y-288425784D01*
X102049283Y-288521022D01*
X102049283Y-288759117D01*
X102001664Y-288854355D01*
X101954045Y-288901974D01*
%TO.C,C6*%
X112172142Y-259246666D02*
X112219761Y-259294285D01*
X112267380Y-259437142D01*
X112267380Y-259532380D01*
X112219761Y-259675238D01*
X112124523Y-259770476D01*
X112029285Y-259818095D01*
X111838809Y-259865714D01*
X111695952Y-259865714D01*
X111505476Y-259818095D01*
X111410238Y-259770476D01*
X111315000Y-259675238D01*
X111267380Y-259532380D01*
X111267380Y-259437142D01*
X111315000Y-259294285D01*
X111362619Y-259246666D01*
X111267380Y-258389523D02*
X111267380Y-258580000D01*
X111315000Y-258675238D01*
X111362619Y-258722857D01*
X111505476Y-258818095D01*
X111695952Y-258865714D01*
X112076904Y-258865714D01*
X112172142Y-258818095D01*
X112219761Y-258770476D01*
X112267380Y-258675238D01*
X112267380Y-258484761D01*
X112219761Y-258389523D01*
X112172142Y-258341904D01*
X112076904Y-258294285D01*
X111838809Y-258294285D01*
X111743571Y-258341904D01*
X111695952Y-258389523D01*
X111648333Y-258484761D01*
X111648333Y-258675238D01*
X111695952Y-258770476D01*
X111743571Y-258818095D01*
X111838809Y-258865714D01*
%TO.C,C39*%
X51339142Y-76842857D02*
X51386761Y-76890476D01*
X51434380Y-77033333D01*
X51434380Y-77128571D01*
X51386761Y-77271428D01*
X51291523Y-77366666D01*
X51196285Y-77414285D01*
X51005809Y-77461904D01*
X50862952Y-77461904D01*
X50672476Y-77414285D01*
X50577238Y-77366666D01*
X50482000Y-77271428D01*
X50434380Y-77128571D01*
X50434380Y-77033333D01*
X50482000Y-76890476D01*
X50529619Y-76842857D01*
X50434380Y-76509523D02*
X50434380Y-75890476D01*
X50815333Y-76223809D01*
X50815333Y-76080952D01*
X50862952Y-75985714D01*
X50910571Y-75938095D01*
X51005809Y-75890476D01*
X51243904Y-75890476D01*
X51339142Y-75938095D01*
X51386761Y-75985714D01*
X51434380Y-76080952D01*
X51434380Y-76366666D01*
X51386761Y-76461904D01*
X51339142Y-76509523D01*
X51434380Y-75414285D02*
X51434380Y-75223809D01*
X51386761Y-75128571D01*
X51339142Y-75080952D01*
X51196285Y-74985714D01*
X51005809Y-74938095D01*
X50624857Y-74938095D01*
X50529619Y-74985714D01*
X50482000Y-75033333D01*
X50434380Y-75128571D01*
X50434380Y-75319047D01*
X50482000Y-75414285D01*
X50529619Y-75461904D01*
X50624857Y-75509523D01*
X50862952Y-75509523D01*
X50958190Y-75461904D01*
X51005809Y-75414285D01*
X51053428Y-75319047D01*
X51053428Y-75128571D01*
X51005809Y-75033333D01*
X50958190Y-74985714D01*
X50862952Y-74938095D01*
%TO.C,D4*%
X134112380Y-198858095D02*
X133112380Y-198858095D01*
X133112380Y-198620000D01*
X133160000Y-198477142D01*
X133255238Y-198381904D01*
X133350476Y-198334285D01*
X133540952Y-198286666D01*
X133683809Y-198286666D01*
X133874285Y-198334285D01*
X133969523Y-198381904D01*
X134064761Y-198477142D01*
X134112380Y-198620000D01*
X134112380Y-198858095D01*
X133445714Y-197429523D02*
X134112380Y-197429523D01*
X133064761Y-197667619D02*
X133779047Y-197905714D01*
X133779047Y-197286666D01*
X136012380Y-201984285D02*
X136012380Y-202555714D01*
X136012380Y-202270000D02*
X135012380Y-202270000D01*
X135155238Y-202365238D01*
X135250476Y-202460476D01*
X135298095Y-202555714D01*
%TO.C,D15*%
X80184345Y-168890378D02*
X79184345Y-168890378D01*
X79184345Y-168652283D01*
X79231965Y-168509426D01*
X79327203Y-168414188D01*
X79422441Y-168366569D01*
X79612917Y-168318950D01*
X79755774Y-168318950D01*
X79946250Y-168366569D01*
X80041488Y-168414188D01*
X80136726Y-168509426D01*
X80184345Y-168652283D01*
X80184345Y-168890378D01*
X80184345Y-167366569D02*
X80184345Y-167937997D01*
X80184345Y-167652283D02*
X79184345Y-167652283D01*
X79327203Y-167747521D01*
X79422441Y-167842759D01*
X79470060Y-167937997D01*
X79184345Y-166461807D02*
X79184345Y-166937997D01*
X79660536Y-166985616D01*
X79612917Y-166937997D01*
X79565298Y-166842759D01*
X79565298Y-166604664D01*
X79612917Y-166509426D01*
X79660536Y-166461807D01*
X79755774Y-166414188D01*
X79993869Y-166414188D01*
X80089107Y-166461807D01*
X80136726Y-166509426D01*
X80184345Y-166604664D01*
X80184345Y-166842759D01*
X80136726Y-166937997D01*
X80089107Y-166985616D01*
X78284345Y-163240378D02*
X78284345Y-163811807D01*
X78284345Y-163526093D02*
X77284345Y-163526093D01*
X77427203Y-163621331D01*
X77522441Y-163716569D01*
X77570060Y-163811807D01*
%TO.C,C28*%
X81311142Y-137802857D02*
X81358761Y-137850476D01*
X81406380Y-137993333D01*
X81406380Y-138088571D01*
X81358761Y-138231428D01*
X81263523Y-138326666D01*
X81168285Y-138374285D01*
X80977809Y-138421904D01*
X80834952Y-138421904D01*
X80644476Y-138374285D01*
X80549238Y-138326666D01*
X80454000Y-138231428D01*
X80406380Y-138088571D01*
X80406380Y-137993333D01*
X80454000Y-137850476D01*
X80501619Y-137802857D01*
X80501619Y-137421904D02*
X80454000Y-137374285D01*
X80406380Y-137279047D01*
X80406380Y-137040952D01*
X80454000Y-136945714D01*
X80501619Y-136898095D01*
X80596857Y-136850476D01*
X80692095Y-136850476D01*
X80834952Y-136898095D01*
X81406380Y-137469523D01*
X81406380Y-136850476D01*
X80834952Y-136279047D02*
X80787333Y-136374285D01*
X80739714Y-136421904D01*
X80644476Y-136469523D01*
X80596857Y-136469523D01*
X80501619Y-136421904D01*
X80454000Y-136374285D01*
X80406380Y-136279047D01*
X80406380Y-136088571D01*
X80454000Y-135993333D01*
X80501619Y-135945714D01*
X80596857Y-135898095D01*
X80644476Y-135898095D01*
X80739714Y-135945714D01*
X80787333Y-135993333D01*
X80834952Y-136088571D01*
X80834952Y-136279047D01*
X80882571Y-136374285D01*
X80930190Y-136421904D01*
X81025428Y-136469523D01*
X81215904Y-136469523D01*
X81311142Y-136421904D01*
X81358761Y-136374285D01*
X81406380Y-136279047D01*
X81406380Y-136088571D01*
X81358761Y-135993333D01*
X81311142Y-135945714D01*
X81215904Y-135898095D01*
X81025428Y-135898095D01*
X80930190Y-135945714D01*
X80882571Y-135993333D01*
X80834952Y-136088571D01*
D12*
%TO.C,C18*%
X21442000Y-199339252D02*
X21442000Y-197916748D01*
X23262000Y-199339252D02*
X23262000Y-197916748D01*
%TO.C,C24*%
X132482000Y-227888748D02*
X132482000Y-229311252D01*
X130662000Y-227888748D02*
X130662000Y-229311252D01*
%TO.C,D48*%
X73450000Y-18890000D02*
X73450000Y-11590000D01*
X78950000Y-11590000D02*
X77800000Y-11590000D01*
X78950000Y-18890000D02*
X78950000Y-11590000D01*
%TO.C,C32*%
X38206000Y-105968748D02*
X38206000Y-107391252D01*
X40026000Y-105968748D02*
X40026000Y-107391252D01*
%TO.C,D25*%
X134410000Y-171290000D02*
X135560000Y-171290000D01*
X134410000Y-163990000D02*
X134410000Y-171290000D01*
X139910000Y-163990000D02*
X139910000Y-171290000D01*
%TO.C,C20*%
X38206000Y-166928748D02*
X38206000Y-168351252D01*
X40026000Y-166928748D02*
X40026000Y-168351252D01*
%TO.C,D22*%
X18025148Y-255512702D02*
X16875148Y-255512702D01*
X12525148Y-262812702D02*
X12525148Y-255512702D01*
X18025148Y-262812702D02*
X18025148Y-255512702D01*
%TO.C,C27*%
X114194000Y-137871252D02*
X114194000Y-136448748D01*
X112374000Y-137871252D02*
X112374000Y-136448748D01*
%TO.C,C16*%
X82451000Y-198831252D02*
X82451000Y-197408748D01*
X84271000Y-198831252D02*
X84271000Y-197408748D01*
%TO.C,D45*%
X139910000Y-42070000D02*
X139910000Y-49370000D01*
X134410000Y-42070000D02*
X134410000Y-49370000D01*
X134410000Y-49370000D02*
X135560000Y-49370000D01*
%TO.C,C23*%
X130958000Y-166928748D02*
X130958000Y-168351252D01*
X129138000Y-166928748D02*
X129138000Y-168351252D01*
%TO.C,C26*%
X142134000Y-137871252D02*
X142134000Y-136448748D01*
X140314000Y-137871252D02*
X140314000Y-136448748D01*
%TO.C,D2*%
X134410000Y-262730000D02*
X134410000Y-255430000D01*
X139910000Y-262730000D02*
X139910000Y-255430000D01*
X139910000Y-255430000D02*
X138760000Y-255430000D01*
%TO.C,D17*%
X42970000Y-262730000D02*
X42970000Y-255430000D01*
X48470000Y-262730000D02*
X48470000Y-255430000D01*
X48470000Y-255430000D02*
X47320000Y-255430000D01*
%TO.C,D41*%
X12490000Y-42070000D02*
X12490000Y-49370000D01*
X17990000Y-42070000D02*
X17990000Y-49370000D01*
X12490000Y-49370000D02*
X13640000Y-49370000D01*
%TO.C,D16*%
X103930000Y-293210000D02*
X105080000Y-293210000D01*
X103930000Y-285910000D02*
X103930000Y-293210000D01*
X109430000Y-285910000D02*
X109430000Y-293210000D01*
%TO.C,C45*%
X128630000Y-45008748D02*
X128630000Y-46431252D01*
X130450000Y-45008748D02*
X130450000Y-46431252D01*
%TO.C,D50*%
X17990000Y-11590000D02*
X16840000Y-11590000D01*
X12490000Y-18890000D02*
X12490000Y-11590000D01*
X17990000Y-18890000D02*
X17990000Y-11590000D01*
%TO.C,D37*%
X109430000Y-72550000D02*
X108280000Y-72550000D01*
X109430000Y-79850000D02*
X109430000Y-72550000D01*
X103930000Y-79850000D02*
X103930000Y-72550000D01*
%TO.C,C15*%
X115210000Y-199339252D02*
X115210000Y-197916748D01*
X113390000Y-199339252D02*
X113390000Y-197916748D01*
%TO.C,C35*%
X131466000Y-105968748D02*
X131466000Y-107391252D01*
X129646000Y-105968748D02*
X129646000Y-107391252D01*
%TO.C,D24*%
X12490000Y-201770000D02*
X12490000Y-194470000D01*
X17990000Y-194470000D02*
X16840000Y-194470000D01*
X17990000Y-201770000D02*
X17990000Y-194470000D01*
%TO.C,C31*%
X7218000Y-105968748D02*
X7218000Y-107391252D01*
X9038000Y-105968748D02*
X9038000Y-107391252D01*
%TO.C,D43*%
X73450000Y-42070000D02*
X73450000Y-49370000D01*
X78950000Y-42070000D02*
X78950000Y-49370000D01*
X73450000Y-49370000D02*
X74600000Y-49370000D01*
%TO.C,C46*%
X143362000Y-15951252D02*
X143362000Y-14528748D01*
X145182000Y-15951252D02*
X145182000Y-14528748D01*
%TO.C,D32*%
X42970000Y-103030000D02*
X42970000Y-110330000D01*
X42970000Y-110330000D02*
X44120000Y-110330000D01*
X48470000Y-103030000D02*
X48470000Y-110330000D01*
%TO.C,C30*%
X22754000Y-138379252D02*
X22754000Y-136956748D01*
X20934000Y-138379252D02*
X20934000Y-136956748D01*
%TO.C,C21*%
X68178000Y-166928748D02*
X68178000Y-168351252D01*
X69998000Y-166928748D02*
X69998000Y-168351252D01*
%TO.C,C36*%
X143362000Y-76911252D02*
X143362000Y-75488748D01*
X145182000Y-76911252D02*
X145182000Y-75488748D01*
%TO.C,D33*%
X78950000Y-103030000D02*
X78950000Y-110330000D01*
X73450000Y-103030000D02*
X73450000Y-110330000D01*
X73450000Y-110330000D02*
X74600000Y-110330000D01*
%TO.C,D6*%
X42970000Y-285910000D02*
X42970000Y-293210000D01*
X42970000Y-293210000D02*
X44120000Y-293210000D01*
X48470000Y-285910000D02*
X48470000Y-293210000D01*
%TO.C,C17*%
X53742000Y-199339252D02*
X53742000Y-197916748D01*
X51922000Y-199339252D02*
X51922000Y-197916748D01*
%TO.C,D20*%
X103930000Y-163990000D02*
X103930000Y-171290000D01*
X103930000Y-171290000D02*
X105080000Y-171290000D01*
X109430000Y-163990000D02*
X109430000Y-171290000D01*
%TO.C,C12*%
X69702000Y-227888748D02*
X69702000Y-229311252D01*
X71522000Y-227888748D02*
X71522000Y-229311252D01*
%TO.C,D34*%
X103930000Y-103030000D02*
X103930000Y-110330000D01*
X103930000Y-110330000D02*
X105080000Y-110330000D01*
X109430000Y-103030000D02*
X109430000Y-110330000D01*
%TO.C,D49*%
X48470000Y-11590000D02*
X47320000Y-11590000D01*
X42970000Y-18890000D02*
X42970000Y-11590000D01*
X48470000Y-18890000D02*
X48470000Y-11590000D01*
%TO.C,C13*%
X102002000Y-227888748D02*
X102002000Y-229311252D01*
X100182000Y-227888748D02*
X100182000Y-229311252D01*
%TO.C,C33*%
X68686000Y-105968748D02*
X68686000Y-107391252D01*
X70506000Y-105968748D02*
X70506000Y-107391252D01*
%TO.C,D27*%
X108922000Y-133510000D02*
X107772000Y-133510000D01*
X108922000Y-140810000D02*
X108922000Y-133510000D01*
X103422000Y-140810000D02*
X103422000Y-133510000D01*
%TO.C,D40*%
X17990000Y-79850000D02*
X17990000Y-72550000D01*
X12490000Y-79850000D02*
X12490000Y-72550000D01*
X17990000Y-72550000D02*
X16840000Y-72550000D01*
%TO.C,D14*%
X78950000Y-194470000D02*
X77800000Y-194470000D01*
X73450000Y-201770000D02*
X73450000Y-194470000D01*
X78950000Y-201770000D02*
X78950000Y-194470000D01*
%TO.C,C10*%
X9250000Y-227888748D02*
X9250000Y-229311252D01*
X11070000Y-227888748D02*
X11070000Y-229311252D01*
%TO.C,D7*%
X109430000Y-255430000D02*
X108280000Y-255430000D01*
X103930000Y-262730000D02*
X103930000Y-255430000D01*
X109430000Y-262730000D02*
X109430000Y-255430000D01*
%TO.C,C29*%
X53742000Y-137871252D02*
X53742000Y-136448748D01*
X51922000Y-137871252D02*
X51922000Y-136448748D01*
%TO.C,D8*%
X42970000Y-224950000D02*
X42970000Y-232250000D01*
X42970000Y-232250000D02*
X44120000Y-232250000D01*
X48470000Y-224950000D02*
X48470000Y-232250000D01*
%TO.C,D1*%
X12490000Y-285910000D02*
X12490000Y-293210000D01*
X17990000Y-285910000D02*
X17990000Y-293210000D01*
X12490000Y-293210000D02*
X13640000Y-293210000D01*
%TO.C,C14*%
X145094097Y-199160779D02*
X145094097Y-197738275D01*
X143274097Y-199160779D02*
X143274097Y-197738275D01*
%TO.C,D42*%
X42970000Y-49370000D02*
X44120000Y-49370000D01*
X42970000Y-42070000D02*
X42970000Y-49370000D01*
X48470000Y-42070000D02*
X48470000Y-49370000D01*
%TO.C,C22*%
X98658000Y-166928748D02*
X98658000Y-168351252D01*
X100478000Y-166928748D02*
X100478000Y-168351252D01*
%TO.C,D5*%
X17990000Y-163990000D02*
X17990000Y-171290000D01*
X12490000Y-171290000D02*
X13640000Y-171290000D01*
X12490000Y-163990000D02*
X12490000Y-171290000D01*
%TO.C,D39*%
X42970000Y-79850000D02*
X42970000Y-72550000D01*
X48470000Y-79850000D02*
X48470000Y-72550000D01*
X48470000Y-72550000D02*
X47320000Y-72550000D01*
%TO.C,D18*%
X103930000Y-224950000D02*
X103930000Y-232250000D01*
X109430000Y-224950000D02*
X109430000Y-232250000D01*
X103930000Y-232250000D02*
X105080000Y-232250000D01*
%TO.C,C47*%
X114702000Y-16459252D02*
X114702000Y-15036748D01*
X112882000Y-16459252D02*
X112882000Y-15036748D01*
%TO.C,C44*%
X99970000Y-45008748D02*
X99970000Y-46431252D01*
X98150000Y-45008748D02*
X98150000Y-46431252D01*
%TO.C,D13*%
X73450000Y-232250000D02*
X74600000Y-232250000D01*
X73450000Y-224950000D02*
X73450000Y-232250000D01*
X78950000Y-224950000D02*
X78950000Y-232250000D01*
%TO.C,D36*%
X139910000Y-72550000D02*
X138760000Y-72550000D01*
X139910000Y-79850000D02*
X139910000Y-72550000D01*
X134410000Y-79850000D02*
X134410000Y-72550000D01*
%TO.C,D10*%
X42970000Y-163990000D02*
X42970000Y-171290000D01*
X48470000Y-163990000D02*
X48470000Y-171290000D01*
X42970000Y-171290000D02*
X44120000Y-171290000D01*
%TO.C,D26*%
X137280000Y-133434000D02*
X136130000Y-133434000D01*
X137280000Y-140734000D02*
X137280000Y-133434000D01*
X131780000Y-140734000D02*
X131780000Y-133434000D01*
%TO.C,C40*%
X21442000Y-76911252D02*
X21442000Y-75488748D01*
X23262000Y-76911252D02*
X23262000Y-75488748D01*
%TO.C,D47*%
X109430000Y-11590000D02*
X108280000Y-11590000D01*
X103930000Y-18890000D02*
X103930000Y-11590000D01*
X109430000Y-18890000D02*
X109430000Y-11590000D01*
%TO.C,D21*%
X134410000Y-293210000D02*
X135560000Y-293210000D01*
X134410000Y-285910000D02*
X134410000Y-293210000D01*
X139910000Y-285910000D02*
X139910000Y-293210000D01*
%TO.C,D23*%
X139910000Y-224950000D02*
X139910000Y-232250000D01*
X134410000Y-224950000D02*
X134410000Y-232250000D01*
X134410000Y-232250000D02*
X135560000Y-232250000D01*
%TO.C,C2*%
X39645000Y-288848748D02*
X39645000Y-290271252D01*
X37825000Y-288848748D02*
X37825000Y-290271252D01*
%TO.C,C43*%
X69964306Y-44959973D02*
X69964306Y-46382477D01*
X68144306Y-44959973D02*
X68144306Y-46382477D01*
%TO.C,D12*%
X78950000Y-255430000D02*
X77800000Y-255430000D01*
X73450000Y-262730000D02*
X73450000Y-255430000D01*
X78950000Y-262730000D02*
X78950000Y-255430000D01*
%TO.C,C8*%
X50906000Y-259791252D02*
X50906000Y-258368748D01*
X52726000Y-259791252D02*
X52726000Y-258368748D01*
%TO.C,C34*%
X99166000Y-105968748D02*
X99166000Y-107391252D01*
X100986000Y-105968748D02*
X100986000Y-107391252D01*
%TO.C,D31*%
X17990000Y-103030000D02*
X17990000Y-110330000D01*
X12490000Y-110330000D02*
X13640000Y-110330000D01*
X12490000Y-103030000D02*
X12490000Y-110330000D01*
%TO.C,D30*%
X12490000Y-140810000D02*
X12490000Y-133510000D01*
X17990000Y-140810000D02*
X17990000Y-133510000D01*
X17990000Y-133510000D02*
X16840000Y-133510000D01*
%TO.C,C37*%
X115210000Y-76911252D02*
X115210000Y-75488748D01*
X113390000Y-76911252D02*
X113390000Y-75488748D01*
%TO.C,C41*%
X7218000Y-45008748D02*
X7218000Y-46431252D01*
X9038000Y-45008748D02*
X9038000Y-46431252D01*
%TO.C,D19*%
X48470000Y-201770000D02*
X48470000Y-194470000D01*
X48470000Y-194470000D02*
X47320000Y-194470000D01*
X42970000Y-201770000D02*
X42970000Y-194470000D01*
%TO.C,C1*%
X9800000Y-288848748D02*
X9800000Y-290271252D01*
X7980000Y-288848748D02*
X7980000Y-290271252D01*
%TO.C,D29*%
X48470000Y-133510000D02*
X47320000Y-133510000D01*
X48470000Y-140810000D02*
X48470000Y-133510000D01*
X42970000Y-140810000D02*
X42970000Y-133510000D01*
%TO.C,C38*%
X84222000Y-76911252D02*
X84222000Y-75488748D01*
X82402000Y-76911252D02*
X82402000Y-75488748D01*
%TO.C,C49*%
X52430000Y-15951252D02*
X52430000Y-14528748D01*
X54250000Y-15951252D02*
X54250000Y-14528748D01*
%TO.C,C4*%
X129900000Y-288848748D02*
X129900000Y-290271252D01*
X131720000Y-288848748D02*
X131720000Y-290271252D01*
%TO.C,C5*%
X142600000Y-259791252D02*
X142600000Y-258368748D01*
X144420000Y-259791252D02*
X144420000Y-258368748D01*
%TO.C,C9*%
X22754000Y-259840252D02*
X22754000Y-258417748D01*
X20934000Y-259840252D02*
X20934000Y-258417748D01*
%TO.C,D46*%
X139910000Y-18890000D02*
X139910000Y-11590000D01*
X134410000Y-18890000D02*
X134410000Y-11590000D01*
X139910000Y-11590000D02*
X138760000Y-11590000D01*
%TO.C,D3*%
X12490000Y-224950000D02*
X12490000Y-232250000D01*
X12490000Y-232250000D02*
X13640000Y-232250000D01*
X17990000Y-224950000D02*
X17990000Y-232250000D01*
%TO.C,C11*%
X39222000Y-227888748D02*
X39222000Y-229311252D01*
X41042000Y-227888748D02*
X41042000Y-229311252D01*
%TO.C,D38*%
X78950000Y-72550000D02*
X77800000Y-72550000D01*
X73450000Y-79850000D02*
X73450000Y-72550000D01*
X78950000Y-79850000D02*
X78950000Y-72550000D01*
%TO.C,D28*%
X78950000Y-133510000D02*
X77800000Y-133510000D01*
X73450000Y-140810000D02*
X73450000Y-133510000D01*
X78950000Y-140810000D02*
X78950000Y-133510000D01*
%TO.C,C3*%
X69490000Y-288848748D02*
X69490000Y-290271252D01*
X67670000Y-288848748D02*
X67670000Y-290271252D01*
%TO.C,C50*%
X23721000Y-15951252D02*
X23721000Y-14528748D01*
X21901000Y-15951252D02*
X21901000Y-14528748D01*
%TO.C,D44*%
X103930000Y-42070000D02*
X103930000Y-49370000D01*
X103930000Y-49370000D02*
X105080000Y-49370000D01*
X109430000Y-42070000D02*
X109430000Y-49370000D01*
%TO.C,C42*%
X39010000Y-45008748D02*
X39010000Y-46431252D01*
X37190000Y-45008748D02*
X37190000Y-46431252D01*
%TO.C,D35*%
X134410000Y-103030000D02*
X134410000Y-110330000D01*
X134410000Y-110330000D02*
X135560000Y-110330000D01*
X139910000Y-103030000D02*
X139910000Y-110330000D01*
%TO.C,C7*%
X82402000Y-259791252D02*
X82402000Y-258368748D01*
X84222000Y-259791252D02*
X84222000Y-258368748D01*
%TO.C,C48*%
X82910000Y-16459252D02*
X82910000Y-15036748D01*
X84730000Y-16459252D02*
X84730000Y-15036748D01*
%TO.C,D9*%
X109430000Y-201770000D02*
X109430000Y-194470000D01*
X109430000Y-194470000D02*
X108280000Y-194470000D01*
X103930000Y-201770000D02*
X103930000Y-194470000D01*
%TO.C,C19*%
X7726000Y-166928748D02*
X7726000Y-168351252D01*
X9546000Y-166928748D02*
X9546000Y-168351252D01*
%TO.C,D11*%
X73450000Y-285910000D02*
X73450000Y-293210000D01*
X73450000Y-293210000D02*
X74600000Y-293210000D01*
X78950000Y-285910000D02*
X78950000Y-293210000D01*
%TO.C,C25*%
X98836903Y-288881199D02*
X98836903Y-290303703D01*
X100656903Y-288881199D02*
X100656903Y-290303703D01*
%TO.C,C6*%
X112755000Y-259791252D02*
X112755000Y-258368748D01*
X114575000Y-259791252D02*
X114575000Y-258368748D01*
%TO.C,C39*%
X51922000Y-76911252D02*
X51922000Y-75488748D01*
X53742000Y-76911252D02*
X53742000Y-75488748D01*
%TO.C,D4*%
X134410000Y-201770000D02*
X134410000Y-194470000D01*
X139910000Y-201770000D02*
X139910000Y-194470000D01*
X139910000Y-194470000D02*
X138760000Y-194470000D01*
%TO.C,D15*%
X73481965Y-171326093D02*
X74631965Y-171326093D01*
X73481965Y-164026093D02*
X73481965Y-171326093D01*
X78981965Y-164026093D02*
X78981965Y-171326093D01*
%TO.C,C28*%
X83714000Y-137871252D02*
X83714000Y-136448748D01*
X81894000Y-137871252D02*
X81894000Y-136448748D01*
%TD*%
M02*
