%TF.GenerationSoftware,KiCad,Pcbnew,(6.0.2)*%
%TF.CreationDate,2022-10-19T17:10:30-07:00*%
%TF.ProjectId,tetris,74657472-6973-42e6-9b69-6361645f7063,rev?*%
%TF.SameCoordinates,Original*%
%TF.FileFunction,Legend,Bot*%
%TF.FilePolarity,Positive*%
%FSLAX46Y46*%
G04 Gerber Fmt 4.6, Leading zero omitted, Abs format (unit mm)*
G04 Created by KiCad (PCBNEW (6.0.2)) date 2022-10-19 17:10:30*
%MOMM*%
%LPD*%
G01*
G04 APERTURE LIST*
%ADD10C,0.150000*%
%ADD11C,0.120000*%
G04 APERTURE END LIST*
D10*
%TO.C,J1*%
X15015333Y-302572380D02*
X15015333Y-303286666D01*
X15062952Y-303429523D01*
X15158190Y-303524761D01*
X15301047Y-303572380D01*
X15396285Y-303572380D01*
X14015333Y-303572380D02*
X14586761Y-303572380D01*
X14301047Y-303572380D02*
X14301047Y-302572380D01*
X14396285Y-302715238D01*
X14491523Y-302810476D01*
X14586761Y-302858095D01*
%TO.C,J2*%
X7424380Y-14946666D02*
X8138666Y-14946666D01*
X8281523Y-14899047D01*
X8376761Y-14803809D01*
X8424380Y-14660952D01*
X8424380Y-14565714D01*
X7519619Y-15375238D02*
X7472000Y-15422857D01*
X7424380Y-15518095D01*
X7424380Y-15756190D01*
X7472000Y-15851428D01*
X7519619Y-15899047D01*
X7614857Y-15946666D01*
X7710095Y-15946666D01*
X7852952Y-15899047D01*
X8424380Y-15327619D01*
X8424380Y-15946666D01*
D11*
%TO.C,J1*%
X10832000Y-302370000D02*
X18632000Y-302370000D01*
X18632000Y-296320000D02*
X10832000Y-296320000D01*
X17262000Y-297430000D02*
X17262000Y-296420000D01*
X18632000Y-302370000D02*
X18632000Y-296320000D01*
X12182000Y-296420000D02*
X12182000Y-297430000D01*
X10832000Y-296320000D02*
X10832000Y-302370000D01*
X12182000Y-297430000D02*
X17262000Y-297430000D01*
%TO.C,J2*%
X2282000Y-12700000D02*
X1272000Y-12700000D01*
X7222000Y-11330000D02*
X1172000Y-11330000D01*
X2282000Y-17780000D02*
X2282000Y-12700000D01*
X7222000Y-19130000D02*
X7222000Y-11330000D01*
X1172000Y-11330000D02*
X1172000Y-19130000D01*
X1272000Y-17780000D02*
X2282000Y-17780000D01*
X1172000Y-19130000D02*
X7222000Y-19130000D01*
%TD*%
M02*
