%TF.GenerationSoftware,KiCad,Pcbnew,(6.0.2)*%
%TF.CreationDate,2022-10-19T17:10:30-07:00*%
%TF.ProjectId,tetris,74657472-6973-42e6-9b69-6361645f7063,rev?*%
%TF.SameCoordinates,Original*%
%TF.FileFunction,Paste,Top*%
%TF.FilePolarity,Positive*%
%FSLAX46Y46*%
G04 Gerber Fmt 4.6, Leading zero omitted, Abs format (unit mm)*
G04 Created by KiCad (PCBNEW (6.0.2)) date 2022-10-19 17:10:30*
%MOMM*%
%LPD*%
G01*
G04 APERTURE LIST*
G04 Aperture macros list*
%AMRoundRect*
0 Rectangle with rounded corners*
0 $1 Rounding radius*
0 $2 $3 $4 $5 $6 $7 $8 $9 X,Y pos of 4 corners*
0 Add a 4 corners polygon primitive as box body*
4,1,4,$2,$3,$4,$5,$6,$7,$8,$9,$2,$3,0*
0 Add four circle primitives for the rounded corners*
1,1,$1+$1,$2,$3*
1,1,$1+$1,$4,$5*
1,1,$1+$1,$6,$7*
1,1,$1+$1,$8,$9*
0 Add four rect primitives between the rounded corners*
20,1,$1+$1,$2,$3,$4,$5,0*
20,1,$1+$1,$4,$5,$6,$7,0*
20,1,$1+$1,$6,$7,$8,$9,0*
20,1,$1+$1,$8,$9,$2,$3,0*%
G04 Aperture macros list end*
%ADD10RoundRect,0.250000X0.650000X-0.325000X0.650000X0.325000X-0.650000X0.325000X-0.650000X-0.325000X0*%
%ADD11RoundRect,0.250000X-0.650000X0.325000X-0.650000X-0.325000X0.650000X-0.325000X0.650000X0.325000X0*%
%ADD12R,1.000000X1.500000*%
G04 APERTURE END LIST*
D10*
%TO.C,C18*%
X22352000Y-200103000D03*
X22352000Y-197153000D03*
%TD*%
D11*
%TO.C,C24*%
X131572000Y-227125000D03*
X131572000Y-230075000D03*
%TD*%
D12*
%TO.C,D48*%
X74600000Y-17690000D03*
X77800000Y-17690000D03*
X77800000Y-12790000D03*
X74600000Y-12790000D03*
%TD*%
D11*
%TO.C,C32*%
X39116000Y-105205000D03*
X39116000Y-108155000D03*
%TD*%
D12*
%TO.C,D25*%
X138760000Y-165190000D03*
X135560000Y-165190000D03*
X135560000Y-170090000D03*
X138760000Y-170090000D03*
%TD*%
D11*
%TO.C,C20*%
X39116000Y-166165000D03*
X39116000Y-169115000D03*
%TD*%
D12*
%TO.C,D22*%
X13675148Y-261612702D03*
X16875148Y-261612702D03*
X16875148Y-256712702D03*
X13675148Y-256712702D03*
%TD*%
D10*
%TO.C,C27*%
X113284000Y-138635000D03*
X113284000Y-135685000D03*
%TD*%
%TO.C,C16*%
X83361000Y-199595000D03*
X83361000Y-196645000D03*
%TD*%
D12*
%TO.C,D45*%
X138760000Y-43270000D03*
X135560000Y-43270000D03*
X135560000Y-48170000D03*
X138760000Y-48170000D03*
%TD*%
D11*
%TO.C,C23*%
X130048000Y-166165000D03*
X130048000Y-169115000D03*
%TD*%
D10*
%TO.C,C26*%
X141224000Y-138635000D03*
X141224000Y-135685000D03*
%TD*%
D12*
%TO.C,D2*%
X135560000Y-261530000D03*
X138760000Y-261530000D03*
X138760000Y-256630000D03*
X135560000Y-256630000D03*
%TD*%
%TO.C,D17*%
X44120000Y-261530000D03*
X47320000Y-261530000D03*
X47320000Y-256630000D03*
X44120000Y-256630000D03*
%TD*%
%TO.C,D41*%
X16840000Y-43270000D03*
X13640000Y-43270000D03*
X13640000Y-48170000D03*
X16840000Y-48170000D03*
%TD*%
%TO.C,D16*%
X108280000Y-287110000D03*
X105080000Y-287110000D03*
X105080000Y-292010000D03*
X108280000Y-292010000D03*
%TD*%
D11*
%TO.C,C45*%
X129540000Y-44245000D03*
X129540000Y-47195000D03*
%TD*%
D12*
%TO.C,D50*%
X13640000Y-17690000D03*
X16840000Y-17690000D03*
X16840000Y-12790000D03*
X13640000Y-12790000D03*
%TD*%
%TO.C,D37*%
X105080000Y-78650000D03*
X108280000Y-78650000D03*
X108280000Y-73750000D03*
X105080000Y-73750000D03*
%TD*%
D10*
%TO.C,C15*%
X114300000Y-200103000D03*
X114300000Y-197153000D03*
%TD*%
D11*
%TO.C,C35*%
X130556000Y-105205000D03*
X130556000Y-108155000D03*
%TD*%
D12*
%TO.C,D24*%
X13640000Y-200570000D03*
X16840000Y-200570000D03*
X16840000Y-195670000D03*
X13640000Y-195670000D03*
%TD*%
D11*
%TO.C,C31*%
X8128000Y-105205000D03*
X8128000Y-108155000D03*
%TD*%
D12*
%TO.C,D43*%
X77800000Y-43270000D03*
X74600000Y-43270000D03*
X74600000Y-48170000D03*
X77800000Y-48170000D03*
%TD*%
D10*
%TO.C,C46*%
X144272000Y-16715000D03*
X144272000Y-13765000D03*
%TD*%
D12*
%TO.C,D32*%
X47320000Y-104230000D03*
X44120000Y-104230000D03*
X44120000Y-109130000D03*
X47320000Y-109130000D03*
%TD*%
D10*
%TO.C,C30*%
X21844000Y-139143000D03*
X21844000Y-136193000D03*
%TD*%
D11*
%TO.C,C21*%
X69088000Y-166165000D03*
X69088000Y-169115000D03*
%TD*%
D10*
%TO.C,C36*%
X144272000Y-77675000D03*
X144272000Y-74725000D03*
%TD*%
D12*
%TO.C,D33*%
X77800000Y-104230000D03*
X74600000Y-104230000D03*
X74600000Y-109130000D03*
X77800000Y-109130000D03*
%TD*%
%TO.C,D6*%
X47320000Y-287110000D03*
X44120000Y-287110000D03*
X44120000Y-292010000D03*
X47320000Y-292010000D03*
%TD*%
D10*
%TO.C,C17*%
X52832000Y-200103000D03*
X52832000Y-197153000D03*
%TD*%
D12*
%TO.C,D20*%
X108280000Y-165190000D03*
X105080000Y-165190000D03*
X105080000Y-170090000D03*
X108280000Y-170090000D03*
%TD*%
D11*
%TO.C,C12*%
X70612000Y-227125000D03*
X70612000Y-230075000D03*
%TD*%
D12*
%TO.C,D34*%
X108280000Y-104230000D03*
X105080000Y-104230000D03*
X105080000Y-109130000D03*
X108280000Y-109130000D03*
%TD*%
%TO.C,D49*%
X44120000Y-17690000D03*
X47320000Y-17690000D03*
X47320000Y-12790000D03*
X44120000Y-12790000D03*
%TD*%
D11*
%TO.C,C13*%
X101092000Y-227125000D03*
X101092000Y-230075000D03*
%TD*%
%TO.C,C33*%
X69596000Y-105205000D03*
X69596000Y-108155000D03*
%TD*%
D12*
%TO.C,D27*%
X104572000Y-139610000D03*
X107772000Y-139610000D03*
X107772000Y-134710000D03*
X104572000Y-134710000D03*
%TD*%
%TO.C,D40*%
X13640000Y-78650000D03*
X16840000Y-78650000D03*
X16840000Y-73750000D03*
X13640000Y-73750000D03*
%TD*%
%TO.C,D14*%
X74600000Y-200570000D03*
X77800000Y-200570000D03*
X77800000Y-195670000D03*
X74600000Y-195670000D03*
%TD*%
D11*
%TO.C,C10*%
X10160000Y-227125000D03*
X10160000Y-230075000D03*
%TD*%
D12*
%TO.C,D7*%
X105080000Y-261530000D03*
X108280000Y-261530000D03*
X108280000Y-256630000D03*
X105080000Y-256630000D03*
%TD*%
D10*
%TO.C,C29*%
X52832000Y-138635000D03*
X52832000Y-135685000D03*
%TD*%
D12*
%TO.C,D8*%
X47320000Y-226150000D03*
X44120000Y-226150000D03*
X44120000Y-231050000D03*
X47320000Y-231050000D03*
%TD*%
%TO.C,D1*%
X16840000Y-287110000D03*
X13640000Y-287110000D03*
X13640000Y-292010000D03*
X16840000Y-292010000D03*
%TD*%
D10*
%TO.C,C14*%
X144184097Y-199924527D03*
X144184097Y-196974527D03*
%TD*%
D12*
%TO.C,D42*%
X47320000Y-43270000D03*
X44120000Y-43270000D03*
X44120000Y-48170000D03*
X47320000Y-48170000D03*
%TD*%
D11*
%TO.C,C22*%
X99568000Y-166165000D03*
X99568000Y-169115000D03*
%TD*%
D12*
%TO.C,D5*%
X16840000Y-165190000D03*
X13640000Y-165190000D03*
X13640000Y-170090000D03*
X16840000Y-170090000D03*
%TD*%
%TO.C,D39*%
X44120000Y-78650000D03*
X47320000Y-78650000D03*
X47320000Y-73750000D03*
X44120000Y-73750000D03*
%TD*%
%TO.C,D18*%
X108280000Y-226150000D03*
X105080000Y-226150000D03*
X105080000Y-231050000D03*
X108280000Y-231050000D03*
%TD*%
D10*
%TO.C,C47*%
X113792000Y-17223000D03*
X113792000Y-14273000D03*
%TD*%
D11*
%TO.C,C44*%
X99060000Y-44245000D03*
X99060000Y-47195000D03*
%TD*%
D12*
%TO.C,D13*%
X77800000Y-226150000D03*
X74600000Y-226150000D03*
X74600000Y-231050000D03*
X77800000Y-231050000D03*
%TD*%
%TO.C,D36*%
X135560000Y-78650000D03*
X138760000Y-78650000D03*
X138760000Y-73750000D03*
X135560000Y-73750000D03*
%TD*%
%TO.C,D10*%
X47320000Y-165190000D03*
X44120000Y-165190000D03*
X44120000Y-170090000D03*
X47320000Y-170090000D03*
%TD*%
%TO.C,D26*%
X132930000Y-139534000D03*
X136130000Y-139534000D03*
X136130000Y-134634000D03*
X132930000Y-134634000D03*
%TD*%
D10*
%TO.C,C40*%
X22352000Y-77675000D03*
X22352000Y-74725000D03*
%TD*%
D12*
%TO.C,D47*%
X105080000Y-17690000D03*
X108280000Y-17690000D03*
X108280000Y-12790000D03*
X105080000Y-12790000D03*
%TD*%
%TO.C,D21*%
X138760000Y-287110000D03*
X135560000Y-287110000D03*
X135560000Y-292010000D03*
X138760000Y-292010000D03*
%TD*%
%TO.C,D23*%
X138760000Y-226150000D03*
X135560000Y-226150000D03*
X135560000Y-231050000D03*
X138760000Y-231050000D03*
%TD*%
D11*
%TO.C,C2*%
X38735000Y-288085000D03*
X38735000Y-291035000D03*
%TD*%
%TO.C,C43*%
X69054306Y-44196225D03*
X69054306Y-47146225D03*
%TD*%
D12*
%TO.C,D12*%
X74600000Y-261530000D03*
X77800000Y-261530000D03*
X77800000Y-256630000D03*
X74600000Y-256630000D03*
%TD*%
D10*
%TO.C,C8*%
X51816000Y-260555000D03*
X51816000Y-257605000D03*
%TD*%
D11*
%TO.C,C34*%
X100076000Y-105205000D03*
X100076000Y-108155000D03*
%TD*%
D12*
%TO.C,D31*%
X16840000Y-104230000D03*
X13640000Y-104230000D03*
X13640000Y-109130000D03*
X16840000Y-109130000D03*
%TD*%
%TO.C,D30*%
X13640000Y-139610000D03*
X16840000Y-139610000D03*
X16840000Y-134710000D03*
X13640000Y-134710000D03*
%TD*%
D10*
%TO.C,C37*%
X114300000Y-77675000D03*
X114300000Y-74725000D03*
%TD*%
D11*
%TO.C,C41*%
X8128000Y-44245000D03*
X8128000Y-47195000D03*
%TD*%
D12*
%TO.C,D19*%
X44120000Y-200570000D03*
X47320000Y-200570000D03*
X47320000Y-195670000D03*
X44120000Y-195670000D03*
%TD*%
D11*
%TO.C,C1*%
X8890000Y-288085000D03*
X8890000Y-291035000D03*
%TD*%
D12*
%TO.C,D29*%
X44120000Y-139610000D03*
X47320000Y-139610000D03*
X47320000Y-134710000D03*
X44120000Y-134710000D03*
%TD*%
D10*
%TO.C,C38*%
X83312000Y-77675000D03*
X83312000Y-74725000D03*
%TD*%
%TO.C,C49*%
X53340000Y-16715000D03*
X53340000Y-13765000D03*
%TD*%
D11*
%TO.C,C4*%
X130810000Y-288085000D03*
X130810000Y-291035000D03*
%TD*%
D10*
%TO.C,C5*%
X143510000Y-260555000D03*
X143510000Y-257605000D03*
%TD*%
%TO.C,C9*%
X21844000Y-260604000D03*
X21844000Y-257654000D03*
%TD*%
D12*
%TO.C,D46*%
X135560000Y-17690000D03*
X138760000Y-17690000D03*
X138760000Y-12790000D03*
X135560000Y-12790000D03*
%TD*%
%TO.C,D3*%
X16840000Y-226150000D03*
X13640000Y-226150000D03*
X13640000Y-231050000D03*
X16840000Y-231050000D03*
%TD*%
D11*
%TO.C,C11*%
X40132000Y-227125000D03*
X40132000Y-230075000D03*
%TD*%
D12*
%TO.C,D38*%
X74600000Y-78650000D03*
X77800000Y-78650000D03*
X77800000Y-73750000D03*
X74600000Y-73750000D03*
%TD*%
%TO.C,D28*%
X74600000Y-139610000D03*
X77800000Y-139610000D03*
X77800000Y-134710000D03*
X74600000Y-134710000D03*
%TD*%
D11*
%TO.C,C3*%
X68580000Y-288085000D03*
X68580000Y-291035000D03*
%TD*%
D10*
%TO.C,C50*%
X22811000Y-16715000D03*
X22811000Y-13765000D03*
%TD*%
D12*
%TO.C,D44*%
X108280000Y-43270000D03*
X105080000Y-43270000D03*
X105080000Y-48170000D03*
X108280000Y-48170000D03*
%TD*%
D11*
%TO.C,C42*%
X38100000Y-44245000D03*
X38100000Y-47195000D03*
%TD*%
D12*
%TO.C,D35*%
X138760000Y-104230000D03*
X135560000Y-104230000D03*
X135560000Y-109130000D03*
X138760000Y-109130000D03*
%TD*%
D10*
%TO.C,C7*%
X83312000Y-260555000D03*
X83312000Y-257605000D03*
%TD*%
%TO.C,C48*%
X83820000Y-17223000D03*
X83820000Y-14273000D03*
%TD*%
D12*
%TO.C,D9*%
X105080000Y-200570000D03*
X108280000Y-200570000D03*
X108280000Y-195670000D03*
X105080000Y-195670000D03*
%TD*%
D11*
%TO.C,C19*%
X8636000Y-166165000D03*
X8636000Y-169115000D03*
%TD*%
D12*
%TO.C,D11*%
X77800000Y-287110000D03*
X74600000Y-287110000D03*
X74600000Y-292010000D03*
X77800000Y-292010000D03*
%TD*%
D11*
%TO.C,C25*%
X99746903Y-288117451D03*
X99746903Y-291067451D03*
%TD*%
D10*
%TO.C,C6*%
X113665000Y-260555000D03*
X113665000Y-257605000D03*
%TD*%
%TO.C,C39*%
X52832000Y-77675000D03*
X52832000Y-74725000D03*
%TD*%
D12*
%TO.C,D4*%
X135560000Y-200570000D03*
X138760000Y-200570000D03*
X138760000Y-195670000D03*
X135560000Y-195670000D03*
%TD*%
%TO.C,D15*%
X77831965Y-165226093D03*
X74631965Y-165226093D03*
X74631965Y-170126093D03*
X77831965Y-170126093D03*
%TD*%
D10*
%TO.C,C28*%
X82804000Y-138635000D03*
X82804000Y-135685000D03*
%TD*%
M02*
