%TF.GenerationSoftware,KiCad,Pcbnew,(6.0.2)*%
%TF.CreationDate,2022-10-19T17:10:29-07:00*%
%TF.ProjectId,tetris,74657472-6973-42e6-9b69-6361645f7063,rev?*%
%TF.SameCoordinates,Original*%
%TF.FileFunction,Copper,L1,Top*%
%TF.FilePolarity,Positive*%
%FSLAX46Y46*%
G04 Gerber Fmt 4.6, Leading zero omitted, Abs format (unit mm)*
G04 Created by KiCad (PCBNEW (6.0.2)) date 2022-10-19 17:10:29*
%MOMM*%
%LPD*%
G01*
G04 APERTURE LIST*
G04 Aperture macros list*
%AMRoundRect*
0 Rectangle with rounded corners*
0 $1 Rounding radius*
0 $2 $3 $4 $5 $6 $7 $8 $9 X,Y pos of 4 corners*
0 Add a 4 corners polygon primitive as box body*
4,1,4,$2,$3,$4,$5,$6,$7,$8,$9,$2,$3,0*
0 Add four circle primitives for the rounded corners*
1,1,$1+$1,$2,$3*
1,1,$1+$1,$4,$5*
1,1,$1+$1,$6,$7*
1,1,$1+$1,$8,$9*
0 Add four rect primitives between the rounded corners*
20,1,$1+$1,$2,$3,$4,$5,0*
20,1,$1+$1,$4,$5,$6,$7,0*
20,1,$1+$1,$6,$7,$8,$9,0*
20,1,$1+$1,$8,$9,$2,$3,0*%
G04 Aperture macros list end*
%TA.AperFunction,SMDPad,CuDef*%
%ADD10RoundRect,0.250000X0.650000X-0.325000X0.650000X0.325000X-0.650000X0.325000X-0.650000X-0.325000X0*%
%TD*%
%TA.AperFunction,SMDPad,CuDef*%
%ADD11RoundRect,0.250000X-0.650000X0.325000X-0.650000X-0.325000X0.650000X-0.325000X0.650000X0.325000X0*%
%TD*%
%TA.AperFunction,SMDPad,CuDef*%
%ADD12R,1.000000X1.500000*%
%TD*%
%TA.AperFunction,ComponentPad*%
%ADD13R,1.730000X2.030000*%
%TD*%
%TA.AperFunction,ComponentPad*%
%ADD14O,1.730000X2.030000*%
%TD*%
%TA.AperFunction,ComponentPad*%
%ADD15R,2.030000X1.730000*%
%TD*%
%TA.AperFunction,ComponentPad*%
%ADD16O,2.030000X1.730000*%
%TD*%
%TA.AperFunction,ViaPad*%
%ADD17C,1.200000*%
%TD*%
%TA.AperFunction,Conductor*%
%ADD18C,0.250000*%
%TD*%
%TA.AperFunction,Conductor*%
%ADD19C,1.270000*%
%TD*%
%TA.AperFunction,Conductor*%
%ADD20C,0.508000*%
%TD*%
%TA.AperFunction,Conductor*%
%ADD21C,0.762000*%
%TD*%
G04 APERTURE END LIST*
D10*
%TO.P,C18,1*%
%TO.N,+5V*%
X22352000Y-200103000D03*
%TO.P,C18,2*%
%TO.N,GND*%
X22352000Y-197153000D03*
%TD*%
D11*
%TO.P,C24,1*%
%TO.N,+5V*%
X131572000Y-227125000D03*
%TO.P,C24,2*%
%TO.N,GND*%
X131572000Y-230075000D03*
%TD*%
D12*
%TO.P,D48,1,VDD*%
%TO.N,+5V*%
X74600000Y-17690000D03*
%TO.P,D48,2,DOUT*%
%TO.N,Net-(D48-Pad2)*%
X77800000Y-17690000D03*
%TO.P,D48,3,VSS*%
%TO.N,GND*%
X77800000Y-12790000D03*
%TO.P,D48,4,DIN*%
%TO.N,Net-(D47-Pad2)*%
X74600000Y-12790000D03*
%TD*%
D11*
%TO.P,C32,1*%
%TO.N,+5V*%
X39116000Y-105205000D03*
%TO.P,C32,2*%
%TO.N,GND*%
X39116000Y-108155000D03*
%TD*%
D12*
%TO.P,D25,1,VDD*%
%TO.N,+5V*%
X138760000Y-165190000D03*
%TO.P,D25,2,DOUT*%
%TO.N,Net-(D25-Pad2)*%
X135560000Y-165190000D03*
%TO.P,D25,3,VSS*%
%TO.N,GND*%
X135560000Y-170090000D03*
%TO.P,D25,4,DIN*%
%TO.N,Net-(D20-Pad2)*%
X138760000Y-170090000D03*
%TD*%
D11*
%TO.P,C20,1*%
%TO.N,+5V*%
X39116000Y-166165000D03*
%TO.P,C20,2*%
%TO.N,GND*%
X39116000Y-169115000D03*
%TD*%
D12*
%TO.P,D22,1,VDD*%
%TO.N,+5V*%
X13675148Y-261612702D03*
%TO.P,D22,2,DOUT*%
%TO.N,Net-(D22-Pad2)*%
X16875148Y-261612702D03*
%TO.P,D22,3,VSS*%
%TO.N,GND*%
X16875148Y-256712702D03*
%TO.P,D22,4,DIN*%
%TO.N,Net-(D17-Pad2)*%
X13675148Y-256712702D03*
%TD*%
D10*
%TO.P,C27,1*%
%TO.N,+5V*%
X113284000Y-138635000D03*
%TO.P,C27,2*%
%TO.N,GND*%
X113284000Y-135685000D03*
%TD*%
%TO.P,C16,1*%
%TO.N,+5V*%
X83361000Y-199595000D03*
%TO.P,C16,2*%
%TO.N,GND*%
X83361000Y-196645000D03*
%TD*%
D12*
%TO.P,D45,1,VDD*%
%TO.N,+5V*%
X138760000Y-43270000D03*
%TO.P,D45,2,DOUT*%
%TO.N,Net-(D46-Pad4)*%
X135560000Y-43270000D03*
%TO.P,D45,3,VSS*%
%TO.N,GND*%
X135560000Y-48170000D03*
%TO.P,D45,4,DIN*%
%TO.N,Net-(D44-Pad2)*%
X138760000Y-48170000D03*
%TD*%
D11*
%TO.P,C23,1*%
%TO.N,+5V*%
X130048000Y-166165000D03*
%TO.P,C23,2*%
%TO.N,GND*%
X130048000Y-169115000D03*
%TD*%
D10*
%TO.P,C26,1*%
%TO.N,+5V*%
X141224000Y-138635000D03*
%TO.P,C26,2*%
%TO.N,GND*%
X141224000Y-135685000D03*
%TD*%
D12*
%TO.P,D2,1,VDD*%
%TO.N,+5V*%
X135560000Y-261530000D03*
%TO.P,D2,2,DOUT*%
%TO.N,Net-(D2-Pad2)*%
X138760000Y-261530000D03*
%TO.P,D2,3,VSS*%
%TO.N,GND*%
X138760000Y-256630000D03*
%TO.P,D2,4,DIN*%
%TO.N,Net-(D2-Pad4)*%
X135560000Y-256630000D03*
%TD*%
%TO.P,D17,1,VDD*%
%TO.N,+5V*%
X44120000Y-261530000D03*
%TO.P,D17,2,DOUT*%
%TO.N,Net-(D17-Pad2)*%
X47320000Y-261530000D03*
%TO.P,D17,3,VSS*%
%TO.N,GND*%
X47320000Y-256630000D03*
%TO.P,D17,4,DIN*%
%TO.N,+5V*%
X44120000Y-256630000D03*
%TD*%
%TO.P,D41,1,VDD*%
%TO.N,+5V*%
X16840000Y-43270000D03*
%TO.P,D41,2,DOUT*%
%TO.N,Net-(D41-Pad2)*%
X13640000Y-43270000D03*
%TO.P,D41,3,VSS*%
%TO.N,GND*%
X13640000Y-48170000D03*
%TO.P,D41,4,DIN*%
%TO.N,Net-(D41-Pad4)*%
X16840000Y-48170000D03*
%TD*%
%TO.P,D16,1,VDD*%
%TO.N,+5V*%
X108280000Y-287110000D03*
%TO.P,D16,2,DOUT*%
%TO.N,Net-(D16-Pad2)*%
X105080000Y-287110000D03*
%TO.P,D16,3,VSS*%
%TO.N,GND*%
X105080000Y-292010000D03*
%TO.P,D16,4,DIN*%
%TO.N,Net-(D11-Pad2)*%
X108280000Y-292010000D03*
%TD*%
D11*
%TO.P,C45,1*%
%TO.N,+5V*%
X129540000Y-44245000D03*
%TO.P,C45,2*%
%TO.N,GND*%
X129540000Y-47195000D03*
%TD*%
D12*
%TO.P,D50,1,VDD*%
%TO.N,+5V*%
X13640000Y-17690000D03*
%TO.P,D50,2,DOUT*%
%TO.N,Net-(D50-Pad2)*%
X16840000Y-17690000D03*
%TO.P,D50,3,VSS*%
%TO.N,GND*%
X16840000Y-12790000D03*
%TO.P,D50,4,DIN*%
%TO.N,Net-(D49-Pad2)*%
X13640000Y-12790000D03*
%TD*%
%TO.P,D37,1,VDD*%
%TO.N,+5V*%
X105080000Y-78650000D03*
%TO.P,D37,2,DOUT*%
%TO.N,Net-(D37-Pad2)*%
X108280000Y-78650000D03*
%TO.P,D37,3,VSS*%
%TO.N,GND*%
X108280000Y-73750000D03*
%TO.P,D37,4,DIN*%
%TO.N,Net-(D36-Pad2)*%
X105080000Y-73750000D03*
%TD*%
D10*
%TO.P,C15,1*%
%TO.N,+5V*%
X114300000Y-200103000D03*
%TO.P,C15,2*%
%TO.N,GND*%
X114300000Y-197153000D03*
%TD*%
D11*
%TO.P,C35,1*%
%TO.N,+5V*%
X130556000Y-105205000D03*
%TO.P,C35,2*%
%TO.N,GND*%
X130556000Y-108155000D03*
%TD*%
D12*
%TO.P,D24,1,VDD*%
%TO.N,+5V*%
X13640000Y-200570000D03*
%TO.P,D24,2,DOUT*%
%TO.N,Net-(D24-Pad2)*%
X16840000Y-200570000D03*
%TO.P,D24,3,VSS*%
%TO.N,GND*%
X16840000Y-195670000D03*
%TO.P,D24,4,DIN*%
%TO.N,Net-(D19-Pad2)*%
X13640000Y-195670000D03*
%TD*%
D11*
%TO.P,C31,1*%
%TO.N,+5V*%
X8128000Y-105205000D03*
%TO.P,C31,2*%
%TO.N,GND*%
X8128000Y-108155000D03*
%TD*%
D12*
%TO.P,D43,1,VDD*%
%TO.N,+5V*%
X77800000Y-43270000D03*
%TO.P,D43,2,DOUT*%
%TO.N,Net-(D43-Pad2)*%
X74600000Y-43270000D03*
%TO.P,D43,3,VSS*%
%TO.N,GND*%
X74600000Y-48170000D03*
%TO.P,D43,4,DIN*%
%TO.N,Net-(D42-Pad2)*%
X77800000Y-48170000D03*
%TD*%
D10*
%TO.P,C46,1*%
%TO.N,+5V*%
X144272000Y-16715000D03*
%TO.P,C46,2*%
%TO.N,GND*%
X144272000Y-13765000D03*
%TD*%
D12*
%TO.P,D32,1,VDD*%
%TO.N,+5V*%
X47320000Y-104230000D03*
%TO.P,D32,2,DOUT*%
%TO.N,Net-(D32-Pad2)*%
X44120000Y-104230000D03*
%TO.P,D32,3,VSS*%
%TO.N,GND*%
X44120000Y-109130000D03*
%TO.P,D32,4,DIN*%
%TO.N,Net-(D31-Pad2)*%
X47320000Y-109130000D03*
%TD*%
D10*
%TO.P,C30,1*%
%TO.N,+5V*%
X21844000Y-139143000D03*
%TO.P,C30,2*%
%TO.N,GND*%
X21844000Y-136193000D03*
%TD*%
D11*
%TO.P,C21,1*%
%TO.N,+5V*%
X69088000Y-166165000D03*
%TO.P,C21,2*%
%TO.N,GND*%
X69088000Y-169115000D03*
%TD*%
D10*
%TO.P,C36,1*%
%TO.N,+5V*%
X144272000Y-77675000D03*
%TO.P,C36,2*%
%TO.N,GND*%
X144272000Y-74725000D03*
%TD*%
D12*
%TO.P,D33,1,VDD*%
%TO.N,+5V*%
X77800000Y-104230000D03*
%TO.P,D33,2,DOUT*%
%TO.N,Net-(D33-Pad2)*%
X74600000Y-104230000D03*
%TO.P,D33,3,VSS*%
%TO.N,GND*%
X74600000Y-109130000D03*
%TO.P,D33,4,DIN*%
%TO.N,Net-(D32-Pad2)*%
X77800000Y-109130000D03*
%TD*%
%TO.P,D6,1,VDD*%
%TO.N,+5V*%
X47320000Y-287110000D03*
%TO.P,D6,2,DOUT*%
%TO.N,Net-(D11-Pad4)*%
X44120000Y-287110000D03*
%TO.P,D6,3,VSS*%
%TO.N,GND*%
X44120000Y-292010000D03*
%TO.P,D6,4,DIN*%
%TO.N,Net-(D1-Pad2)*%
X47320000Y-292010000D03*
%TD*%
D10*
%TO.P,C17,1*%
%TO.N,+5V*%
X52832000Y-200103000D03*
%TO.P,C17,2*%
%TO.N,GND*%
X52832000Y-197153000D03*
%TD*%
D12*
%TO.P,D20,1,VDD*%
%TO.N,+5V*%
X108280000Y-165190000D03*
%TO.P,D20,2,DOUT*%
%TO.N,Net-(D20-Pad2)*%
X105080000Y-165190000D03*
%TO.P,D20,3,VSS*%
%TO.N,GND*%
X105080000Y-170090000D03*
%TO.P,D20,4,DIN*%
%TO.N,Net-(D15-Pad2)*%
X108280000Y-170090000D03*
%TD*%
D11*
%TO.P,C12,1*%
%TO.N,+5V*%
X70612000Y-227125000D03*
%TO.P,C12,2*%
%TO.N,GND*%
X70612000Y-230075000D03*
%TD*%
D12*
%TO.P,D34,1,VDD*%
%TO.N,+5V*%
X108280000Y-104230000D03*
%TO.P,D34,2,DOUT*%
%TO.N,Net-(D34-Pad2)*%
X105080000Y-104230000D03*
%TO.P,D34,3,VSS*%
%TO.N,GND*%
X105080000Y-109130000D03*
%TO.P,D34,4,DIN*%
%TO.N,Net-(D33-Pad2)*%
X108280000Y-109130000D03*
%TD*%
%TO.P,D49,1,VDD*%
%TO.N,+5V*%
X44120000Y-17690000D03*
%TO.P,D49,2,DOUT*%
%TO.N,Net-(D49-Pad2)*%
X47320000Y-17690000D03*
%TO.P,D49,3,VSS*%
%TO.N,GND*%
X47320000Y-12790000D03*
%TO.P,D49,4,DIN*%
%TO.N,Net-(D48-Pad2)*%
X44120000Y-12790000D03*
%TD*%
D11*
%TO.P,C13,1*%
%TO.N,+5V*%
X101092000Y-227125000D03*
%TO.P,C13,2*%
%TO.N,GND*%
X101092000Y-230075000D03*
%TD*%
%TO.P,C33,1*%
%TO.N,+5V*%
X69596000Y-105205000D03*
%TO.P,C33,2*%
%TO.N,GND*%
X69596000Y-108155000D03*
%TD*%
D12*
%TO.P,D27,1,VDD*%
%TO.N,+5V*%
X104572000Y-139610000D03*
%TO.P,D27,2,DOUT*%
%TO.N,Net-(D27-Pad2)*%
X107772000Y-139610000D03*
%TO.P,D27,3,VSS*%
%TO.N,GND*%
X107772000Y-134710000D03*
%TO.P,D27,4,DIN*%
%TO.N,Net-(D26-Pad2)*%
X104572000Y-134710000D03*
%TD*%
%TO.P,D40,1,VDD*%
%TO.N,+5V*%
X13640000Y-78650000D03*
%TO.P,D40,2,DOUT*%
%TO.N,Net-(D41-Pad4)*%
X16840000Y-78650000D03*
%TO.P,D40,3,VSS*%
%TO.N,GND*%
X16840000Y-73750000D03*
%TO.P,D40,4,DIN*%
%TO.N,Net-(D39-Pad2)*%
X13640000Y-73750000D03*
%TD*%
%TO.P,D14,1,VDD*%
%TO.N,+5V*%
X74600000Y-200570000D03*
%TO.P,D14,2,DOUT*%
%TO.N,Net-(D14-Pad2)*%
X77800000Y-200570000D03*
%TO.P,D14,3,VSS*%
%TO.N,GND*%
X77800000Y-195670000D03*
%TO.P,D14,4,DIN*%
%TO.N,Net-(D14-Pad4)*%
X74600000Y-195670000D03*
%TD*%
D11*
%TO.P,C10,1*%
%TO.N,+5V*%
X10160000Y-227125000D03*
%TO.P,C10,2*%
%TO.N,GND*%
X10160000Y-230075000D03*
%TD*%
D12*
%TO.P,D7,1,VDD*%
%TO.N,+5V*%
X105080000Y-261530000D03*
%TO.P,D7,2,DOUT*%
%TO.N,Net-(D12-Pad4)*%
X108280000Y-261530000D03*
%TO.P,D7,3,VSS*%
%TO.N,GND*%
X108280000Y-256630000D03*
%TO.P,D7,4,DIN*%
%TO.N,Net-(D2-Pad2)*%
X105080000Y-256630000D03*
%TD*%
D10*
%TO.P,C29,1*%
%TO.N,+5V*%
X52832000Y-138635000D03*
%TO.P,C29,2*%
%TO.N,GND*%
X52832000Y-135685000D03*
%TD*%
D12*
%TO.P,D8,1,VDD*%
%TO.N,+5V*%
X47320000Y-226150000D03*
%TO.P,D8,2,DOUT*%
%TO.N,Net-(D13-Pad4)*%
X44120000Y-226150000D03*
%TO.P,D8,3,VSS*%
%TO.N,GND*%
X44120000Y-231050000D03*
%TO.P,D8,4,DIN*%
%TO.N,Net-(D3-Pad2)*%
X47320000Y-231050000D03*
%TD*%
%TO.P,D1,1,VDD*%
%TO.N,+5V*%
X16840000Y-287110000D03*
%TO.P,D1,2,DOUT*%
%TO.N,Net-(D1-Pad2)*%
X13640000Y-287110000D03*
%TO.P,D1,3,VSS*%
%TO.N,GND*%
X13640000Y-292010000D03*
%TO.P,D1,4,DIN*%
%TO.N,Net-(D1-Pad4)*%
X16840000Y-292010000D03*
%TD*%
D10*
%TO.P,C14,1*%
%TO.N,+5V*%
X144184097Y-199924527D03*
%TO.P,C14,2*%
%TO.N,GND*%
X144184097Y-196974527D03*
%TD*%
D12*
%TO.P,D42,1,VDD*%
%TO.N,+5V*%
X47320000Y-43270000D03*
%TO.P,D42,2,DOUT*%
%TO.N,Net-(D42-Pad2)*%
X44120000Y-43270000D03*
%TO.P,D42,3,VSS*%
%TO.N,GND*%
X44120000Y-48170000D03*
%TO.P,D42,4,DIN*%
%TO.N,Net-(D41-Pad2)*%
X47320000Y-48170000D03*
%TD*%
D11*
%TO.P,C22,1*%
%TO.N,+5V*%
X99568000Y-166165000D03*
%TO.P,C22,2*%
%TO.N,GND*%
X99568000Y-169115000D03*
%TD*%
D12*
%TO.P,D5,1,VDD*%
%TO.N,+5V*%
X16840000Y-165190000D03*
%TO.P,D5,2,DOUT*%
%TO.N,Net-(D10-Pad4)*%
X13640000Y-165190000D03*
%TO.P,D5,3,VSS*%
%TO.N,GND*%
X13640000Y-170090000D03*
%TO.P,D5,4,DIN*%
%TO.N,Net-(D24-Pad2)*%
X16840000Y-170090000D03*
%TD*%
%TO.P,D39,1,VDD*%
%TO.N,+5V*%
X44120000Y-78650000D03*
%TO.P,D39,2,DOUT*%
%TO.N,Net-(D39-Pad2)*%
X47320000Y-78650000D03*
%TO.P,D39,3,VSS*%
%TO.N,GND*%
X47320000Y-73750000D03*
%TO.P,D39,4,DIN*%
%TO.N,Net-(D38-Pad2)*%
X44120000Y-73750000D03*
%TD*%
%TO.P,D18,1,VDD*%
%TO.N,+5V*%
X108280000Y-226150000D03*
%TO.P,D18,2,DOUT*%
%TO.N,Net-(D18-Pad2)*%
X105080000Y-226150000D03*
%TO.P,D18,3,VSS*%
%TO.N,GND*%
X105080000Y-231050000D03*
%TO.P,D18,4,DIN*%
%TO.N,Net-(D13-Pad2)*%
X108280000Y-231050000D03*
%TD*%
D10*
%TO.P,C47,1*%
%TO.N,+5V*%
X113792000Y-17223000D03*
%TO.P,C47,2*%
%TO.N,GND*%
X113792000Y-14273000D03*
%TD*%
D11*
%TO.P,C44,1*%
%TO.N,+5V*%
X99060000Y-44245000D03*
%TO.P,C44,2*%
%TO.N,GND*%
X99060000Y-47195000D03*
%TD*%
D12*
%TO.P,D13,1,VDD*%
%TO.N,+5V*%
X77800000Y-226150000D03*
%TO.P,D13,2,DOUT*%
%TO.N,Net-(D13-Pad2)*%
X74600000Y-226150000D03*
%TO.P,D13,3,VSS*%
%TO.N,GND*%
X74600000Y-231050000D03*
%TO.P,D13,4,DIN*%
%TO.N,Net-(D13-Pad4)*%
X77800000Y-231050000D03*
%TD*%
%TO.P,D36,1,VDD*%
%TO.N,+5V*%
X135560000Y-78650000D03*
%TO.P,D36,2,DOUT*%
%TO.N,Net-(D36-Pad2)*%
X138760000Y-78650000D03*
%TO.P,D36,3,VSS*%
%TO.N,GND*%
X138760000Y-73750000D03*
%TO.P,D36,4,DIN*%
%TO.N,Net-(D36-Pad4)*%
X135560000Y-73750000D03*
%TD*%
%TO.P,D10,1,VDD*%
%TO.N,+5V*%
X47320000Y-165190000D03*
%TO.P,D10,2,DOUT*%
%TO.N,Net-(D10-Pad2)*%
X44120000Y-165190000D03*
%TO.P,D10,3,VSS*%
%TO.N,GND*%
X44120000Y-170090000D03*
%TO.P,D10,4,DIN*%
%TO.N,Net-(D10-Pad4)*%
X47320000Y-170090000D03*
%TD*%
%TO.P,D26,1,VDD*%
%TO.N,+5V*%
X132930000Y-139534000D03*
%TO.P,D26,2,DOUT*%
%TO.N,Net-(D26-Pad2)*%
X136130000Y-139534000D03*
%TO.P,D26,3,VSS*%
%TO.N,GND*%
X136130000Y-134634000D03*
%TO.P,D26,4,DIN*%
%TO.N,Net-(D25-Pad2)*%
X132930000Y-134634000D03*
%TD*%
D10*
%TO.P,C40,1*%
%TO.N,+5V*%
X22352000Y-77675000D03*
%TO.P,C40,2*%
%TO.N,GND*%
X22352000Y-74725000D03*
%TD*%
D12*
%TO.P,D47,1,VDD*%
%TO.N,+5V*%
X105080000Y-17690000D03*
%TO.P,D47,2,DOUT*%
%TO.N,Net-(D47-Pad2)*%
X108280000Y-17690000D03*
%TO.P,D47,3,VSS*%
%TO.N,GND*%
X108280000Y-12790000D03*
%TO.P,D47,4,DIN*%
%TO.N,Net-(D46-Pad2)*%
X105080000Y-12790000D03*
%TD*%
%TO.P,D21,1,VDD*%
%TO.N,+5V*%
X138760000Y-287110000D03*
%TO.P,D21,2,DOUT*%
%TO.N,Net-(D2-Pad4)*%
X135560000Y-287110000D03*
%TO.P,D21,3,VSS*%
%TO.N,GND*%
X135560000Y-292010000D03*
%TO.P,D21,4,DIN*%
%TO.N,Net-(D16-Pad2)*%
X138760000Y-292010000D03*
%TD*%
%TO.P,D23,1,VDD*%
%TO.N,+5V*%
X138760000Y-226150000D03*
%TO.P,D23,2,DOUT*%
%TO.N,Net-(D23-Pad2)*%
X135560000Y-226150000D03*
%TO.P,D23,3,VSS*%
%TO.N,GND*%
X135560000Y-231050000D03*
%TO.P,D23,4,DIN*%
%TO.N,Net-(D18-Pad2)*%
X138760000Y-231050000D03*
%TD*%
D11*
%TO.P,C2,1*%
%TO.N,+5V*%
X38735000Y-288085000D03*
%TO.P,C2,2*%
%TO.N,GND*%
X38735000Y-291035000D03*
%TD*%
%TO.P,C43,1*%
%TO.N,+5V*%
X69054306Y-44196225D03*
%TO.P,C43,2*%
%TO.N,GND*%
X69054306Y-47146225D03*
%TD*%
D12*
%TO.P,D12,1,VDD*%
%TO.N,+5V*%
X74600000Y-261530000D03*
%TO.P,D12,2,DOUT*%
X77800000Y-261530000D03*
%TO.P,D12,3,VSS*%
%TO.N,GND*%
X77800000Y-256630000D03*
%TO.P,D12,4,DIN*%
%TO.N,Net-(D12-Pad4)*%
X74600000Y-256630000D03*
%TD*%
D10*
%TO.P,C8,1*%
%TO.N,+5V*%
X51816000Y-260555000D03*
%TO.P,C8,2*%
%TO.N,GND*%
X51816000Y-257605000D03*
%TD*%
D11*
%TO.P,C34,1*%
%TO.N,+5V*%
X100076000Y-105205000D03*
%TO.P,C34,2*%
%TO.N,GND*%
X100076000Y-108155000D03*
%TD*%
D12*
%TO.P,D31,1,VDD*%
%TO.N,+5V*%
X16840000Y-104230000D03*
%TO.P,D31,2,DOUT*%
%TO.N,Net-(D31-Pad2)*%
X13640000Y-104230000D03*
%TO.P,D31,3,VSS*%
%TO.N,GND*%
X13640000Y-109130000D03*
%TO.P,D31,4,DIN*%
%TO.N,Net-(D31-Pad4)*%
X16840000Y-109130000D03*
%TD*%
%TO.P,D30,1,VDD*%
%TO.N,+5V*%
X13640000Y-139610000D03*
%TO.P,D30,2,DOUT*%
%TO.N,Net-(D31-Pad4)*%
X16840000Y-139610000D03*
%TO.P,D30,3,VSS*%
%TO.N,GND*%
X16840000Y-134710000D03*
%TO.P,D30,4,DIN*%
%TO.N,Net-(D29-Pad2)*%
X13640000Y-134710000D03*
%TD*%
D10*
%TO.P,C37,1*%
%TO.N,+5V*%
X114300000Y-77675000D03*
%TO.P,C37,2*%
%TO.N,GND*%
X114300000Y-74725000D03*
%TD*%
D11*
%TO.P,C41,1*%
%TO.N,+5V*%
X8128000Y-44245000D03*
%TO.P,C41,2*%
%TO.N,GND*%
X8128000Y-47195000D03*
%TD*%
D12*
%TO.P,D19,1,VDD*%
%TO.N,+5V*%
X44120000Y-200570000D03*
%TO.P,D19,2,DOUT*%
%TO.N,Net-(D19-Pad2)*%
X47320000Y-200570000D03*
%TO.P,D19,3,VSS*%
%TO.N,GND*%
X47320000Y-195670000D03*
%TO.P,D19,4,DIN*%
%TO.N,Net-(D14-Pad2)*%
X44120000Y-195670000D03*
%TD*%
D11*
%TO.P,C1,1*%
%TO.N,+5V*%
X8890000Y-288085000D03*
%TO.P,C1,2*%
%TO.N,GND*%
X8890000Y-291035000D03*
%TD*%
D12*
%TO.P,D29,1,VDD*%
%TO.N,+5V*%
X44120000Y-139610000D03*
%TO.P,D29,2,DOUT*%
%TO.N,Net-(D29-Pad2)*%
X47320000Y-139610000D03*
%TO.P,D29,3,VSS*%
%TO.N,GND*%
X47320000Y-134710000D03*
%TO.P,D29,4,DIN*%
%TO.N,Net-(D28-Pad2)*%
X44120000Y-134710000D03*
%TD*%
D10*
%TO.P,C38,1*%
%TO.N,+5V*%
X83312000Y-77675000D03*
%TO.P,C38,2*%
%TO.N,GND*%
X83312000Y-74725000D03*
%TD*%
%TO.P,C49,1*%
%TO.N,+5V*%
X53340000Y-16715000D03*
%TO.P,C49,2*%
%TO.N,GND*%
X53340000Y-13765000D03*
%TD*%
D11*
%TO.P,C4,1*%
%TO.N,+5V*%
X130810000Y-288085000D03*
%TO.P,C4,2*%
%TO.N,GND*%
X130810000Y-291035000D03*
%TD*%
D10*
%TO.P,C5,1*%
%TO.N,+5V*%
X143510000Y-260555000D03*
%TO.P,C5,2*%
%TO.N,GND*%
X143510000Y-257605000D03*
%TD*%
%TO.P,C9,1*%
%TO.N,+5V*%
X21844000Y-260604000D03*
%TO.P,C9,2*%
%TO.N,GND*%
X21844000Y-257654000D03*
%TD*%
D12*
%TO.P,D46,1,VDD*%
%TO.N,+5V*%
X135560000Y-17690000D03*
%TO.P,D46,2,DOUT*%
%TO.N,Net-(D46-Pad2)*%
X138760000Y-17690000D03*
%TO.P,D46,3,VSS*%
%TO.N,GND*%
X138760000Y-12790000D03*
%TO.P,D46,4,DIN*%
%TO.N,Net-(D46-Pad4)*%
X135560000Y-12790000D03*
%TD*%
%TO.P,D3,1,VDD*%
%TO.N,+5V*%
X16840000Y-226150000D03*
%TO.P,D3,2,DOUT*%
%TO.N,Net-(D3-Pad2)*%
X13640000Y-226150000D03*
%TO.P,D3,3,VSS*%
%TO.N,GND*%
X13640000Y-231050000D03*
%TO.P,D3,4,DIN*%
%TO.N,Net-(D22-Pad2)*%
X16840000Y-231050000D03*
%TD*%
D11*
%TO.P,C11,1*%
%TO.N,+5V*%
X40132000Y-227125000D03*
%TO.P,C11,2*%
%TO.N,GND*%
X40132000Y-230075000D03*
%TD*%
D12*
%TO.P,D38,1,VDD*%
%TO.N,+5V*%
X74600000Y-78650000D03*
%TO.P,D38,2,DOUT*%
%TO.N,Net-(D38-Pad2)*%
X77800000Y-78650000D03*
%TO.P,D38,3,VSS*%
%TO.N,GND*%
X77800000Y-73750000D03*
%TO.P,D38,4,DIN*%
%TO.N,Net-(D37-Pad2)*%
X74600000Y-73750000D03*
%TD*%
%TO.P,D28,1,VDD*%
%TO.N,+5V*%
X74600000Y-139610000D03*
%TO.P,D28,2,DOUT*%
%TO.N,Net-(D28-Pad2)*%
X77800000Y-139610000D03*
%TO.P,D28,3,VSS*%
%TO.N,GND*%
X77800000Y-134710000D03*
%TO.P,D28,4,DIN*%
%TO.N,Net-(D27-Pad2)*%
X74600000Y-134710000D03*
%TD*%
D11*
%TO.P,C3,1*%
%TO.N,+5V*%
X68580000Y-288085000D03*
%TO.P,C3,2*%
%TO.N,GND*%
X68580000Y-291035000D03*
%TD*%
D10*
%TO.P,C50,1*%
%TO.N,+5V*%
X22811000Y-16715000D03*
%TO.P,C50,2*%
%TO.N,GND*%
X22811000Y-13765000D03*
%TD*%
D12*
%TO.P,D44,1,VDD*%
%TO.N,+5V*%
X108280000Y-43270000D03*
%TO.P,D44,2,DOUT*%
%TO.N,Net-(D44-Pad2)*%
X105080000Y-43270000D03*
%TO.P,D44,3,VSS*%
%TO.N,GND*%
X105080000Y-48170000D03*
%TO.P,D44,4,DIN*%
%TO.N,Net-(D43-Pad2)*%
X108280000Y-48170000D03*
%TD*%
D11*
%TO.P,C42,1*%
%TO.N,+5V*%
X38100000Y-44245000D03*
%TO.P,C42,2*%
%TO.N,GND*%
X38100000Y-47195000D03*
%TD*%
D12*
%TO.P,D35,1,VDD*%
%TO.N,+5V*%
X138760000Y-104230000D03*
%TO.P,D35,2,DOUT*%
%TO.N,Net-(D36-Pad4)*%
X135560000Y-104230000D03*
%TO.P,D35,3,VSS*%
%TO.N,GND*%
X135560000Y-109130000D03*
%TO.P,D35,4,DIN*%
%TO.N,Net-(D34-Pad2)*%
X138760000Y-109130000D03*
%TD*%
D10*
%TO.P,C7,1*%
%TO.N,+5V*%
X83312000Y-260555000D03*
%TO.P,C7,2*%
%TO.N,GND*%
X83312000Y-257605000D03*
%TD*%
%TO.P,C48,1*%
%TO.N,+5V*%
X83820000Y-17223000D03*
%TO.P,C48,2*%
%TO.N,GND*%
X83820000Y-14273000D03*
%TD*%
D12*
%TO.P,D9,1,VDD*%
%TO.N,+5V*%
X105080000Y-200570000D03*
%TO.P,D9,2,DOUT*%
%TO.N,Net-(D14-Pad4)*%
X108280000Y-200570000D03*
%TO.P,D9,3,VSS*%
%TO.N,GND*%
X108280000Y-195670000D03*
%TO.P,D9,4,DIN*%
%TO.N,Net-(D4-Pad2)*%
X105080000Y-195670000D03*
%TD*%
D11*
%TO.P,C19,1*%
%TO.N,+5V*%
X8636000Y-166165000D03*
%TO.P,C19,2*%
%TO.N,GND*%
X8636000Y-169115000D03*
%TD*%
D12*
%TO.P,D11,1,VDD*%
%TO.N,+5V*%
X77800000Y-287110000D03*
%TO.P,D11,2,DOUT*%
%TO.N,Net-(D11-Pad2)*%
X74600000Y-287110000D03*
%TO.P,D11,3,VSS*%
%TO.N,GND*%
X74600000Y-292010000D03*
%TO.P,D11,4,DIN*%
%TO.N,Net-(D11-Pad4)*%
X77800000Y-292010000D03*
%TD*%
D11*
%TO.P,C25,1*%
%TO.N,+5V*%
X99746903Y-288117451D03*
%TO.P,C25,2*%
%TO.N,GND*%
X99746903Y-291067451D03*
%TD*%
D10*
%TO.P,C6,1*%
%TO.N,+5V*%
X113665000Y-260555000D03*
%TO.P,C6,2*%
%TO.N,GND*%
X113665000Y-257605000D03*
%TD*%
%TO.P,C39,1*%
%TO.N,+5V*%
X52832000Y-77675000D03*
%TO.P,C39,2*%
%TO.N,GND*%
X52832000Y-74725000D03*
%TD*%
D12*
%TO.P,D4,1,VDD*%
%TO.N,+5V*%
X135560000Y-200570000D03*
%TO.P,D4,2,DOUT*%
%TO.N,Net-(D4-Pad2)*%
X138760000Y-200570000D03*
%TO.P,D4,3,VSS*%
%TO.N,GND*%
X138760000Y-195670000D03*
%TO.P,D4,4,DIN*%
%TO.N,Net-(D23-Pad2)*%
X135560000Y-195670000D03*
%TD*%
%TO.P,D15,1,VDD*%
%TO.N,+5V*%
X77831965Y-165226093D03*
%TO.P,D15,2,DOUT*%
%TO.N,Net-(D15-Pad2)*%
X74631965Y-165226093D03*
%TO.P,D15,3,VSS*%
%TO.N,GND*%
X74631965Y-170126093D03*
%TO.P,D15,4,DIN*%
%TO.N,Net-(D10-Pad2)*%
X77831965Y-170126093D03*
%TD*%
D10*
%TO.P,C28,1*%
%TO.N,+5V*%
X82804000Y-138635000D03*
%TO.P,C28,2*%
%TO.N,GND*%
X82804000Y-135685000D03*
%TD*%
D13*
%TO.P,J1,1,Pin_1*%
%TO.N,+5V*%
X12182000Y-299720000D03*
D14*
%TO.P,J1,2,Pin_2*%
%TO.N,Net-(D1-Pad4)*%
X14722000Y-299720000D03*
%TO.P,J1,3,Pin_3*%
%TO.N,GND*%
X17262000Y-299720000D03*
%TD*%
D15*
%TO.P,J2,1,Pin_1*%
%TO.N,+5V*%
X4572000Y-17780000D03*
D16*
%TO.P,J2,2,Pin_2*%
%TO.N,Net-(D50-Pad2)*%
X4572000Y-15240000D03*
%TO.P,J2,3,Pin_3*%
%TO.N,GND*%
X4572000Y-12700000D03*
%TD*%
D17*
%TO.N,GND*%
X101092000Y-173228000D03*
X100003381Y-293615475D03*
X9652000Y-112268000D03*
X70612000Y-173228000D03*
X39370000Y-50546000D03*
X101092000Y-112268000D03*
X40386000Y-172974000D03*
X39624000Y-112268000D03*
X81280000Y-130556000D03*
X9398000Y-173482000D03*
X52324000Y-9652000D03*
X82804000Y-254508000D03*
X132080000Y-113284000D03*
X81788000Y-192024000D03*
X51308000Y-131064000D03*
X143002000Y-192786000D03*
X70866000Y-51054000D03*
X40894000Y-233426000D03*
X9144000Y-294640000D03*
X39878000Y-293370000D03*
X10160000Y-51816000D03*
X71120000Y-233172000D03*
X100584000Y-51308000D03*
X112014000Y-130810000D03*
X21336000Y-193040000D03*
X51562000Y-71374000D03*
X142748000Y-254000000D03*
X11176000Y-234188000D03*
X20320000Y-131064000D03*
X112522000Y-9906000D03*
X132080000Y-233172000D03*
X81788000Y-9144000D03*
X132080000Y-51308000D03*
X21590000Y-71374000D03*
X112776000Y-192024000D03*
X82296000Y-70612000D03*
X21336000Y-9652000D03*
X113538000Y-70866000D03*
X51562000Y-192786000D03*
X70612000Y-112268000D03*
X130810000Y-172974000D03*
X51308000Y-254508000D03*
X69596000Y-293624000D03*
X143510000Y-9906000D03*
X21336000Y-254508000D03*
X131064000Y-293624000D03*
X112776000Y-254508000D03*
X102616000Y-233172000D03*
X143510000Y-70866000D03*
X140208000Y-130556000D03*
%TD*%
D18*
%TO.N,+5V*%
X135560000Y-208712000D02*
X135636000Y-208788000D01*
D19*
X135560000Y-200570000D02*
X135560000Y-208712000D01*
X135636000Y-208788000D02*
X141732000Y-208788000D01*
X114300000Y-208788000D02*
X135636000Y-208788000D01*
D18*
X105080000Y-208356000D02*
X104648000Y-208788000D01*
D19*
X105080000Y-200570000D02*
X105080000Y-208356000D01*
X104648000Y-208788000D02*
X114300000Y-208788000D01*
X82804000Y-208788000D02*
X104648000Y-208788000D01*
D20*
%TO.N,Net-(D2-Pad4)*%
X138430000Y-251460000D02*
X146685000Y-251460000D01*
X135560000Y-287110000D02*
X135560000Y-287960000D01*
X135560000Y-287960000D02*
X137160000Y-289560000D01*
X135560000Y-256630000D02*
X135560000Y-254330000D01*
X146685000Y-251460000D02*
X146685000Y-288290000D01*
X146685000Y-288290000D02*
X145415000Y-289560000D01*
X135560000Y-254330000D02*
X138430000Y-251460000D01*
X145415000Y-289560000D02*
X137160000Y-289560000D01*
%TO.N,Net-(D3-Pad2)*%
X15240000Y-229108000D02*
X18796000Y-229108000D01*
X19304000Y-229616000D02*
X19304000Y-233680000D01*
X18796000Y-229108000D02*
X19304000Y-229616000D01*
X47320000Y-234112000D02*
X47320000Y-231050000D01*
X13640000Y-227508000D02*
X15240000Y-229108000D01*
X19304000Y-233680000D02*
X21336000Y-235712000D01*
X13640000Y-226150000D02*
X13640000Y-227508000D01*
X21336000Y-235712000D02*
X45720000Y-235712000D01*
X45720000Y-235712000D02*
X47320000Y-234112000D01*
%TO.N,Net-(D11-Pad4)*%
X77800000Y-294945000D02*
X77800000Y-292010000D01*
X45085000Y-289560000D02*
X50165000Y-289560000D01*
X52705000Y-295910000D02*
X76835000Y-295910000D01*
X76835000Y-295910000D02*
X77800000Y-294945000D01*
X51435000Y-294640000D02*
X52705000Y-295910000D01*
X44120000Y-288595000D02*
X45085000Y-289560000D01*
X44120000Y-287110000D02*
X44120000Y-288595000D01*
X51435000Y-290830000D02*
X51435000Y-294640000D01*
X50165000Y-289560000D02*
X51435000Y-290830000D01*
%TO.N,Net-(D1-Pad2)*%
X20320000Y-289560000D02*
X14605000Y-289560000D01*
X47320000Y-292010000D02*
X47320000Y-294310000D01*
X13640000Y-288595000D02*
X13640000Y-287110000D01*
X47320000Y-294310000D02*
X45720000Y-295910000D01*
X45720000Y-295910000D02*
X21590000Y-295910000D01*
X21590000Y-295910000D02*
X20320000Y-294640000D01*
X14605000Y-289560000D02*
X13640000Y-288595000D01*
X20320000Y-294640000D02*
X20320000Y-289560000D01*
%TO.N,Net-(D2-Pad2)*%
X132588000Y-254000000D02*
X131064000Y-252476000D01*
X137160000Y-259080000D02*
X132588000Y-259080000D01*
X106680000Y-252476000D02*
X105080000Y-254076000D01*
X132588000Y-259080000D02*
X132588000Y-254000000D01*
X131064000Y-252476000D02*
X106680000Y-252476000D01*
X138760000Y-260680000D02*
X137160000Y-259080000D01*
X105080000Y-254076000D02*
X105080000Y-256630000D01*
X138760000Y-261530000D02*
X138760000Y-260680000D01*
%TO.N,Net-(D4-Pad2)*%
X138760000Y-200570000D02*
X138760000Y-199720000D01*
X133604000Y-198120000D02*
X130556000Y-195072000D01*
X129540000Y-189484000D02*
X106172000Y-189484000D01*
X130556000Y-190500000D02*
X129540000Y-189484000D01*
X106172000Y-189484000D02*
X105080000Y-190576000D01*
X138760000Y-199720000D02*
X137160000Y-198120000D01*
X105080000Y-190576000D02*
X105080000Y-195670000D01*
X130556000Y-195072000D02*
X130556000Y-190500000D01*
X137160000Y-198120000D02*
X133604000Y-198120000D01*
%TO.N,Net-(D10-Pad4)*%
X13640000Y-166040000D02*
X15240000Y-167640000D01*
X23368000Y-175768000D02*
X44704000Y-175768000D01*
X47320000Y-173152000D02*
X47320000Y-170090000D01*
X20828000Y-169164000D02*
X20828000Y-173228000D01*
X44704000Y-175768000D02*
X47320000Y-173152000D01*
X13640000Y-165190000D02*
X13640000Y-166040000D01*
X15240000Y-167640000D02*
X19304000Y-167640000D01*
X19304000Y-167640000D02*
X20828000Y-169164000D01*
X20828000Y-173228000D02*
X23368000Y-175768000D01*
%TO.N,Net-(D12-Pad4)*%
X108280000Y-261530000D02*
X108280000Y-260680000D01*
X101092000Y-252984000D02*
X100584000Y-252476000D01*
X102108000Y-259080000D02*
X101092000Y-258064000D01*
X108280000Y-260680000D02*
X106680000Y-259080000D01*
X100584000Y-252476000D02*
X76200000Y-252476000D01*
X101092000Y-258064000D02*
X101092000Y-252984000D01*
X76200000Y-252476000D02*
X74600000Y-254076000D01*
X74600000Y-254076000D02*
X74600000Y-256630000D01*
X106680000Y-259080000D02*
X102108000Y-259080000D01*
%TO.N,Net-(D13-Pad2)*%
X82296000Y-234696000D02*
X83312000Y-235712000D01*
X108280000Y-234620000D02*
X108280000Y-231050000D01*
X107188000Y-235712000D02*
X108280000Y-234620000D01*
X74600000Y-226492000D02*
X76708000Y-228600000D01*
X74600000Y-226150000D02*
X74600000Y-226492000D01*
X82296000Y-230124000D02*
X82296000Y-234696000D01*
X76708000Y-228600000D02*
X80772000Y-228600000D01*
X83312000Y-235712000D02*
X107188000Y-235712000D01*
X80772000Y-228600000D02*
X82296000Y-230124000D01*
%TO.N,Net-(D16-Pad2)*%
X105080000Y-287110000D02*
X105080000Y-287960000D01*
X111125000Y-289560000D02*
X112395000Y-290830000D01*
X113030000Y-295910000D02*
X137160000Y-295910000D01*
X105080000Y-287960000D02*
X106680000Y-289560000D01*
X106680000Y-289560000D02*
X111125000Y-289560000D01*
X137160000Y-295910000D02*
X138760000Y-294310000D01*
X112395000Y-290830000D02*
X112395000Y-295275000D01*
X112395000Y-295275000D02*
X113030000Y-295910000D01*
X138760000Y-294310000D02*
X138760000Y-292010000D01*
%TO.N,Net-(D10-Pad2)*%
X45720000Y-167640000D02*
X50292000Y-167640000D01*
X77831965Y-173120035D02*
X77831965Y-170126093D01*
X44120000Y-165190000D02*
X44120000Y-166040000D01*
X54864000Y-176276000D02*
X74676000Y-176276000D01*
X52832000Y-170180000D02*
X52832000Y-174244000D01*
X50292000Y-167640000D02*
X52832000Y-170180000D01*
X52832000Y-174244000D02*
X54864000Y-176276000D01*
X44120000Y-166040000D02*
X45720000Y-167640000D01*
X74676000Y-176276000D02*
X77831965Y-173120035D01*
%TO.N,Net-(D11-Pad2)*%
X107315000Y-295910000D02*
X108280000Y-294945000D01*
X74600000Y-287960000D02*
X76200000Y-289560000D01*
X81915000Y-295910000D02*
X107315000Y-295910000D01*
X81280000Y-290830000D02*
X81280000Y-295275000D01*
X81280000Y-295275000D02*
X81915000Y-295910000D01*
X74600000Y-287110000D02*
X74600000Y-287960000D01*
X76200000Y-289560000D02*
X80010000Y-289560000D01*
X80010000Y-289560000D02*
X81280000Y-290830000D01*
X108280000Y-294945000D02*
X108280000Y-292010000D01*
%TO.N,Net-(D13-Pad4)*%
X51816000Y-230124000D02*
X51816000Y-234188000D01*
X77800000Y-235128000D02*
X77800000Y-231050000D01*
X77216000Y-235712000D02*
X77800000Y-235128000D01*
X51816000Y-234188000D02*
X53340000Y-235712000D01*
X44120000Y-227000000D02*
X45720000Y-228600000D01*
X53340000Y-235712000D02*
X77216000Y-235712000D01*
X44120000Y-226150000D02*
X44120000Y-227000000D01*
X50292000Y-228600000D02*
X51816000Y-230124000D01*
X45720000Y-228600000D02*
X50292000Y-228600000D01*
%TO.N,Net-(D14-Pad4)*%
X108280000Y-199720000D02*
X106680000Y-198120000D01*
X100076000Y-191516000D02*
X98044000Y-189484000D01*
X98044000Y-189484000D02*
X75692000Y-189484000D01*
X101600000Y-198120000D02*
X100076000Y-196596000D01*
X75692000Y-189484000D02*
X74600000Y-190576000D01*
X106680000Y-198120000D02*
X101600000Y-198120000D01*
X100076000Y-196596000D02*
X100076000Y-191516000D01*
X108280000Y-200570000D02*
X108280000Y-199720000D01*
X74600000Y-190576000D02*
X74600000Y-195670000D01*
%TO.N,Net-(D25-Pad2)*%
X146812000Y-162560000D02*
X146812000Y-131572000D01*
X135560000Y-165190000D02*
X135560000Y-165532000D01*
X132930000Y-130214000D02*
X132930000Y-134634000D01*
X137668000Y-167640000D02*
X141732000Y-167640000D01*
X135128000Y-128016000D02*
X132930000Y-130214000D01*
X143256000Y-128016000D02*
X135128000Y-128016000D01*
X135560000Y-165532000D02*
X137668000Y-167640000D01*
X146812000Y-131572000D02*
X143256000Y-128016000D01*
X141732000Y-167640000D02*
X146812000Y-162560000D01*
%TO.N,Net-(D15-Pad2)*%
X74631965Y-165226093D02*
X74631965Y-166071965D01*
X76200000Y-167640000D02*
X80772000Y-167640000D01*
X105664000Y-176276000D02*
X108280000Y-173660000D01*
X74631965Y-166071965D02*
X76200000Y-167640000D01*
X83312000Y-170180000D02*
X83312000Y-174244000D01*
X80772000Y-167640000D02*
X83312000Y-170180000D01*
X85344000Y-176276000D02*
X105664000Y-176276000D01*
X108280000Y-173660000D02*
X108280000Y-170090000D01*
X83312000Y-174244000D02*
X85344000Y-176276000D01*
%TO.N,Net-(D22-Pad2)*%
X16875148Y-260715148D02*
X15240000Y-259080000D01*
X10160000Y-259080000D02*
X8636000Y-257556000D01*
X15240000Y-259080000D02*
X10160000Y-259080000D01*
X16875148Y-261612702D02*
X16875148Y-260715148D01*
X8636000Y-257556000D02*
X8636000Y-246380000D01*
X16840000Y-238176000D02*
X16840000Y-231050000D01*
X8636000Y-246380000D02*
X16840000Y-238176000D01*
%TO.N,Net-(D17-Pad2)*%
X38100000Y-252476000D02*
X15748000Y-252476000D01*
X13675148Y-254548852D02*
X13675148Y-256712702D01*
X15748000Y-252476000D02*
X13675148Y-254548852D01*
X45720000Y-259080000D02*
X41148000Y-259080000D01*
X39116000Y-253492000D02*
X38100000Y-252476000D01*
X47320000Y-260680000D02*
X45720000Y-259080000D01*
X41148000Y-259080000D02*
X39116000Y-257048000D01*
X47320000Y-261530000D02*
X47320000Y-260680000D01*
X39116000Y-257048000D02*
X39116000Y-253492000D01*
%TO.N,Net-(D23-Pad2)*%
X148336000Y-193040000D02*
X145288000Y-189992000D01*
X148336000Y-225552000D02*
X148336000Y-193040000D01*
X145288000Y-228600000D02*
X148336000Y-225552000D01*
X145288000Y-189992000D02*
X137668000Y-189992000D01*
X137668000Y-189992000D02*
X135560000Y-192100000D01*
X137160000Y-228600000D02*
X145288000Y-228600000D01*
X135560000Y-192100000D02*
X135560000Y-195670000D01*
X135560000Y-226150000D02*
X135560000Y-227000000D01*
X135560000Y-227000000D02*
X137160000Y-228600000D01*
D21*
%TO.N,Net-(D1-Pad4)*%
X14722000Y-299720000D02*
X14722000Y-296682000D01*
X16840000Y-294564000D02*
X16840000Y-292010000D01*
X14722000Y-296682000D02*
X16840000Y-294564000D01*
D20*
%TO.N,Net-(D20-Pad2)*%
X138760000Y-174168000D02*
X138760000Y-170090000D01*
X106680000Y-167640000D02*
X111252000Y-167640000D01*
X112776000Y-169164000D02*
X112776000Y-174244000D01*
X105080000Y-165190000D02*
X105080000Y-166040000D01*
X112776000Y-174244000D02*
X114808000Y-176276000D01*
X114808000Y-176276000D02*
X136652000Y-176276000D01*
X105080000Y-166040000D02*
X106680000Y-167640000D01*
X111252000Y-167640000D02*
X112776000Y-169164000D01*
X136652000Y-176276000D02*
X138760000Y-174168000D01*
%TO.N,Net-(D26-Pad2)*%
X126492000Y-130048000D02*
X123952000Y-127508000D01*
X129540000Y-137160000D02*
X126492000Y-134112000D01*
X107188000Y-127508000D02*
X104572000Y-130124000D01*
X104572000Y-130124000D02*
X104572000Y-134710000D01*
X123952000Y-127508000D02*
X107188000Y-127508000D01*
X136130000Y-138670000D02*
X134620000Y-137160000D01*
X136130000Y-139534000D02*
X136130000Y-138670000D01*
X126492000Y-134112000D02*
X126492000Y-130048000D01*
X134620000Y-137160000D02*
X129540000Y-137160000D01*
%TO.N,Net-(D18-Pad2)*%
X106680000Y-228600000D02*
X111252000Y-228600000D01*
X112776000Y-230124000D02*
X112776000Y-234696000D01*
X113792000Y-235712000D02*
X137160000Y-235712000D01*
X105080000Y-226150000D02*
X105080000Y-227000000D01*
X111252000Y-228600000D02*
X112776000Y-230124000D01*
X105080000Y-227000000D02*
X106680000Y-228600000D01*
X138760000Y-234112000D02*
X138760000Y-231050000D01*
X112776000Y-234696000D02*
X113792000Y-235712000D01*
X137160000Y-235712000D02*
X138760000Y-234112000D01*
%TO.N,Net-(D24-Pad2)*%
X10668000Y-198120000D02*
X8128000Y-195580000D01*
X16840000Y-199720000D02*
X15240000Y-198120000D01*
X8128000Y-180340000D02*
X10668000Y-177800000D01*
X16840000Y-175692000D02*
X16840000Y-170090000D01*
X15240000Y-198120000D02*
X10668000Y-198120000D01*
X14732000Y-177800000D02*
X16840000Y-175692000D01*
X10668000Y-177800000D02*
X14732000Y-177800000D01*
X16840000Y-200570000D02*
X16840000Y-199720000D01*
X8128000Y-195580000D02*
X8128000Y-180340000D01*
%TO.N,Net-(D27-Pad2)*%
X106172000Y-137160000D02*
X101092000Y-137160000D01*
X77216000Y-127508000D02*
X74600000Y-130124000D01*
X107772000Y-139610000D02*
X107772000Y-138760000D01*
X96520000Y-127508000D02*
X77216000Y-127508000D01*
X99060000Y-130048000D02*
X96520000Y-127508000D01*
X74600000Y-130124000D02*
X74600000Y-134710000D01*
X99060000Y-135128000D02*
X99060000Y-130048000D01*
X101092000Y-137160000D02*
X99060000Y-135128000D01*
X107772000Y-138760000D02*
X106172000Y-137160000D01*
D19*
%TO.N,+5V*%
X38100000Y-281432000D02*
X47244000Y-281432000D01*
X99060000Y-44245000D02*
X99060000Y-41148000D01*
X47320000Y-287110000D02*
X47320000Y-281508000D01*
X129540000Y-44245000D02*
X129540000Y-41148000D01*
X51816000Y-21336000D02*
X53340000Y-19812000D01*
X77800000Y-281864000D02*
X78232000Y-281432000D01*
X82804000Y-138635000D02*
X82804000Y-149860000D01*
X76200000Y-88392000D02*
X106680000Y-88392000D01*
D20*
X76200000Y-259080000D02*
X71120000Y-259080000D01*
D19*
X139192000Y-145288000D02*
X132588000Y-145288000D01*
X137820000Y-39624000D02*
X138760000Y-40564000D01*
X10160000Y-222504000D02*
X11684000Y-220980000D01*
X108280000Y-104230000D02*
X108280000Y-97104000D01*
X44196000Y-39116000D02*
X45212000Y-39116000D01*
X22352000Y-77675000D02*
X22352000Y-80772000D01*
X70612000Y-221488000D02*
X70104000Y-220980000D01*
X74168000Y-149860000D02*
X82804000Y-149860000D01*
X130810000Y-281686000D02*
X130556000Y-281432000D01*
X75692000Y-39116000D02*
X77800000Y-41224000D01*
X78232000Y-281432000D02*
X99060000Y-281432000D01*
X38608000Y-96520000D02*
X47244000Y-96520000D01*
X69088000Y-166165000D02*
X69088000Y-157988000D01*
X135560000Y-268148000D02*
X135636000Y-268224000D01*
X44196000Y-35052000D02*
X75692000Y-35052000D01*
X140716000Y-86360000D02*
X144272000Y-82804000D01*
X77800000Y-221564000D02*
X77216000Y-220980000D01*
X69054306Y-42197694D02*
X72136000Y-39116000D01*
X17272000Y-157988000D02*
X21844000Y-157988000D01*
X38735000Y-282067000D02*
X38100000Y-281432000D01*
X143510000Y-264922000D02*
X140208000Y-268224000D01*
X77800000Y-287110000D02*
X77800000Y-281864000D01*
X74600000Y-19228000D02*
X76708000Y-21336000D01*
X75692000Y-82296000D02*
X76200000Y-82804000D01*
X74600000Y-208356000D02*
X74168000Y-208788000D01*
X144272000Y-21844000D02*
X144272000Y-16715000D01*
X138760000Y-39192000D02*
X138760000Y-40564000D01*
X22352000Y-200103000D02*
X22352000Y-208788000D01*
X130048000Y-166165000D02*
X130048000Y-158496000D01*
X47320000Y-96596000D02*
X47244000Y-96520000D01*
X13640000Y-145212000D02*
X8560000Y-145212000D01*
X144272000Y-200012430D02*
X144184097Y-199924527D01*
X53340000Y-19812000D02*
X53340000Y-16715000D01*
X100076000Y-97028000D02*
X99568000Y-96520000D01*
X131572000Y-221488000D02*
X132080000Y-220980000D01*
X108204000Y-281432000D02*
X130556000Y-281432000D01*
X136652000Y-220980000D02*
X138760000Y-223088000D01*
X74600000Y-17690000D02*
X74600000Y-19228000D01*
X19812000Y-35052000D02*
X20320000Y-34544000D01*
X22352000Y-220472000D02*
X21844000Y-220980000D01*
X10160000Y-227125000D02*
X10160000Y-222504000D01*
X82296000Y-26416000D02*
X111252000Y-26416000D01*
X74600000Y-149428000D02*
X74168000Y-149860000D01*
X21844000Y-157988000D02*
X38608000Y-157988000D01*
X143510000Y-260555000D02*
X143510000Y-264922000D01*
X114300000Y-77675000D02*
X114300000Y-81280000D01*
X111252000Y-21844000D02*
X113792000Y-19304000D01*
X132080000Y-220980000D02*
X136652000Y-220980000D01*
X16840000Y-165190000D02*
X16840000Y-158420000D01*
X16840000Y-287110000D02*
X16840000Y-282016000D01*
X47320000Y-165190000D02*
X47320000Y-158064000D01*
X130556000Y-105205000D02*
X130556000Y-97028000D01*
X16840000Y-221412000D02*
X17272000Y-220980000D01*
X16840000Y-43270000D02*
X16840000Y-40208000D01*
X78232000Y-96520000D02*
X99568000Y-96520000D01*
X20828000Y-96520000D02*
X38608000Y-96520000D01*
X108280000Y-281508000D02*
X108204000Y-281432000D01*
X52832000Y-149860000D02*
X74168000Y-149860000D01*
X38100000Y-41656000D02*
X40640000Y-39116000D01*
X52832000Y-208788000D02*
X74168000Y-208788000D01*
X5080000Y-281940000D02*
X5588000Y-281432000D01*
X13675148Y-266659148D02*
X13675148Y-261612702D01*
X39116000Y-105205000D02*
X39116000Y-97028000D01*
X99060000Y-281432000D02*
X108204000Y-281432000D01*
X83312000Y-77675000D02*
X83312000Y-80772000D01*
X108280000Y-287110000D02*
X108280000Y-281508000D01*
X13640000Y-19736000D02*
X17272000Y-23368000D01*
X16002000Y-84074000D02*
X20320000Y-88392000D01*
X130556000Y-157988000D02*
X136652000Y-157988000D01*
X83361000Y-208231000D02*
X82804000Y-208788000D01*
X141224000Y-143256000D02*
X139192000Y-145288000D01*
X44196000Y-149860000D02*
X52832000Y-149860000D01*
X76200000Y-82804000D02*
X76200000Y-88392000D01*
X100076000Y-105205000D02*
X100076000Y-97028000D01*
X51816000Y-260555000D02*
X51816000Y-267716000D01*
X111252000Y-26416000D02*
X141224000Y-26416000D01*
X51816000Y-25908000D02*
X51308000Y-26416000D01*
X16840000Y-40208000D02*
X14732000Y-38100000D01*
X83361000Y-199595000D02*
X83361000Y-208231000D01*
X74600000Y-81204000D02*
X74600000Y-78650000D01*
X20320000Y-96012000D02*
X20828000Y-96520000D01*
X22352000Y-80772000D02*
X19050000Y-84074000D01*
X99568000Y-166165000D02*
X99568000Y-158496000D01*
X13640000Y-200570000D02*
X13640000Y-204648000D01*
X69054306Y-44196225D02*
X69054306Y-42197694D01*
X144272000Y-23368000D02*
X144272000Y-21844000D01*
X44120000Y-17690000D02*
X44120000Y-19228000D01*
X105080000Y-19228000D02*
X107696000Y-21844000D01*
X22811000Y-16715000D02*
X22811000Y-17829000D01*
X69596000Y-105205000D02*
X69596000Y-96520000D01*
X21844000Y-139143000D02*
X21844000Y-149860000D01*
X47320000Y-41224000D02*
X47320000Y-43270000D01*
X13640000Y-139610000D02*
X13640000Y-145212000D01*
X138684000Y-160020000D02*
X138684000Y-165114000D01*
X106680000Y-88392000D02*
X138684000Y-88392000D01*
X47320000Y-281508000D02*
X47244000Y-281432000D01*
X113284000Y-138635000D02*
X113284000Y-149352000D01*
X44120000Y-261530000D02*
X44120000Y-268148000D01*
X108712000Y-157988000D02*
X130556000Y-157988000D01*
X130810000Y-288085000D02*
X130810000Y-281686000D01*
X136652000Y-157988000D02*
X138684000Y-160020000D01*
X44120000Y-200570000D02*
X44120000Y-208712000D01*
X13550000Y-17780000D02*
X13640000Y-17690000D01*
X11176000Y-157988000D02*
X17272000Y-157988000D01*
X22811000Y-17829000D02*
X17272000Y-23368000D01*
X51308000Y-268224000D02*
X44196000Y-268224000D01*
X101600000Y-38608000D02*
X105664000Y-38608000D01*
X4064000Y-102108000D02*
X8128000Y-98044000D01*
X9144000Y-38100000D02*
X12192000Y-35052000D01*
X68072000Y-281432000D02*
X78232000Y-281432000D01*
X137160000Y-281432000D02*
X138760000Y-283032000D01*
X74168000Y-208788000D02*
X82804000Y-208788000D01*
X101092000Y-227125000D02*
X101092000Y-220980000D01*
X144272000Y-82804000D02*
X144272000Y-77675000D01*
X104572000Y-149784000D02*
X104648000Y-149860000D01*
X144272000Y-206248000D02*
X144272000Y-200012430D01*
X70612000Y-227125000D02*
X70612000Y-221488000D01*
X16840000Y-104230000D02*
X16840000Y-98984000D01*
X99695000Y-282067000D02*
X99060000Y-281432000D01*
X105664000Y-38608000D02*
X106172000Y-38608000D01*
X44120000Y-19228000D02*
X46228000Y-21336000D01*
X74600000Y-200570000D02*
X74600000Y-208356000D01*
X7036000Y-204648000D02*
X3556000Y-201168000D01*
X105664000Y-38608000D02*
X105664000Y-35560000D01*
X130048000Y-158496000D02*
X130556000Y-157988000D01*
X133096000Y-139700000D02*
X132930000Y-139534000D01*
X19812000Y-35052000D02*
X44196000Y-35052000D01*
X46228000Y-21336000D02*
X51816000Y-21336000D01*
X5588000Y-281432000D02*
X10160000Y-281432000D01*
X111252000Y-21844000D02*
X111252000Y-26416000D01*
X105156000Y-268224000D02*
X83312000Y-268224000D01*
X8560000Y-145212000D02*
X4064000Y-140716000D01*
X45212000Y-39116000D02*
X47320000Y-41224000D01*
X131572000Y-227125000D02*
X131572000Y-221488000D01*
X16256000Y-281432000D02*
X38100000Y-281432000D01*
X108280000Y-221056000D02*
X108204000Y-220980000D01*
X7544000Y-81712000D02*
X3048000Y-77216000D01*
X83312000Y-268224000D02*
X74168000Y-268224000D01*
X113284000Y-149352000D02*
X112776000Y-149860000D01*
X77216000Y-220980000D02*
X101092000Y-220980000D01*
X99568000Y-158496000D02*
X100076000Y-157988000D01*
X44120000Y-268148000D02*
X44196000Y-268224000D01*
X108280000Y-40716000D02*
X108280000Y-43270000D01*
X114300000Y-200103000D02*
X114300000Y-208788000D01*
X106172000Y-38608000D02*
X108280000Y-40716000D01*
X69088000Y-157988000D02*
X78232000Y-157988000D01*
X45720000Y-82804000D02*
X45720000Y-87884000D01*
X136144000Y-96520000D02*
X138760000Y-99136000D01*
X108280000Y-158420000D02*
X108712000Y-157988000D01*
X44196000Y-208788000D02*
X52832000Y-208788000D01*
X47244000Y-157988000D02*
X69088000Y-157988000D01*
X21844000Y-260604000D02*
X21844000Y-267716000D01*
X134620000Y-35052000D02*
X138760000Y-39192000D01*
X106172000Y-35052000D02*
X134620000Y-35052000D01*
X22352000Y-208788000D02*
X44196000Y-208788000D01*
X21844000Y-267716000D02*
X21336000Y-268224000D01*
X112776000Y-149860000D02*
X128016000Y-149860000D01*
X40132000Y-221488000D02*
X40640000Y-220980000D01*
X141224000Y-138635000D02*
X141224000Y-143256000D01*
X21844000Y-220980000D02*
X40640000Y-220980000D01*
X130556000Y-97028000D02*
X131064000Y-96520000D01*
X82296000Y-21336000D02*
X83820000Y-19812000D01*
X8128000Y-39116000D02*
X9144000Y-38100000D01*
X113792000Y-19304000D02*
X113792000Y-17223000D01*
X114300000Y-81280000D02*
X112268000Y-83312000D01*
X112268000Y-83312000D02*
X106172000Y-83312000D01*
X104572000Y-139610000D02*
X104572000Y-149784000D01*
X44120000Y-139610000D02*
X44120000Y-149784000D01*
X19050000Y-84074000D02*
X16002000Y-84074000D01*
X44196000Y-39116000D02*
X44196000Y-35052000D01*
X5080000Y-299212000D02*
X5080000Y-281940000D01*
X3048000Y-77216000D02*
X3048000Y-44196000D01*
X39116000Y-166165000D02*
X39116000Y-158496000D01*
X4572000Y-263144000D02*
X4572000Y-228092000D01*
X47320000Y-158064000D02*
X47244000Y-157988000D01*
X51816000Y-21336000D02*
X51816000Y-25908000D01*
X21844000Y-149860000D02*
X44196000Y-149860000D01*
X78232000Y-157988000D02*
X100076000Y-157988000D01*
X141224000Y-26416000D02*
X144272000Y-23368000D01*
X107696000Y-21844000D02*
X111252000Y-21844000D01*
X4572000Y-228092000D02*
X10160000Y-222504000D01*
X16840000Y-98984000D02*
X19304000Y-96520000D01*
X45720000Y-82804000D02*
X44120000Y-81204000D01*
X4572000Y-17780000D02*
X13550000Y-17780000D01*
D20*
X68072000Y-252476000D02*
X45212000Y-252476000D01*
D19*
X8890000Y-282702000D02*
X10160000Y-281432000D01*
X135560000Y-18720000D02*
X138684000Y-21844000D01*
X4064000Y-140716000D02*
X4064000Y-102108000D01*
X20320000Y-88392000D02*
X20320000Y-96012000D01*
D20*
X77800000Y-260680000D02*
X76200000Y-259080000D01*
D19*
X20320000Y-88392000D02*
X45212000Y-88392000D01*
X21844000Y-157988000D02*
X21844000Y-149860000D01*
X51308000Y-26416000D02*
X82296000Y-26416000D01*
X44120000Y-81204000D02*
X44120000Y-78650000D01*
X138684000Y-88392000D02*
X140716000Y-86360000D01*
X105080000Y-268148000D02*
X105156000Y-268224000D01*
X83820000Y-19812000D02*
X83820000Y-17223000D01*
X130556000Y-281432000D02*
X136652000Y-281432000D01*
D20*
X77800000Y-261530000D02*
X77800000Y-260680000D01*
D19*
X75692000Y-35052000D02*
X106172000Y-35052000D01*
X38608000Y-157988000D02*
X47244000Y-157988000D01*
X44120000Y-149784000D02*
X44196000Y-149860000D01*
X105080000Y-261530000D02*
X105080000Y-268148000D01*
X128016000Y-149860000D02*
X132588000Y-145288000D01*
X82296000Y-21336000D02*
X82296000Y-26416000D01*
X8636000Y-166165000D02*
X8636000Y-160528000D01*
X113665000Y-260555000D02*
X113665000Y-268097000D01*
X8636000Y-160528000D02*
X11176000Y-157988000D01*
X21336000Y-268224000D02*
X15240000Y-268224000D01*
X39116000Y-158496000D02*
X38608000Y-157988000D01*
X99060000Y-41148000D02*
X101600000Y-38608000D01*
X3556000Y-201168000D02*
X3556000Y-165608000D01*
X40640000Y-220980000D02*
X47244000Y-220980000D01*
D20*
X69088000Y-253492000D02*
X68072000Y-252476000D01*
X71120000Y-259080000D02*
X69088000Y-257048000D01*
D19*
X113665000Y-268097000D02*
X113792000Y-268224000D01*
X18288000Y-149860000D02*
X21844000Y-149860000D01*
X75692000Y-82296000D02*
X74600000Y-81204000D01*
X47244000Y-96520000D02*
X69596000Y-96520000D01*
X13640000Y-81712000D02*
X16002000Y-84074000D01*
X44120000Y-208712000D02*
X44196000Y-208788000D01*
X3048000Y-44196000D02*
X8128000Y-39116000D01*
X11684000Y-220980000D02*
X17272000Y-220980000D01*
X45212000Y-88392000D02*
X76200000Y-88392000D01*
X82804000Y-149860000D02*
X104648000Y-149860000D01*
X13640000Y-145212000D02*
X18288000Y-149860000D01*
X8128000Y-44245000D02*
X8128000Y-39116000D01*
X40640000Y-39116000D02*
X44196000Y-39116000D01*
X105664000Y-35560000D02*
X106172000Y-35052000D01*
X81788000Y-82296000D02*
X75692000Y-82296000D01*
X76708000Y-21336000D02*
X82296000Y-21336000D01*
X138760000Y-223088000D02*
X138760000Y-226150000D01*
X10160000Y-281432000D02*
X16256000Y-281432000D01*
X12192000Y-35052000D02*
X19812000Y-35052000D01*
X51816000Y-267716000D02*
X51308000Y-268224000D01*
X140208000Y-268224000D02*
X135636000Y-268224000D01*
X77831965Y-165226093D02*
X77831965Y-158388035D01*
X69596000Y-96520000D02*
X78232000Y-96520000D01*
X77800000Y-96952000D02*
X78232000Y-96520000D01*
X13640000Y-204648000D02*
X7036000Y-204648000D01*
X47320000Y-104230000D02*
X47320000Y-96596000D01*
X13640000Y-17690000D02*
X13640000Y-19736000D01*
X20320000Y-26416000D02*
X51308000Y-26416000D01*
X52832000Y-138635000D02*
X52832000Y-149860000D01*
X70104000Y-220980000D02*
X77216000Y-220980000D01*
X106172000Y-87884000D02*
X106680000Y-88392000D01*
X8128000Y-98044000D02*
X9652000Y-96520000D01*
X16840000Y-226150000D02*
X16840000Y-221412000D01*
X8890000Y-288085000D02*
X8890000Y-282702000D01*
X138684000Y-165114000D02*
X138760000Y-165190000D01*
X106172000Y-83312000D02*
X105080000Y-82220000D01*
X47320000Y-226150000D02*
X47320000Y-221056000D01*
X9652000Y-96520000D02*
X19304000Y-96520000D01*
X131064000Y-39624000D02*
X137820000Y-39624000D01*
X113792000Y-268224000D02*
X105156000Y-268224000D01*
X131064000Y-96520000D02*
X136144000Y-96520000D01*
X77831965Y-158388035D02*
X78232000Y-157988000D01*
X68580000Y-281940000D02*
X68072000Y-281432000D01*
X138760000Y-99136000D02*
X138760000Y-104230000D01*
X16840000Y-282016000D02*
X16256000Y-281432000D01*
X15240000Y-268224000D02*
X13675148Y-266659148D01*
X135636000Y-268224000D02*
X113792000Y-268224000D01*
X136652000Y-281432000D02*
X140208000Y-277876000D01*
X72136000Y-39116000D02*
X75692000Y-39116000D01*
X3556000Y-165608000D02*
X8636000Y-160528000D01*
X105080000Y-17690000D02*
X105080000Y-19228000D01*
X38100000Y-44245000D02*
X38100000Y-41656000D01*
X138684000Y-21844000D02*
X144272000Y-21844000D01*
X83312000Y-260555000D02*
X83312000Y-268224000D01*
X17780000Y-208788000D02*
X22352000Y-208788000D01*
X136652000Y-281432000D02*
X137160000Y-281432000D01*
X17272000Y-23368000D02*
X20320000Y-26416000D01*
X77800000Y-104230000D02*
X77800000Y-96952000D01*
X39116000Y-97028000D02*
X38608000Y-96520000D01*
X135560000Y-78650000D02*
X135560000Y-81204000D01*
X5588000Y-299720000D02*
X5080000Y-299212000D01*
X101092000Y-220980000D02*
X108204000Y-220980000D01*
X99695000Y-288085000D02*
X99695000Y-282067000D01*
X108204000Y-220980000D02*
X132080000Y-220980000D01*
X140208000Y-277876000D02*
X140208000Y-268224000D01*
X77800000Y-226150000D02*
X77800000Y-221564000D01*
X106172000Y-83312000D02*
X106172000Y-87884000D01*
X38735000Y-288085000D02*
X38735000Y-282067000D01*
D20*
X45212000Y-252476000D02*
X44120000Y-253568000D01*
D19*
X19304000Y-96520000D02*
X20828000Y-96520000D01*
X8087148Y-266659148D02*
X4572000Y-263144000D01*
X47244000Y-220980000D02*
X70104000Y-220980000D01*
X22352000Y-208788000D02*
X22352000Y-220472000D01*
X68580000Y-288085000D02*
X68580000Y-281940000D01*
X108280000Y-226150000D02*
X108280000Y-221056000D01*
X99568000Y-96520000D02*
X107696000Y-96520000D01*
X16840000Y-158420000D02*
X17272000Y-157988000D01*
X74600000Y-139610000D02*
X74600000Y-149428000D01*
X13640000Y-78650000D02*
X13640000Y-81712000D01*
X47320000Y-221056000D02*
X47244000Y-220980000D01*
X135560000Y-17690000D02*
X135560000Y-18720000D01*
X135560000Y-81204000D02*
X140716000Y-86360000D01*
X77800000Y-41224000D02*
X77800000Y-43270000D01*
X45720000Y-87884000D02*
X45212000Y-88392000D01*
X52832000Y-80772000D02*
X50800000Y-82804000D01*
X8128000Y-105205000D02*
X8128000Y-98044000D01*
X52832000Y-200103000D02*
X52832000Y-208788000D01*
D20*
X44120000Y-253568000D02*
X44120000Y-256630000D01*
D19*
X50800000Y-82804000D02*
X45720000Y-82804000D01*
X100076000Y-157988000D02*
X108712000Y-157988000D01*
X12182000Y-299720000D02*
X5588000Y-299720000D01*
X133096000Y-144780000D02*
X133096000Y-139700000D01*
X104648000Y-149860000D02*
X112776000Y-149860000D01*
X13640000Y-204648000D02*
X17780000Y-208788000D01*
D20*
X69088000Y-257048000D02*
X69088000Y-253492000D01*
D19*
X74168000Y-268224000D02*
X51308000Y-268224000D01*
X13640000Y-81712000D02*
X7544000Y-81712000D01*
X74600000Y-261530000D02*
X74600000Y-267792000D01*
X40132000Y-227125000D02*
X40132000Y-221488000D01*
X13675148Y-266659148D02*
X8087148Y-266659148D01*
X135560000Y-261530000D02*
X135560000Y-268148000D01*
X20320000Y-34544000D02*
X20320000Y-26416000D01*
X17272000Y-220980000D02*
X21844000Y-220980000D01*
X132588000Y-145288000D02*
X133096000Y-144780000D01*
X141732000Y-208788000D02*
X144272000Y-206248000D01*
X52832000Y-77675000D02*
X52832000Y-80772000D01*
X44196000Y-268224000D02*
X21336000Y-268224000D01*
X138760000Y-283032000D02*
X138760000Y-287110000D01*
X47244000Y-281432000D02*
X68072000Y-281432000D01*
X75692000Y-39116000D02*
X75692000Y-35052000D01*
X129540000Y-41148000D02*
X131064000Y-39624000D01*
X108280000Y-97104000D02*
X107696000Y-96520000D01*
X138760000Y-40564000D02*
X138760000Y-43270000D01*
X14732000Y-38100000D02*
X9144000Y-38100000D01*
X74600000Y-267792000D02*
X74168000Y-268224000D01*
X83312000Y-80772000D02*
X81788000Y-82296000D01*
X108280000Y-165190000D02*
X108280000Y-158420000D01*
X107696000Y-96520000D02*
X131064000Y-96520000D01*
X105080000Y-82220000D02*
X105080000Y-78650000D01*
%TO.N,GND*%
X135560000Y-111836000D02*
X134112000Y-113284000D01*
X40640000Y-294132000D02*
X43688000Y-294132000D01*
X21336000Y-193040000D02*
X22352000Y-194056000D01*
X13716000Y-49784000D02*
X13716000Y-48246000D01*
X143510000Y-254762000D02*
X143510000Y-257605000D01*
X81788000Y-192024000D02*
X83361000Y-193597000D01*
X21590000Y-71374000D02*
X22352000Y-72136000D01*
X139700000Y-70612000D02*
X143256000Y-70612000D01*
X39624000Y-112268000D02*
X39116000Y-111760000D01*
X113665000Y-255397000D02*
X113665000Y-257605000D01*
X138760000Y-254432000D02*
X139192000Y-254000000D01*
X134112000Y-173736000D02*
X135636000Y-172212000D01*
X138760000Y-195670000D02*
X138760000Y-193980000D01*
X105080000Y-172288000D02*
X105080000Y-170090000D01*
X78740000Y-254508000D02*
X82804000Y-254508000D01*
X16875148Y-256712702D02*
X16875148Y-255412852D01*
X112776000Y-192024000D02*
X114300000Y-193548000D01*
X144272000Y-196886624D02*
X144184097Y-196974527D01*
X83361000Y-193597000D02*
X83361000Y-196645000D01*
X111760000Y-130556000D02*
X112014000Y-130810000D01*
X13716000Y-292086000D02*
X13640000Y-292010000D01*
X102616000Y-233172000D02*
X104140000Y-233172000D01*
X129540000Y-47195000D02*
X129540000Y-48768000D01*
X39370000Y-50546000D02*
X39624000Y-50800000D01*
X134620000Y-293624000D02*
X131064000Y-293624000D01*
X22352000Y-72136000D02*
X22352000Y-74725000D01*
X42672000Y-50800000D02*
X44196000Y-49276000D01*
X104140000Y-173228000D02*
X105080000Y-172288000D01*
X131572000Y-232664000D02*
X132080000Y-233172000D01*
X140208000Y-9652000D02*
X143256000Y-9652000D01*
X47320000Y-72568000D02*
X49276000Y-70612000D01*
X50800000Y-70612000D02*
X51562000Y-71374000D01*
X47320000Y-73750000D02*
X47320000Y-72568000D01*
X21336000Y-254508000D02*
X21844000Y-255016000D01*
X72644000Y-112268000D02*
X70612000Y-112268000D01*
X132080000Y-113284000D02*
X130556000Y-111760000D01*
X138760000Y-11100000D02*
X140208000Y-9652000D01*
X43180000Y-233680000D02*
X44196000Y-232664000D01*
X108280000Y-255956000D02*
X109728000Y-254508000D01*
X112522000Y-9906000D02*
X113792000Y-11176000D01*
X22811000Y-11127000D02*
X22811000Y-13765000D01*
X20320000Y-131064000D02*
X21844000Y-132588000D01*
X40132000Y-230075000D02*
X40132000Y-232664000D01*
X105156000Y-50292000D02*
X105156000Y-48246000D01*
X79248000Y-9144000D02*
X81788000Y-9144000D01*
X130556000Y-111760000D02*
X130556000Y-108155000D01*
X48260000Y-9652000D02*
X52324000Y-9652000D01*
X134620000Y-233172000D02*
X135636000Y-232156000D01*
X112014000Y-130810000D02*
X113284000Y-132080000D01*
D21*
X13640000Y-293065000D02*
X13640000Y-292010000D01*
D19*
X114300000Y-193548000D02*
X114300000Y-197153000D01*
X40386000Y-172974000D02*
X40640000Y-173228000D01*
X144272000Y-10668000D02*
X144272000Y-13765000D01*
X138760000Y-73750000D02*
X138760000Y-71552000D01*
X13716000Y-48246000D02*
X13640000Y-48170000D01*
X47320000Y-193980000D02*
X48768000Y-192532000D01*
X99695000Y-291035000D02*
X99695000Y-293307094D01*
X130048000Y-169115000D02*
X130048000Y-172212000D01*
X8128000Y-49784000D02*
X10160000Y-51816000D01*
X68580000Y-291035000D02*
X68580000Y-292608000D01*
X69596000Y-111252000D02*
X69596000Y-108155000D01*
X100519906Y-294132000D02*
X100003381Y-293615475D01*
X8128000Y-110744000D02*
X8128000Y-108155000D01*
X99568000Y-169115000D02*
X99568000Y-171704000D01*
X101092000Y-230075000D02*
X101092000Y-232156000D01*
X77800000Y-195670000D02*
X77800000Y-193472000D01*
X9652000Y-173736000D02*
X12700000Y-173736000D01*
X104648000Y-294132000D02*
X100519906Y-294132000D01*
X144272000Y-194056000D02*
X144272000Y-196886624D01*
X39624000Y-50800000D02*
X42672000Y-50800000D01*
X109728000Y-9652000D02*
X112268000Y-9652000D01*
X143002000Y-192786000D02*
X144272000Y-194056000D01*
X47320000Y-134710000D02*
X47320000Y-132512000D01*
X74600000Y-49860000D02*
X74600000Y-48170000D01*
X73152000Y-51308000D02*
X74600000Y-49860000D01*
X69054306Y-49242306D02*
X70866000Y-51054000D01*
X52832000Y-194056000D02*
X52832000Y-197153000D01*
X44196000Y-48246000D02*
X44120000Y-48170000D01*
X130810000Y-293370000D02*
X131064000Y-293624000D01*
X8890000Y-294386000D02*
X9144000Y-294640000D01*
X8636000Y-172720000D02*
X9398000Y-173482000D01*
X140208000Y-192532000D02*
X142748000Y-192532000D01*
X77800000Y-12790000D02*
X77800000Y-10592000D01*
X130810000Y-291035000D02*
X130810000Y-293370000D01*
X81788000Y-70104000D02*
X82296000Y-70612000D01*
X108280000Y-195670000D02*
X108280000Y-193980000D01*
X79248000Y-70104000D02*
X81788000Y-70104000D01*
X40640000Y-173228000D02*
X43180000Y-173228000D01*
X142748000Y-192532000D02*
X143002000Y-192786000D01*
X114300000Y-71628000D02*
X114300000Y-74725000D01*
X141224000Y-131572000D02*
X141224000Y-135685000D01*
X16840000Y-11100000D02*
X18288000Y-9652000D01*
X16840000Y-72568000D02*
X18796000Y-70612000D01*
X77800000Y-255448000D02*
X78740000Y-254508000D01*
X12192000Y-112268000D02*
X9652000Y-112268000D01*
X11684000Y-234696000D02*
X13208000Y-234696000D01*
X142748000Y-254000000D02*
X143510000Y-254762000D01*
X104140000Y-51308000D02*
X105156000Y-50292000D01*
X74168000Y-294132000D02*
X70104000Y-294132000D01*
X79756000Y-130556000D02*
X77800000Y-132512000D01*
X16840000Y-12790000D02*
X16840000Y-11100000D01*
X52832000Y-72644000D02*
X52832000Y-74725000D01*
X13640000Y-172796000D02*
X13640000Y-170090000D01*
X99695000Y-293307094D02*
X100003381Y-293615475D01*
X21844000Y-132588000D02*
X21844000Y-136193000D01*
X135560000Y-109130000D02*
X135560000Y-111836000D01*
X38100000Y-49276000D02*
X39370000Y-50546000D01*
X130810000Y-172974000D02*
X131572000Y-173736000D01*
X74600000Y-292010000D02*
X74600000Y-293700000D01*
X9144000Y-294640000D02*
X12700000Y-294640000D01*
X51562000Y-71374000D02*
X52832000Y-72644000D01*
X51308000Y-192532000D02*
X51562000Y-192786000D01*
X81788000Y-9144000D02*
X82296000Y-9144000D01*
X135636000Y-172212000D02*
X135636000Y-170166000D01*
X51816000Y-255016000D02*
X51816000Y-257605000D01*
X12700000Y-173736000D02*
X13640000Y-172796000D01*
X79248000Y-192024000D02*
X81788000Y-192024000D01*
X13640000Y-110820000D02*
X12192000Y-112268000D01*
X44120000Y-293700000D02*
X44120000Y-292010000D01*
X107772000Y-132512000D02*
X109728000Y-130556000D01*
X70866000Y-51054000D02*
X71120000Y-51308000D01*
X143256000Y-70612000D02*
X143510000Y-70866000D01*
X104140000Y-112268000D02*
X101092000Y-112268000D01*
X82296000Y-9144000D02*
X83820000Y-10668000D01*
X70612000Y-232664000D02*
X71120000Y-233172000D01*
X131572000Y-230075000D02*
X131572000Y-232664000D01*
X38735000Y-291035000D02*
X38735000Y-292227000D01*
X13208000Y-234696000D02*
X13716000Y-234188000D01*
X82804000Y-254508000D02*
X83312000Y-255016000D01*
X109728000Y-130556000D02*
X111760000Y-130556000D01*
X21336000Y-9652000D02*
X22811000Y-11127000D01*
X130048000Y-172212000D02*
X130810000Y-172974000D01*
X108280000Y-256630000D02*
X108280000Y-255956000D01*
X102108000Y-233172000D02*
X102616000Y-233172000D01*
X39116000Y-111760000D02*
X39116000Y-108155000D01*
X16840000Y-193980000D02*
X17780000Y-193040000D01*
X105080000Y-232232000D02*
X105080000Y-231050000D01*
X113538000Y-70866000D02*
X114300000Y-71628000D01*
X48260000Y-254508000D02*
X51308000Y-254508000D01*
X135560000Y-292684000D02*
X134620000Y-293624000D01*
X11176000Y-234188000D02*
X11684000Y-234696000D01*
X107772000Y-134710000D02*
X107772000Y-132512000D01*
X43688000Y-294132000D02*
X44120000Y-293700000D01*
X109220000Y-70612000D02*
X113284000Y-70612000D01*
X113792000Y-11176000D02*
X113792000Y-14273000D01*
X53340000Y-10668000D02*
X53340000Y-13765000D01*
X143256000Y-9652000D02*
X143510000Y-9906000D01*
X74600000Y-110312000D02*
X72644000Y-112268000D01*
X81788000Y-130556000D02*
X81280000Y-130556000D01*
X101092000Y-173228000D02*
X104140000Y-173228000D01*
X68580000Y-292608000D02*
X69596000Y-293624000D01*
X108280000Y-71552000D02*
X109220000Y-70612000D01*
X16840000Y-134710000D02*
X16840000Y-132512000D01*
X21844000Y-255016000D02*
X21844000Y-257654000D01*
X136144000Y-134620000D02*
X136144000Y-132080000D01*
X51308000Y-131064000D02*
X52832000Y-132588000D01*
X101092000Y-232156000D02*
X102108000Y-233172000D01*
X100584000Y-51308000D02*
X104140000Y-51308000D01*
X140208000Y-130556000D02*
X141224000Y-131572000D01*
X9652000Y-112268000D02*
X8128000Y-110744000D01*
X132080000Y-233172000D02*
X134620000Y-233172000D01*
X16875148Y-255412852D02*
X17780000Y-254508000D01*
X71120000Y-233172000D02*
X73660000Y-233172000D01*
X52324000Y-9652000D02*
X53340000Y-10668000D01*
X48768000Y-192532000D02*
X51308000Y-192532000D01*
X134620000Y-51308000D02*
X135636000Y-50292000D01*
X74600000Y-109130000D02*
X74600000Y-110312000D01*
X16840000Y-195670000D02*
X16840000Y-193980000D01*
X138760000Y-256630000D02*
X138760000Y-254432000D01*
X132080000Y-51308000D02*
X134620000Y-51308000D01*
X135636000Y-170166000D02*
X135560000Y-170090000D01*
X135636000Y-48246000D02*
X135560000Y-48170000D01*
X138760000Y-12790000D02*
X138760000Y-11100000D01*
X17780000Y-193040000D02*
X21336000Y-193040000D01*
X129540000Y-48768000D02*
X132080000Y-51308000D01*
X44120000Y-109130000D02*
X44120000Y-110820000D01*
X18288000Y-131064000D02*
X20320000Y-131064000D01*
X82804000Y-135685000D02*
X82804000Y-131572000D01*
X113284000Y-132080000D02*
X113284000Y-135685000D01*
X135636000Y-231126000D02*
X135560000Y-231050000D01*
X40894000Y-233426000D02*
X41148000Y-233680000D01*
X51308000Y-254508000D02*
X51816000Y-255016000D01*
X105080000Y-293700000D02*
X104648000Y-294132000D01*
X10160000Y-230075000D02*
X10160000Y-233172000D01*
X82296000Y-70612000D02*
X83312000Y-71628000D01*
X47320000Y-10592000D02*
X48260000Y-9652000D01*
X39116000Y-169115000D02*
X39116000Y-171704000D01*
X71120000Y-51308000D02*
X73152000Y-51308000D01*
X10160000Y-51816000D02*
X11684000Y-51816000D01*
X40132000Y-232664000D02*
X40894000Y-233426000D01*
X112268000Y-9652000D02*
X112522000Y-9906000D01*
X113284000Y-70612000D02*
X113538000Y-70866000D01*
X38100000Y-47195000D02*
X38100000Y-49276000D01*
X69054306Y-47146225D02*
X69054306Y-49242306D01*
X20828000Y-70612000D02*
X21590000Y-71374000D01*
X69088000Y-169115000D02*
X69088000Y-171704000D01*
X136130000Y-134634000D02*
X136144000Y-134620000D01*
X73660000Y-233172000D02*
X74600000Y-232232000D01*
X108280000Y-11100000D02*
X109728000Y-9652000D01*
X81280000Y-130556000D02*
X79756000Y-130556000D01*
X47320000Y-12790000D02*
X47320000Y-10592000D01*
X8128000Y-47195000D02*
X8128000Y-49784000D01*
X99060000Y-49784000D02*
X100584000Y-51308000D01*
X83820000Y-10668000D02*
X83820000Y-14273000D01*
X74631965Y-171748035D02*
X74631965Y-170126093D01*
X136144000Y-132080000D02*
X137668000Y-130556000D01*
X44120000Y-110820000D02*
X42672000Y-112268000D01*
X108280000Y-73750000D02*
X108280000Y-71552000D01*
X139192000Y-254000000D02*
X142748000Y-254000000D01*
X101092000Y-112268000D02*
X100076000Y-111252000D01*
X99568000Y-171704000D02*
X101092000Y-173228000D01*
X137668000Y-130556000D02*
X140208000Y-130556000D01*
X18796000Y-70612000D02*
X20828000Y-70612000D01*
X134112000Y-113284000D02*
X132080000Y-113284000D01*
X44196000Y-231126000D02*
X44120000Y-231050000D01*
X83312000Y-255016000D02*
X83312000Y-257605000D01*
X70612000Y-112268000D02*
X69596000Y-111252000D01*
X83312000Y-71628000D02*
X83312000Y-74725000D01*
X108280000Y-193980000D02*
X110236000Y-192024000D01*
X39116000Y-171704000D02*
X40386000Y-172974000D01*
X47320000Y-195670000D02*
X47320000Y-193980000D01*
X105156000Y-48246000D02*
X105080000Y-48170000D01*
X16840000Y-73750000D02*
X16840000Y-72568000D01*
X135636000Y-232156000D02*
X135636000Y-231126000D01*
X82804000Y-131572000D02*
X81788000Y-130556000D01*
X47320000Y-132512000D02*
X48768000Y-131064000D01*
X39878000Y-293370000D02*
X40640000Y-294132000D01*
X73152000Y-173228000D02*
X74631965Y-171748035D01*
X138760000Y-193980000D02*
X140208000Y-192532000D01*
X16840000Y-132512000D02*
X18288000Y-131064000D01*
X144272000Y-71628000D02*
X144272000Y-74725000D01*
X13716000Y-234188000D02*
X13716000Y-231126000D01*
X47320000Y-256630000D02*
X47320000Y-255448000D01*
X70612000Y-230075000D02*
X70612000Y-232664000D01*
X108280000Y-12790000D02*
X108280000Y-11100000D01*
X112776000Y-254508000D02*
X113665000Y-255397000D01*
X49276000Y-70612000D02*
X50800000Y-70612000D01*
X13640000Y-109130000D02*
X13640000Y-110820000D01*
X74600000Y-293700000D02*
X74168000Y-294132000D01*
X105080000Y-111328000D02*
X104140000Y-112268000D01*
X138760000Y-71552000D02*
X139700000Y-70612000D01*
X77800000Y-71552000D02*
X79248000Y-70104000D01*
X110236000Y-192024000D02*
X112776000Y-192024000D01*
X143510000Y-9906000D02*
X144272000Y-10668000D01*
X11684000Y-51816000D02*
X13716000Y-49784000D01*
X69088000Y-171704000D02*
X70612000Y-173228000D01*
X17780000Y-254508000D02*
X21336000Y-254508000D01*
X131572000Y-173736000D02*
X134112000Y-173736000D01*
X8890000Y-291035000D02*
X8890000Y-294386000D01*
X74600000Y-232232000D02*
X74600000Y-231050000D01*
X99060000Y-47195000D02*
X99060000Y-49784000D01*
X100076000Y-111252000D02*
X100076000Y-108155000D01*
X12700000Y-294640000D02*
X13716000Y-293624000D01*
X44120000Y-172288000D02*
X44120000Y-170090000D01*
X10160000Y-233172000D02*
X11176000Y-234188000D01*
X52832000Y-132588000D02*
X52832000Y-135685000D01*
X22352000Y-194056000D02*
X22352000Y-197153000D01*
X135560000Y-292010000D02*
X135560000Y-292684000D01*
X70612000Y-173228000D02*
X73152000Y-173228000D01*
X13716000Y-293624000D02*
X13716000Y-292086000D01*
X105080000Y-109130000D02*
X105080000Y-111328000D01*
X70104000Y-294132000D02*
X69596000Y-293624000D01*
X47320000Y-255448000D02*
X48260000Y-254508000D01*
X48768000Y-131064000D02*
X51308000Y-131064000D01*
X77800000Y-193472000D02*
X79248000Y-192024000D01*
X77800000Y-10592000D02*
X79248000Y-9144000D01*
X41148000Y-233680000D02*
X43180000Y-233680000D01*
X43180000Y-173228000D02*
X44120000Y-172288000D01*
X18288000Y-9652000D02*
X21336000Y-9652000D01*
X104140000Y-233172000D02*
X105080000Y-232232000D01*
X77800000Y-132512000D02*
X77800000Y-134710000D01*
X77800000Y-73750000D02*
X77800000Y-71552000D01*
X105080000Y-292010000D02*
X105080000Y-293700000D01*
X77800000Y-256630000D02*
X77800000Y-255448000D01*
X44196000Y-49276000D02*
X44196000Y-48246000D01*
X13716000Y-231126000D02*
X13640000Y-231050000D01*
X143510000Y-70866000D02*
X144272000Y-71628000D01*
X9398000Y-173482000D02*
X9652000Y-173736000D01*
X8636000Y-169115000D02*
X8636000Y-172720000D01*
X109728000Y-254508000D02*
X112776000Y-254508000D01*
X44196000Y-232664000D02*
X44196000Y-231126000D01*
X38735000Y-292227000D02*
X39878000Y-293370000D01*
X51562000Y-192786000D02*
X52832000Y-194056000D01*
X42672000Y-112268000D02*
X39624000Y-112268000D01*
X135636000Y-50292000D02*
X135636000Y-48246000D01*
D20*
%TO.N,Net-(D28-Pad2)*%
X46228000Y-127508000D02*
X44120000Y-129616000D01*
X66548000Y-127508000D02*
X46228000Y-127508000D01*
X44120000Y-129616000D02*
X44120000Y-134710000D01*
X69088000Y-130048000D02*
X66548000Y-127508000D01*
X77800000Y-139610000D02*
X77800000Y-138760000D01*
X76200000Y-137160000D02*
X71628000Y-137160000D01*
X69088000Y-134620000D02*
X69088000Y-130048000D01*
X77800000Y-138760000D02*
X76200000Y-137160000D01*
X71628000Y-137160000D02*
X69088000Y-134620000D01*
%TO.N,Net-(D29-Pad2)*%
X45720000Y-137160000D02*
X47320000Y-138760000D01*
X16256000Y-127508000D02*
X35560000Y-127508000D01*
X13640000Y-134710000D02*
X13640000Y-130124000D01*
X38100000Y-130048000D02*
X38100000Y-134112000D01*
X41148000Y-137160000D02*
X45720000Y-137160000D01*
X35560000Y-127508000D02*
X38100000Y-130048000D01*
X47320000Y-138760000D02*
X47320000Y-139610000D01*
X13640000Y-130124000D02*
X16256000Y-127508000D01*
X38100000Y-134112000D02*
X41148000Y-137160000D01*
%TO.N,Net-(D31-Pad2)*%
X25908000Y-116840000D02*
X44196000Y-116840000D01*
X44196000Y-116840000D02*
X47320000Y-113716000D01*
X23368000Y-114300000D02*
X25908000Y-116840000D01*
X23368000Y-109728000D02*
X23368000Y-114300000D01*
X20320000Y-106680000D02*
X23368000Y-109728000D01*
X13640000Y-105080000D02*
X15240000Y-106680000D01*
X47320000Y-108280000D02*
X47320000Y-109130000D01*
X47320000Y-113716000D02*
X47320000Y-109130000D01*
X15240000Y-106680000D02*
X20320000Y-106680000D01*
X13640000Y-104230000D02*
X13640000Y-105080000D01*
%TO.N,Net-(D32-Pad2)*%
X44120000Y-105080000D02*
X45720000Y-106680000D01*
X53340000Y-109220000D02*
X53340000Y-115316000D01*
X53340000Y-115316000D02*
X54864000Y-116840000D01*
X74676000Y-116840000D02*
X77800000Y-113716000D01*
X44120000Y-104230000D02*
X44120000Y-105080000D01*
X77800000Y-113716000D02*
X77800000Y-109130000D01*
X45720000Y-106680000D02*
X50800000Y-106680000D01*
X50800000Y-106680000D02*
X53340000Y-109220000D01*
X54864000Y-116840000D02*
X74676000Y-116840000D01*
%TO.N,Net-(D33-Pad2)*%
X108280000Y-113208000D02*
X108280000Y-109130000D01*
X104140000Y-117348000D02*
X108280000Y-113208000D01*
X86868000Y-117348000D02*
X104140000Y-117348000D01*
X81788000Y-106680000D02*
X84328000Y-109220000D01*
X74600000Y-104572000D02*
X76708000Y-106680000D01*
X74600000Y-104230000D02*
X74600000Y-104572000D01*
X76708000Y-106680000D02*
X81788000Y-106680000D01*
X84328000Y-109220000D02*
X84328000Y-114808000D01*
X84328000Y-114808000D02*
X86868000Y-117348000D01*
%TO.N,Net-(D34-Pad2)*%
X105080000Y-104230000D02*
X105080000Y-105080000D01*
X105080000Y-105080000D02*
X106680000Y-106680000D01*
X112268000Y-106680000D02*
X114808000Y-109220000D01*
X117348000Y-117348000D02*
X135128000Y-117348000D01*
X114808000Y-109220000D02*
X114808000Y-114808000D01*
X114808000Y-114808000D02*
X117348000Y-117348000D01*
X135128000Y-117348000D02*
X138760000Y-113716000D01*
X138760000Y-113716000D02*
X138760000Y-109130000D01*
X106680000Y-106680000D02*
X112268000Y-106680000D01*
%TO.N,Net-(D36-Pad2)*%
X105080000Y-69672000D02*
X105080000Y-73750000D01*
X138760000Y-77800000D02*
X137160000Y-76200000D01*
X106680000Y-68072000D02*
X105080000Y-69672000D01*
X137160000Y-76200000D02*
X132588000Y-76200000D01*
X132588000Y-76200000D02*
X129540000Y-73152000D01*
X129540000Y-69596000D02*
X128016000Y-68072000D01*
X138760000Y-78650000D02*
X138760000Y-77800000D01*
X129540000Y-73152000D02*
X129540000Y-69596000D01*
X128016000Y-68072000D02*
X106680000Y-68072000D01*
%TO.N,Net-(D38-Pad2)*%
X77800000Y-77800000D02*
X76200000Y-76200000D01*
X69596000Y-74676000D02*
X69596000Y-69596000D01*
X44120000Y-70180000D02*
X44120000Y-73750000D01*
X77800000Y-78650000D02*
X77800000Y-77800000D01*
X69596000Y-69596000D02*
X67564000Y-67564000D01*
X67564000Y-67564000D02*
X46736000Y-67564000D01*
X71120000Y-76200000D02*
X69596000Y-74676000D01*
X76200000Y-76200000D02*
X71120000Y-76200000D01*
X46736000Y-67564000D02*
X44120000Y-70180000D01*
%TO.N,Net-(D41-Pad2)*%
X13640000Y-44120000D02*
X15240000Y-45720000D01*
X15240000Y-45720000D02*
X19812000Y-45720000D01*
X23368000Y-53340000D02*
X45720000Y-53340000D01*
X13640000Y-43270000D02*
X13640000Y-44120000D01*
X22352000Y-52324000D02*
X23368000Y-53340000D01*
X19812000Y-45720000D02*
X22352000Y-48260000D01*
X47320000Y-51740000D02*
X47320000Y-48170000D01*
X45720000Y-53340000D02*
X47320000Y-51740000D01*
X22352000Y-48260000D02*
X22352000Y-52324000D01*
%TO.N,Net-(D42-Pad2)*%
X44120000Y-44120000D02*
X45720000Y-45720000D01*
X45720000Y-45720000D02*
X51308000Y-45720000D01*
X77724000Y-48246000D02*
X77800000Y-48170000D01*
X77724000Y-51816000D02*
X77724000Y-48246000D01*
X56388000Y-54356000D02*
X75184000Y-54356000D01*
X51308000Y-45720000D02*
X53848000Y-48260000D01*
X44120000Y-43270000D02*
X44120000Y-44120000D01*
X75184000Y-54356000D02*
X77724000Y-51816000D01*
X53848000Y-48260000D02*
X53848000Y-51816000D01*
X53848000Y-51816000D02*
X56388000Y-54356000D01*
%TO.N,Net-(D43-Pad2)*%
X108280000Y-51740000D02*
X108280000Y-48170000D01*
X76708000Y-45720000D02*
X81788000Y-45720000D01*
X105156000Y-54864000D02*
X108280000Y-51740000D01*
X83820000Y-51816000D02*
X86868000Y-54864000D01*
X74600000Y-43612000D02*
X76708000Y-45720000D01*
X83820000Y-47752000D02*
X83820000Y-51816000D01*
X86868000Y-54864000D02*
X105156000Y-54864000D01*
X81788000Y-45720000D02*
X83820000Y-47752000D01*
X74600000Y-43270000D02*
X74600000Y-43612000D01*
%TO.N,Net-(D50-Pad2)*%
X15240000Y-15240000D02*
X4572000Y-15240000D01*
X16840000Y-17690000D02*
X16840000Y-16840000D01*
X16840000Y-16840000D02*
X15240000Y-15240000D01*
%TO.N,Net-(D14-Pad2)*%
X77800000Y-199720000D02*
X76200000Y-198120000D01*
X45720000Y-189484000D02*
X44120000Y-191084000D01*
X68072000Y-189484000D02*
X45720000Y-189484000D01*
X44120000Y-191084000D02*
X44120000Y-195670000D01*
X70612000Y-198120000D02*
X69088000Y-196596000D01*
X76200000Y-198120000D02*
X70612000Y-198120000D01*
X69088000Y-190500000D02*
X68072000Y-189484000D01*
X77800000Y-200570000D02*
X77800000Y-199720000D01*
X69088000Y-196596000D02*
X69088000Y-190500000D01*
%TO.N,Net-(D19-Pad2)*%
X47320000Y-200570000D02*
X47320000Y-199720000D01*
X47320000Y-199720000D02*
X45720000Y-198120000D01*
X45720000Y-198120000D02*
X41148000Y-198120000D01*
X41148000Y-198120000D02*
X39116000Y-196088000D01*
X39116000Y-196088000D02*
X39116000Y-191516000D01*
X37084000Y-189484000D02*
X15240000Y-189484000D01*
X13640000Y-191084000D02*
X13640000Y-195670000D01*
X39116000Y-191516000D02*
X37084000Y-189484000D01*
X15240000Y-189484000D02*
X13640000Y-191084000D01*
%TO.N,Net-(D31-Pad4)*%
X16840000Y-138760000D02*
X15240000Y-137160000D01*
X16840000Y-139610000D02*
X16840000Y-138760000D01*
X16840000Y-113716000D02*
X16840000Y-109130000D01*
X15748000Y-114808000D02*
X16840000Y-113716000D01*
X15240000Y-137160000D02*
X10668000Y-137160000D01*
X10668000Y-137160000D02*
X8636000Y-135128000D01*
X8636000Y-135128000D02*
X8636000Y-118872000D01*
X8636000Y-118872000D02*
X12700000Y-114808000D01*
X12700000Y-114808000D02*
X15748000Y-114808000D01*
%TO.N,Net-(D36-Pad4)*%
X137160000Y-106680000D02*
X144272000Y-106680000D01*
X144272000Y-106680000D02*
X149860000Y-101092000D01*
X135560000Y-105080000D02*
X137160000Y-106680000D01*
X135560000Y-104230000D02*
X135560000Y-105080000D01*
X149860000Y-70612000D02*
X147320000Y-68072000D01*
X149860000Y-101092000D02*
X149860000Y-70612000D01*
X147320000Y-68072000D02*
X137668000Y-68072000D01*
X137668000Y-68072000D02*
X135560000Y-70180000D01*
X135560000Y-70180000D02*
X135560000Y-73750000D01*
%TO.N,Net-(D37-Pad2)*%
X76708000Y-67564000D02*
X74600000Y-69672000D01*
X99568000Y-73660000D02*
X99568000Y-69088000D01*
X108280000Y-77800000D02*
X106680000Y-76200000D01*
X99568000Y-69088000D02*
X98044000Y-67564000D01*
X106680000Y-76200000D02*
X102108000Y-76200000D01*
X108280000Y-78650000D02*
X108280000Y-77800000D01*
X74600000Y-69672000D02*
X74600000Y-73750000D01*
X98044000Y-67564000D02*
X76708000Y-67564000D01*
X102108000Y-76200000D02*
X99568000Y-73660000D01*
%TO.N,Net-(D39-Pad2)*%
X40640000Y-76200000D02*
X37592000Y-73152000D01*
X35560000Y-67564000D02*
X15240000Y-67564000D01*
X13640000Y-69164000D02*
X13640000Y-73750000D01*
X45720000Y-76200000D02*
X40640000Y-76200000D01*
X47320000Y-77800000D02*
X45720000Y-76200000D01*
X37592000Y-73152000D02*
X37592000Y-69596000D01*
X15240000Y-67564000D02*
X13640000Y-69164000D01*
X37592000Y-69596000D02*
X35560000Y-67564000D01*
X47320000Y-78650000D02*
X47320000Y-77800000D01*
%TO.N,Net-(D41-Pad4)*%
X8636000Y-74168000D02*
X8636000Y-56896000D01*
X10668000Y-76200000D02*
X8636000Y-74168000D01*
X8636000Y-56896000D02*
X11176000Y-54356000D01*
X11176000Y-54356000D02*
X14732000Y-54356000D01*
X16764000Y-48246000D02*
X16840000Y-48170000D01*
X15240000Y-76200000D02*
X10668000Y-76200000D01*
X16764000Y-52324000D02*
X16764000Y-48246000D01*
X16840000Y-78650000D02*
X16840000Y-77800000D01*
X14732000Y-54356000D02*
X16764000Y-52324000D01*
X16840000Y-77800000D02*
X15240000Y-76200000D01*
%TO.N,Net-(D44-Pad2)*%
X105080000Y-43270000D02*
X105080000Y-44120000D01*
X138760000Y-52248000D02*
X138760000Y-48170000D01*
X117348000Y-54864000D02*
X136144000Y-54864000D01*
X114808000Y-48768000D02*
X114808000Y-52324000D01*
X114808000Y-52324000D02*
X117348000Y-54864000D01*
X106680000Y-45720000D02*
X111760000Y-45720000D01*
X136144000Y-54864000D02*
X138760000Y-52248000D01*
X105080000Y-44120000D02*
X106680000Y-45720000D01*
X111760000Y-45720000D02*
X114808000Y-48768000D01*
%TO.N,Net-(D46-Pad4)*%
X148336000Y-10668000D02*
X144780000Y-7112000D01*
X135560000Y-43270000D02*
X135560000Y-44120000D01*
X135560000Y-9728000D02*
X135560000Y-12790000D01*
X148336000Y-43688000D02*
X148336000Y-10668000D01*
X144780000Y-7112000D02*
X138176000Y-7112000D01*
X137668000Y-46228000D02*
X145796000Y-46228000D01*
X145796000Y-46228000D02*
X148336000Y-43688000D01*
X135560000Y-44120000D02*
X137668000Y-46228000D01*
X138176000Y-7112000D02*
X135560000Y-9728000D01*
%TO.N,Net-(D46-Pad2)*%
X105080000Y-8712000D02*
X105080000Y-12790000D01*
X127508000Y-6604000D02*
X107188000Y-6604000D01*
X132080000Y-15240000D02*
X130048000Y-13208000D01*
X136652000Y-15240000D02*
X132080000Y-15240000D01*
X130048000Y-13208000D02*
X130048000Y-9144000D01*
X107188000Y-6604000D02*
X105080000Y-8712000D01*
X138760000Y-17690000D02*
X138760000Y-17348000D01*
X130048000Y-9144000D02*
X127508000Y-6604000D01*
X138760000Y-17348000D02*
X136652000Y-15240000D01*
%TO.N,Net-(D47-Pad2)*%
X97536000Y-12192000D02*
X97536000Y-8636000D01*
X108280000Y-16840000D02*
X106680000Y-15240000D01*
X108280000Y-17690000D02*
X108280000Y-16840000D01*
X106680000Y-15240000D02*
X100584000Y-15240000D01*
X95504000Y-6604000D02*
X77216000Y-6604000D01*
X77216000Y-6604000D02*
X74600000Y-9220000D01*
X97536000Y-8636000D02*
X95504000Y-6604000D01*
X100584000Y-15240000D02*
X97536000Y-12192000D01*
X74600000Y-9220000D02*
X74600000Y-12790000D01*
%TO.N,Net-(D48-Pad2)*%
X47244000Y-6604000D02*
X44120000Y-9728000D01*
X75692000Y-15240000D02*
X71120000Y-15240000D01*
X77800000Y-17348000D02*
X75692000Y-15240000D01*
X67056000Y-6604000D02*
X47244000Y-6604000D01*
X71120000Y-15240000D02*
X69088000Y-13208000D01*
X44120000Y-9728000D02*
X44120000Y-12790000D01*
X69088000Y-8636000D02*
X67056000Y-6604000D01*
X77800000Y-17690000D02*
X77800000Y-17348000D01*
X69088000Y-13208000D02*
X69088000Y-8636000D01*
%TO.N,Net-(D49-Pad2)*%
X13640000Y-9728000D02*
X13640000Y-12790000D01*
X45720000Y-15240000D02*
X40640000Y-15240000D01*
X40640000Y-15240000D02*
X37592000Y-12192000D01*
X16764000Y-6604000D02*
X13640000Y-9728000D01*
X47320000Y-16840000D02*
X45720000Y-15240000D01*
X34544000Y-6604000D02*
X16764000Y-6604000D01*
X47320000Y-17690000D02*
X47320000Y-16840000D01*
X37592000Y-9652000D02*
X34544000Y-6604000D01*
X37592000Y-12192000D02*
X37592000Y-9652000D01*
%TD*%
M02*
