%TF.GenerationSoftware,KiCad,Pcbnew,(6.0.2)*%
%TF.CreationDate,2022-10-19T17:10:30-07:00*%
%TF.ProjectId,tetris,74657472-6973-42e6-9b69-6361645f7063,rev?*%
%TF.SameCoordinates,Original*%
%TF.FileFunction,Copper,L2,Bot*%
%TF.FilePolarity,Positive*%
%FSLAX46Y46*%
G04 Gerber Fmt 4.6, Leading zero omitted, Abs format (unit mm)*
G04 Created by KiCad (PCBNEW (6.0.2)) date 2022-10-19 17:10:30*
%MOMM*%
%LPD*%
G01*
G04 APERTURE LIST*
%TA.AperFunction,ComponentPad*%
%ADD10R,1.730000X2.030000*%
%TD*%
%TA.AperFunction,ComponentPad*%
%ADD11O,1.730000X2.030000*%
%TD*%
%TA.AperFunction,ComponentPad*%
%ADD12R,2.030000X1.730000*%
%TD*%
%TA.AperFunction,ComponentPad*%
%ADD13O,2.030000X1.730000*%
%TD*%
%TA.AperFunction,ViaPad*%
%ADD14C,1.200000*%
%TD*%
G04 APERTURE END LIST*
D10*
%TO.P,J1,1,Pin_1*%
%TO.N,+5V*%
X12182000Y-299720000D03*
D11*
%TO.P,J1,2,Pin_2*%
%TO.N,Net-(D1-Pad4)*%
X14722000Y-299720000D03*
%TO.P,J1,3,Pin_3*%
%TO.N,GND*%
X17262000Y-299720000D03*
%TD*%
D12*
%TO.P,J2,1,Pin_1*%
%TO.N,+5V*%
X4572000Y-17780000D03*
D13*
%TO.P,J2,2,Pin_2*%
%TO.N,Net-(D50-Pad2)*%
X4572000Y-15240000D03*
%TO.P,J2,3,Pin_3*%
%TO.N,GND*%
X4572000Y-12700000D03*
%TD*%
D14*
%TO.N,GND*%
X101092000Y-173228000D03*
X100003381Y-293615475D03*
X9652000Y-112268000D03*
X70612000Y-173228000D03*
X39370000Y-50546000D03*
X101092000Y-112268000D03*
X40386000Y-172974000D03*
X39624000Y-112268000D03*
X81280000Y-130556000D03*
X9398000Y-173482000D03*
X52324000Y-9652000D03*
X82804000Y-254508000D03*
X132080000Y-113284000D03*
X81788000Y-192024000D03*
X51308000Y-131064000D03*
X143002000Y-192786000D03*
X70866000Y-51054000D03*
X40894000Y-233426000D03*
X9144000Y-294640000D03*
X39878000Y-293370000D03*
X10160000Y-51816000D03*
X71120000Y-233172000D03*
X100584000Y-51308000D03*
X112014000Y-130810000D03*
X21336000Y-193040000D03*
X51562000Y-71374000D03*
X142748000Y-254000000D03*
X11176000Y-234188000D03*
X20320000Y-131064000D03*
X112522000Y-9906000D03*
X132080000Y-233172000D03*
X81788000Y-9144000D03*
X132080000Y-51308000D03*
X21590000Y-71374000D03*
X112776000Y-192024000D03*
X82296000Y-70612000D03*
X21336000Y-9652000D03*
X113538000Y-70866000D03*
X51562000Y-192786000D03*
X70612000Y-112268000D03*
X130810000Y-172974000D03*
X51308000Y-254508000D03*
X69596000Y-293624000D03*
X143510000Y-9906000D03*
X21336000Y-254508000D03*
X131064000Y-293624000D03*
X112776000Y-254508000D03*
X102616000Y-233172000D03*
X143510000Y-70866000D03*
X140208000Y-130556000D03*
%TD*%
%TA.AperFunction,Conductor*%
%TO.N,GND*%
G36*
X149802121Y-2560002D02*
G01*
X149848614Y-2613658D01*
X149860000Y-2666000D01*
X149860000Y-302642000D01*
X149839998Y-302710121D01*
X149786342Y-302756614D01*
X149734000Y-302768000D01*
X1650000Y-302768000D01*
X1581879Y-302747998D01*
X1535386Y-302694342D01*
X1524000Y-302642000D01*
X1524000Y-298657623D01*
X10816500Y-298657623D01*
X10816501Y-300782376D01*
X10816870Y-300785770D01*
X10816870Y-300785776D01*
X10821557Y-300828921D01*
X10823149Y-300843580D01*
X10873474Y-300977824D01*
X10878854Y-300985003D01*
X10878856Y-300985006D01*
X10879713Y-300986149D01*
X10959454Y-301092546D01*
X10966635Y-301097928D01*
X11066994Y-301173144D01*
X11066997Y-301173146D01*
X11074176Y-301178526D01*
X11163561Y-301212034D01*
X11201025Y-301226079D01*
X11201027Y-301226079D01*
X11208420Y-301228851D01*
X11216270Y-301229704D01*
X11216271Y-301229704D01*
X11266217Y-301235130D01*
X11269623Y-301235500D01*
X12181866Y-301235500D01*
X13094376Y-301235499D01*
X13097770Y-301235130D01*
X13097776Y-301235130D01*
X13147722Y-301229705D01*
X13147726Y-301229704D01*
X13155580Y-301228851D01*
X13289824Y-301178526D01*
X13297003Y-301173146D01*
X13297006Y-301173144D01*
X13397365Y-301097928D01*
X13404546Y-301092546D01*
X13484287Y-300986149D01*
X13485144Y-300985006D01*
X13485146Y-300985003D01*
X13490526Y-300977824D01*
X13533166Y-300864081D01*
X13575807Y-300807316D01*
X13642369Y-300782616D01*
X13711718Y-300797823D01*
X13742318Y-300821338D01*
X13813921Y-300896397D01*
X13999840Y-301034724D01*
X14004592Y-301037140D01*
X14140464Y-301106221D01*
X14206408Y-301139749D01*
X14313957Y-301173144D01*
X14422616Y-301206884D01*
X14422622Y-301206885D01*
X14427719Y-301208468D01*
X14551347Y-301224854D01*
X14652160Y-301238216D01*
X14652164Y-301238216D01*
X14657444Y-301238916D01*
X14662773Y-301238716D01*
X14662775Y-301238716D01*
X14773229Y-301234569D01*
X14889014Y-301230222D01*
X15115809Y-301182635D01*
X15331345Y-301097517D01*
X15529456Y-300977299D01*
X15622688Y-300896397D01*
X15700448Y-300828921D01*
X15700450Y-300828919D01*
X15704481Y-300825421D01*
X15707864Y-300821295D01*
X15707868Y-300821291D01*
X15806637Y-300700832D01*
X15851413Y-300646224D01*
X15878233Y-300599108D01*
X15929315Y-300549802D01*
X15998946Y-300535940D01*
X16065017Y-300561923D01*
X16092255Y-300591073D01*
X16185120Y-300729010D01*
X16191781Y-300737296D01*
X16345254Y-300898177D01*
X16353211Y-300905217D01*
X16531590Y-301037934D01*
X16540634Y-301043542D01*
X16738818Y-301144303D01*
X16748679Y-301148307D01*
X16960999Y-301214235D01*
X16971394Y-301216520D01*
X16990041Y-301218992D01*
X17004208Y-301216795D01*
X17008000Y-301203611D01*
X17008000Y-301201519D01*
X17516000Y-301201519D01*
X17519973Y-301215050D01*
X17530580Y-301216575D01*
X17652745Y-301190942D01*
X17662942Y-301187882D01*
X17869722Y-301106221D01*
X17879254Y-301101490D01*
X18069330Y-300986149D01*
X18077925Y-300979880D01*
X18245839Y-300834172D01*
X18253265Y-300826536D01*
X18394232Y-300654614D01*
X18400254Y-300645852D01*
X18510244Y-300452630D01*
X18514707Y-300442970D01*
X18590566Y-300233981D01*
X18593337Y-300223714D01*
X18633110Y-300003762D01*
X18634044Y-299995532D01*
X18634316Y-299989784D01*
X18630525Y-299976876D01*
X18629135Y-299975671D01*
X18621452Y-299974000D01*
X17534115Y-299974000D01*
X17518876Y-299978475D01*
X17517671Y-299979865D01*
X17516000Y-299987548D01*
X17516000Y-301201519D01*
X17008000Y-301201519D01*
X17008000Y-299447885D01*
X17516000Y-299447885D01*
X17520475Y-299463124D01*
X17521865Y-299464329D01*
X17529548Y-299466000D01*
X18613025Y-299466000D01*
X18627703Y-299461690D01*
X18629766Y-299449807D01*
X18620715Y-299343139D01*
X18618925Y-299332667D01*
X18563069Y-299117463D01*
X18559534Y-299107425D01*
X18468222Y-298904720D01*
X18463042Y-298895414D01*
X18338880Y-298710990D01*
X18332219Y-298702704D01*
X18178746Y-298541823D01*
X18170789Y-298534783D01*
X17992410Y-298402066D01*
X17983366Y-298396458D01*
X17785182Y-298295697D01*
X17775321Y-298291693D01*
X17563001Y-298225765D01*
X17552606Y-298223480D01*
X17533959Y-298221008D01*
X17519792Y-298223205D01*
X17516000Y-298236389D01*
X17516000Y-299447885D01*
X17008000Y-299447885D01*
X17008000Y-298238481D01*
X17004027Y-298224950D01*
X16993420Y-298223425D01*
X16871255Y-298249058D01*
X16861058Y-298252118D01*
X16654278Y-298333779D01*
X16644746Y-298338510D01*
X16454670Y-298453851D01*
X16446075Y-298460120D01*
X16278161Y-298605828D01*
X16270735Y-298613464D01*
X16129768Y-298785386D01*
X16123743Y-298794152D01*
X16096947Y-298841224D01*
X16045864Y-298890529D01*
X15976234Y-298904390D01*
X15910163Y-298878406D01*
X15882926Y-298849257D01*
X15845574Y-298793776D01*
X15790034Y-298711279D01*
X15742109Y-298661040D01*
X15633763Y-298547465D01*
X15630079Y-298543603D01*
X15444160Y-298405276D01*
X15320656Y-298342483D01*
X15242350Y-298302670D01*
X15242349Y-298302670D01*
X15237592Y-298300251D01*
X15112710Y-298261474D01*
X15021384Y-298233116D01*
X15021378Y-298233115D01*
X15016281Y-298231532D01*
X14883409Y-298213921D01*
X14791840Y-298201784D01*
X14791836Y-298201784D01*
X14786556Y-298201084D01*
X14781227Y-298201284D01*
X14781225Y-298201284D01*
X14670771Y-298205431D01*
X14554986Y-298209778D01*
X14328191Y-298257365D01*
X14112655Y-298342483D01*
X13914544Y-298462701D01*
X13910514Y-298466198D01*
X13760446Y-298596420D01*
X13739519Y-298614579D01*
X13738706Y-298615571D01*
X13677933Y-298649862D01*
X13607053Y-298645785D01*
X13549631Y-298604034D01*
X13531455Y-298571356D01*
X13493676Y-298470579D01*
X13490526Y-298462176D01*
X13485146Y-298454997D01*
X13485144Y-298454994D01*
X13409928Y-298354635D01*
X13404546Y-298347454D01*
X13386300Y-298333779D01*
X13297006Y-298266856D01*
X13297003Y-298266854D01*
X13289824Y-298261474D01*
X13192395Y-298224950D01*
X13162975Y-298213921D01*
X13162973Y-298213921D01*
X13155580Y-298211149D01*
X13147730Y-298210296D01*
X13147729Y-298210296D01*
X13097774Y-298204869D01*
X13097773Y-298204869D01*
X13094377Y-298204500D01*
X12182134Y-298204500D01*
X11269624Y-298204501D01*
X11266230Y-298204870D01*
X11266224Y-298204870D01*
X11216278Y-298210295D01*
X11216274Y-298210296D01*
X11208420Y-298211149D01*
X11074176Y-298261474D01*
X11066997Y-298266854D01*
X11066994Y-298266856D01*
X10977700Y-298333779D01*
X10959454Y-298347454D01*
X10954072Y-298354635D01*
X10878856Y-298454994D01*
X10878854Y-298454997D01*
X10873474Y-298462176D01*
X10823149Y-298596420D01*
X10816500Y-298657623D01*
X1524000Y-298657623D01*
X1524000Y-15175444D01*
X3053084Y-15175444D01*
X3061778Y-15407014D01*
X3109365Y-15633809D01*
X3194483Y-15849345D01*
X3314701Y-16047456D01*
X3466579Y-16222481D01*
X3467571Y-16223294D01*
X3501862Y-16284067D01*
X3497785Y-16354947D01*
X3456034Y-16412369D01*
X3423356Y-16430545D01*
X3314176Y-16471474D01*
X3306997Y-16476854D01*
X3306994Y-16476856D01*
X3206635Y-16552072D01*
X3199454Y-16557454D01*
X3194072Y-16564635D01*
X3118856Y-16664994D01*
X3118854Y-16664997D01*
X3113474Y-16672176D01*
X3063149Y-16806420D01*
X3056500Y-16867623D01*
X3056501Y-18692376D01*
X3063149Y-18753580D01*
X3113474Y-18887824D01*
X3118854Y-18895003D01*
X3118856Y-18895006D01*
X3194072Y-18995365D01*
X3199454Y-19002546D01*
X3206635Y-19007928D01*
X3306994Y-19083144D01*
X3306997Y-19083146D01*
X3314176Y-19088526D01*
X3403561Y-19122034D01*
X3441025Y-19136079D01*
X3441027Y-19136079D01*
X3448420Y-19138851D01*
X3456270Y-19139704D01*
X3456271Y-19139704D01*
X3506217Y-19145130D01*
X3509623Y-19145500D01*
X4571844Y-19145500D01*
X5634376Y-19145499D01*
X5637770Y-19145130D01*
X5637776Y-19145130D01*
X5687722Y-19139705D01*
X5687726Y-19139704D01*
X5695580Y-19138851D01*
X5829824Y-19088526D01*
X5837003Y-19083146D01*
X5837006Y-19083144D01*
X5937365Y-19007928D01*
X5944546Y-19002546D01*
X5949928Y-18995365D01*
X6025144Y-18895006D01*
X6025146Y-18895003D01*
X6030526Y-18887824D01*
X6080851Y-18753580D01*
X6087500Y-18692377D01*
X6087499Y-16867624D01*
X6080851Y-16806420D01*
X6030526Y-16672176D01*
X6025146Y-16664997D01*
X6025144Y-16664994D01*
X5949928Y-16564635D01*
X5944546Y-16557454D01*
X5937365Y-16552072D01*
X5837006Y-16476856D01*
X5837003Y-16476854D01*
X5829824Y-16471474D01*
X5761586Y-16445893D01*
X5716081Y-16428834D01*
X5659316Y-16386193D01*
X5634616Y-16319631D01*
X5649823Y-16250282D01*
X5673338Y-16219682D01*
X5744535Y-16151763D01*
X5748397Y-16148079D01*
X5886724Y-15962160D01*
X5991749Y-15755592D01*
X6031183Y-15628594D01*
X6058884Y-15539384D01*
X6058885Y-15539378D01*
X6060468Y-15534281D01*
X6090916Y-15304556D01*
X6082222Y-15072986D01*
X6034635Y-14846191D01*
X5949517Y-14630655D01*
X5829299Y-14432544D01*
X5745701Y-14336205D01*
X5680921Y-14261552D01*
X5680919Y-14261550D01*
X5677421Y-14257519D01*
X5673295Y-14254136D01*
X5673291Y-14254132D01*
X5502352Y-14113972D01*
X5498224Y-14110587D01*
X5493588Y-14107948D01*
X5493585Y-14107946D01*
X5451108Y-14083767D01*
X5401802Y-14032685D01*
X5387940Y-13963054D01*
X5413923Y-13896983D01*
X5443073Y-13869745D01*
X5581010Y-13776880D01*
X5589296Y-13770219D01*
X5750177Y-13616746D01*
X5757217Y-13608789D01*
X5889934Y-13430410D01*
X5895542Y-13421366D01*
X5996303Y-13223182D01*
X6000307Y-13213321D01*
X6066235Y-13001001D01*
X6068520Y-12990606D01*
X6070992Y-12971959D01*
X6068795Y-12957792D01*
X6055611Y-12954000D01*
X3090481Y-12954000D01*
X3076950Y-12957973D01*
X3075425Y-12968580D01*
X3101058Y-13090745D01*
X3104118Y-13100942D01*
X3185779Y-13307722D01*
X3190510Y-13317254D01*
X3305851Y-13507330D01*
X3312120Y-13515925D01*
X3457828Y-13683839D01*
X3465464Y-13691265D01*
X3637386Y-13832232D01*
X3646152Y-13838257D01*
X3693224Y-13865053D01*
X3742529Y-13916136D01*
X3756390Y-13985766D01*
X3730406Y-14051837D01*
X3701257Y-14079074D01*
X3563279Y-14171966D01*
X3395603Y-14331921D01*
X3257276Y-14517840D01*
X3152251Y-14724408D01*
X3117891Y-14835064D01*
X3085116Y-14940616D01*
X3085115Y-14940622D01*
X3083532Y-14945719D01*
X3053084Y-15175444D01*
X1524000Y-15175444D01*
X1524000Y-12428041D01*
X3073008Y-12428041D01*
X3075205Y-12442208D01*
X3088389Y-12446000D01*
X4299885Y-12446000D01*
X4315124Y-12441525D01*
X4316329Y-12440135D01*
X4318000Y-12432452D01*
X4318000Y-12427885D01*
X4826000Y-12427885D01*
X4830475Y-12443124D01*
X4831865Y-12444329D01*
X4839548Y-12446000D01*
X6053519Y-12446000D01*
X6067050Y-12442027D01*
X6068575Y-12431420D01*
X6042942Y-12309255D01*
X6039882Y-12299058D01*
X5958221Y-12092278D01*
X5953490Y-12082746D01*
X5838149Y-11892670D01*
X5831880Y-11884075D01*
X5686172Y-11716161D01*
X5678536Y-11708735D01*
X5506614Y-11567768D01*
X5497852Y-11561746D01*
X5304630Y-11451756D01*
X5294970Y-11447293D01*
X5085981Y-11371434D01*
X5075714Y-11368663D01*
X4855762Y-11328890D01*
X4847532Y-11327956D01*
X4841784Y-11327684D01*
X4828876Y-11331475D01*
X4827671Y-11332865D01*
X4826000Y-11340548D01*
X4826000Y-12427885D01*
X4318000Y-12427885D01*
X4318000Y-11348975D01*
X4313690Y-11334297D01*
X4301807Y-11332234D01*
X4195139Y-11341285D01*
X4184667Y-11343075D01*
X3969463Y-11398931D01*
X3959425Y-11402466D01*
X3756720Y-11493778D01*
X3747414Y-11498958D01*
X3562990Y-11623120D01*
X3554704Y-11629781D01*
X3393823Y-11783254D01*
X3386783Y-11791211D01*
X3254066Y-11969590D01*
X3248458Y-11978634D01*
X3147697Y-12176818D01*
X3143693Y-12186679D01*
X3077765Y-12398999D01*
X3075480Y-12409394D01*
X3073008Y-12428041D01*
X1524000Y-12428041D01*
X1524000Y-2666000D01*
X1544002Y-2597879D01*
X1597658Y-2551386D01*
X1650000Y-2540000D01*
X149734000Y-2540000D01*
X149802121Y-2560002D01*
G37*
%TD.AperFunction*%
%TD*%
M02*
